<?xml version="1.0" standalone="no"?>
<!DOCTYPE svg PUBLIC "-//W3C//DTD SVG 1.1//EN" "http://www.w3.org/Graphics/SVG/1.1/DTD/svg11.dtd" >
<svg xmlns="http://www.w3.org/2000/svg">
<metadata></metadata>
<defs>
<font id="elevate_personal_use_onlyRg" horiz-adv-x="1871" >
<font-face units-per-em="2048" ascent="1536" descent="-512" />
<missing-glyph horiz-adv-x="837" />
<glyph unicode="&#xfb01;" horiz-adv-x="1486" d="M-316.5 -238.5q-13.5 62.5 26.5 173t143.5 275.5t298.5 398q160 193 294 338.5t239.5 236.5t183 124.5t126.5 7.5q61 -35 41 -118t-100 -189.5t-206 -225t-273 -227.5q25 -27 32 -63q51 -4 108.5 10t115 39.5t113 57.5t103.5 63.5t86 57t58 40.5l21 16q63 49 128.5 61.5 t109.5 -2t51.5 -48t-46.5 -72.5q-98 -74 -178 -152t-132 -145.5t-70.5 -118.5t6.5 -72q23 -20 86 -4.5t142 49t160 74.5t136 72t99 29.5t61.5 -23t0 -58t-82.5 -77.5q-45 -27 -110.5 -67t-143.5 -80t-160 -74.5t-157.5 -52t-137 -14.5t-100.5 42q-49 47 -48 142.5t62 215.5 q-72 -29 -150.5 -47t-162.5 -18q-33 -70 -84 -156t-113.5 -171t-132.5 -161.5t-138.5 -127t-134 -67t-116.5 18.5q-41 27 -54.5 89.5zM-96 -129q10 -6 58 42t109.5 124t125 164t106.5 159q-23 12 -38 30t-25 38q-68 -84 -134.5 -176t-115.5 -173t-75 -138.5t-11 -69.5z M1374 1024q-18 53 12.5 107.5t96.5 76.5q63 23 121.5 0.5t76.5 -75.5t-12.5 -107.5t-95.5 -77.5q-63 -23 -121.5 0t-77.5 76z" />
<glyph unicode="&#xfb02;" horiz-adv-x="1486" d="M-316.5 -238.5q-13.5 62.5 26.5 173t143.5 275.5t298.5 398q160 193 294 338.5t239.5 236.5t183 124.5t126.5 7.5q61 -35 41 -118t-100 -189.5t-206 -225t-273 -227.5q25 -27 32 -63q39 -4 91.5 9t112 37.5t123 57.5t124.5 68q172 240 318.5 391t260 230t193.5 90 t119 -32q35 -37 19.5 -92t-65.5 -119.5t-126 -135t-163 -140.5t-176 -132t-165 -112q-53 -63 -96 -122.5t-72 -109.5t-37 -87t11 -55q31 -31 97 -18t145 47t156 78t128 73t92 25.5t56.5 -26t1 -57t-71.5 -71.5q-195 -127 -343.5 -193.5t-253 -84t-167 7t-86 80t-9 134 t61.5 168.5q-72 -29 -149.5 -47t-161.5 -18q-33 -70 -84 -156t-113.5 -171t-132.5 -161.5t-138.5 -127t-134 -67t-116.5 18.5q-41 27 -54.5 89.5zM-96 -129q10 -6 58 42t109.5 124t125 164t106.5 159q-23 12 -38 30t-25 38q-68 -84 -134.5 -176t-115.5 -173t-75 -138.5 t-11 -69.5z" />
<glyph horiz-adv-x="0" />
<glyph unicode="&#xd;" horiz-adv-x="837" />
<glyph horiz-adv-x="0" />
<glyph horiz-adv-x="0" />
<glyph unicode=" "  horiz-adv-x="837" />
<glyph unicode="&#x09;" horiz-adv-x="837" />
<glyph unicode="&#xa0;" horiz-adv-x="837" />
<glyph unicode="!" horiz-adv-x="765" d="M90 74q-10 45 13.5 88t67.5 76.5t98.5 55t103.5 25t87 -16t46 -64.5q8 -41 -17.5 -79t-68.5 -70t-96.5 -52.5t-102.5 -25.5t-86 9.5t-45 53.5zM416 537.5q0 33.5 35 76.5q31 39 80 98.5t108 128t125.5 140.5t133.5 135.5t130.5 112.5t114.5 71q78 35 147.5 36 t106.5 -21.5t30.5 -63.5t-79.5 -90q-49 -33 -118 -84t-144.5 -111.5t-154.5 -124t-147.5 -123t-123 -107.5t-82.5 -76q-43 -43 -81 -52.5t-59.5 6t-21.5 49z" />
<glyph unicode="&#x22;" horiz-adv-x="710" d="M237.5 847q-6.5 30 10.5 64q25 59 66 131t98 148q20 27 55 48.5t73 34.5t73.5 17t60 -5t31 -29.5t-14.5 -57.5q-18 -33 -52 -72t-76 -83t-86 -90t-85 -95t-73.5 -59.5t-53 4t-27 44.5zM589 875.5q-1 31.5 17 62.5q33 55 87 118.5t120 131.5q37 37 99.5 55.5t114.5 16 t76.5 -27t-13.5 -73.5q-23 -31 -63 -63.5t-88 -69.5t-99.5 -76t-98.5 -82t-80.5 -49t-52 9.5t-19.5 47z" />
<glyph unicode="#" horiz-adv-x="1280" d="M0 184.5q-2 30.5 37 71.5l108 111h-19t-20 2q-61 4 -74.5 30.5t9 56t74 55.5t121.5 26h75l140 145h-17.5t-17.5 2q-61 4 -75.5 30.5t8 56.5t74.5 55.5t122 25.5h67l64 70q27 33 63.5 43t65.5 0.5t39 -36t-17 -69.5q41 2 81 3t79 5l45 54q25 31 59.5 42t62.5 5t41 -28.5 t-1 -59.5l57 6q78 8 100.5 -16.5t-2 -59.5t-91 -68.5t-166.5 -46.5l-50 -6l-112 -127q14 0 27.5 1t25.5 3q78 8 100.5 -16.5t-2 -59t-91 -68.5t-165.5 -46l-67 -6q-41 -47 -74 -81t-51 -50q-41 -37 -83 -45.5t-67.5 4t-28.5 43t38 71.5l45 45q-45 0 -90.5 -1t-90.5 1 q-59 -61 -108 -109t-70 -67q-41 -37 -82 -45t-67.5 4.5t-28.5 43zM539 543l170 8q29 31 56.5 62.5t55.5 64.5q-39 -2 -79 -3t-78 -1z" />
<glyph unicode="$" horiz-adv-x="1906" d="M35 813q70 37 137.5 67.5t144.5 53.5q4 0 8.5 20.5t8.5 45t8 48t8 31.5q23 35 68 53.5t78 34.5q88 35 179 61.5t183 51.5q94 23 188.5 39t190.5 24q33 4 80 8.5t95 3.5t92 -12.5t71 -37.5q2 -4 -2 -29t-6 -33l-6 -98q0 -4 4 -4q78 -23 152.5 -58.5t123.5 -103.5v-2 q-16 4 -36.5 -3t-41 -20.5t-38 -28t-27.5 -26.5q31 -16 50 -47t27.5 -66.5t6.5 -72.5t-13 -68q-16 43 -49.5 66.5t-74.5 35t-85 14.5t-83 5q-45 4 -94.5 2t-92.5 14q-16 6 -22 25.5t-7 43t2 46.5t5 37q-184 -14 -363.5 -56t-351.5 -102q-8 -2 -8 -6q2 -10 8 -33.5t10 -50.5 t6 -49.5t-6 -28.5q-23 -18 -58.5 -21t-64.5 -7q-39 -6 -78.5 -12.5t-78.5 -12.5q-35 -8 -67 -17.5t-62 -21.5q-14 -8 -28.5 -13t-29.5 -16q-8 -8 -18 -20t-17 -16q10 35 24.5 67.5t27.5 63.5q2 6 13 25.5t21.5 41t18.5 39t6 21.5q-25 35 -58.5 67.5t-78.5 36.5zM86 -133h47 q4 -41 7 -83t12 -83q4 41 10 83t14 83h37l25 -166q4 41 9 83t9 83h43l-43 -223h-43q-6 37 -11 73.5t-9 73.5q-4 -37 -11.5 -73.5t-13.5 -73.5h-43zM90 819q68 -37 109 -108q2 -2 -4.5 -15.5t-14.5 -29t-15 -28.5t-9 -20q-25 -45 -41 -94q51 27 104 39t108.5 20.5t110 15.5 t107.5 24q-18 18 -47 25t-62 8t-65.5 -2t-55.5 -5v131t4 131q-59 -16 -116.5 -39.5t-112.5 -52.5zM305 -133h45q4 -41 8 -83t11 -83q4 41 10 83t14 83h39l23 -166q4 41 9 83t9 83h43l-43 -223h-41q-8 37 -13 73.5t-9 73.5q-4 -37 -10.5 -73.5t-12.5 -73.5h-45zM342 709 q8 0 22.5 6t29 15t27.5 18.5t23 13.5q37 16 75 29.5t77 27.5q78 23 155.5 43.5t159.5 38.5q78 16 155 31.5t157 21.5q72 8 154.5 11.5t152.5 -29.5q6 55 6 112.5t4 110.5q0 29 2 57.5t6 57.5q2 14 -6 22.5t-20.5 13.5t-26.5 7t-27 4q-119 18 -245.5 1t-245.5 -42 q-129 -27 -255 -60.5t-249 -86.5q-23 -12 -46.5 -24.5t-43.5 -29.5q-20 -16 -24.5 -49t-8.5 -55q-8 -66 -8 -132.5v-133.5zM367 825q0 23 15 38.5t36 19.5q6 2 15 -2t5 -15q-12 -8 -22 -8q-12 -4 -16.5 -16.5t1.5 -22.5q4 -4 8.5 -5t8.5 -3q20 -2 33.5 11.5t22.5 34t13.5 41 t8.5 34.5q-27 -27 -62 -35q-27 -4 -43 12q-16 8 -16 37q0 27 12 51q27 61 86 99q12 6 25.5 12t27.5 10q10 4 21.5 12.5t21.5 10.5q12 -1 6 -13q12 0 21 -2q16 -2 27.5 -15t13.5 -32q6 -43 -23.5 -83t-66.5 -62q-18 -12 -27.5 -31.5t-18.5 -39t-20.5 -38t-34.5 -28.5 q-23 -16 -53 -11q-12 4 -20 14.5t-6 24.5zM405.5 937q2.5 -15 22.5 -15q31 0 49.5 19.5t30.5 47t18.5 58.5t10.5 51q-29 -6 -52.5 -23.5t-44.5 -38.5q-6 -6 -15 -25.5t-15.5 -39t-4 -34.5zM522 -133h45q4 -41 9.5 -83t9.5 -83q4 41 10 83t14 83h39l25 -166q2 41 7 83t11 83 h41l-41 -223h-43q-8 37 -12 73.5t-10 73.5q-4 -37 -10.5 -73.5t-12.5 -73.5h-43zM530 950q14 4 29.5 19.5t26 35t14.5 40t0 34.5q-6 23 -33 23q-14 -37 -20.5 -75t-16.5 -77zM582 138q2 34 2 61q0 20 -1 38.5t1 38.5q0 49 26.5 67.5t73.5 18.5q37 0 54.5 -20t23.5 -50 t4 -63.5t-2 -60.5v-80q0 -47 -26.5 -66.5t-71.5 -17.5q-39 0 -56.5 20.5t-23.5 50t-4 63.5zM628 952.5q-5 20.5 6 46t31.5 46t43.5 22.5q12 0 16 -10q8 -12 2 -29q-6 -23 -27.5 -40t-44.5 -21q2 -12 10.5 -13.5t17.5 3t17.5 10.5t12.5 10q25 20 36 46t21 52q2 2 -1 9.5 t-8 15.5t-8 17t-1 16q10 27 34 22q12 0 17 -12q4 -10 2 -22.5t-2 -24.5q20 2 28.5 -1t-4.5 -28q-8 -16 -17 -33.5t-11 -36.5q0 -10 6 -10q20 0 34.5 20.5t26 46t22.5 51t25 34.5q8 2 17 -2q2 -4 2 -13q-4 -12 -10.5 -21t-1.5 -24q6 -12 13 -25.5t5 -27.5h2q20 25 32.5 60.5 t45.5 52.5q37 14 49 -21q10 -14 6 -25.5t-2 -27.5q8 2 14 10q16 12 18.5 35t8.5 41q4 4 11 5t12 -1q10 -2 8 -12v-2q10 10 24 16q10 6 17.5 2t11.5 -14q4 -12 1 -22.5t-8 -21.5t-10 -22.5t-3 -23.5q14 12 24 26.5t18.5 29.5t17.5 28.5t26 23.5q20 10 51 0q4 6 17 8.5 t9 -14.5q-4 -18 -14 -38.5t-10 -41.5q0 -14 8 -2q20 20 30.5 48t19.5 55.5t23.5 53t43.5 42.5q14 8 24 -8q12 -23 4 -48.5t-24 -41.5q-14 -18 -43 -44t-25 -53q4 -16 23 -12q14 6 21 19.5t16 25.5q4 2 12 2t8 -10l-4 -12q-16 -39 -53 -54q-25 -14 -43 15q-4 4 -4 10 q-10 -8 -16.5 -15.5t-18.5 -11.5q-10 -4 -16.5 0t-12.5 8q-4 -4 -12 -8t-16 -6q-31 -6 -43 21v2q-8 -10 -17.5 -17.5t-23.5 -11.5q-14 -8 -25 12q-6 12 -3 23.5t8 22t9 21.5t2 23q-18 -8 -25 -19t-11.5 -25.5t-6.5 -29t-8 -28.5q-6 -16 -24 -8q-8 2 -9 10q0 4 1 9t1 7 q-14 -4 -19 -4t-15 -10t-24.5 -18.5t-31.5 -8.5q-10 2 -16 8.5t-10 14.5q-16 -16 -40 -32.5t-50 -12.5q-16 2 -25 18q-25 -29 -51 -36q-29 -12 -33 20q-4 27 8.5 44t22.5 38q2 4 -3 5t-7 -3q-8 -20 -18.5 -44t-26 -45.5t-36 -34.5t-46.5 -11q-31 2 -36 22.5zM638 163 q-1 -38 1 -75q0 -16 9 -26.5t21.5 -14.5t24 1t15.5 24q2 12 2 27.5v29.5v147q0 16 -10.5 27.5t-22.5 16t-23.5 -2t-15.5 -22.5q-2 -14 -1 -29.5t1 -27.5q0 -37 -1 -75zM653 416q12 14 15.5 36.5t2.5 48t-4 49t-3 42.5v125q0 16 1 30.5t-12 28.5h76q-14 -12 -12 -32.5 t2 -36.5v-142q0 -16 -2 -49t10 -47q14 -23 37.5 -8.5t28.5 33.5q8 27 2.5 54t-9.5 54q-4 14 -10 38t-8 48.5t2 46t21 33.5q10 10 31.5 10t29.5 -16q6 -16 -2 -21.5t-18.5 -4.5t-17.5 8.5t1 15.5q-16 -8 -17 -28.5t6 -44t17 -46.5t15 -35q12 -37 17 -87t-22 -85 q-10 -14 -33.5 -19t-50 -5t-53 3t-41.5 3zM655 987q12 -2 28.5 15.5t18.5 27.5q4 8 -2 12.5t-12 -2.5q-10 -10 -18.5 -24.5t-14.5 -28.5zM715 -328q0 14 9 22.5t21.5 8.5t21.5 -8t9 -23q0 -16 -9 -23t-21.5 -7t-21.5 7t-9 23zM776 1124q-2 -8 4 -20h4q0 8 1 13t-1 13 q-6 0 -8 -6zM780 4q10 14 13.5 34.5t2.5 44t-4.5 46.5t-3.5 39v172q0 10 -8 22h58q29 -12 51 -50t35 -66q0 25 2 59.5t-13 56.5h74q-12 -10 -11 -24t1 -29v-246q0 -14 -1 -31.5t11 -27.5h-207zM797 -356l59 223h64l59 -223h-51l-15 51h-53l-10 -51h-53zM844 47 q0 -14 11 -23.5t25.5 -11.5t28 3.5t15.5 19.5q-4 63 -21.5 127.5t-58.5 116.5v-232zM865 506.5q-3 19.5 7 32.5q10 12 33 13t27 -22q0 -10 -7 -15t-15.5 -5t-14.5 4t-6 14q-12 -4 -12 -14t7 -20.5t17 -19.5t17 -11q14 -4 34.5 -4t30.5 10q20 20 16 40.5t-19 38t-35.5 32 t-31.5 24.5q-18 16 -30.5 42t-12.5 52.5t13.5 48t44.5 27.5q27 6 54.5 4t51.5 -2l-6 -10q0 -14 7 -29.5t13.5 -31t5.5 -29.5t-16 -27q-14 -10 -33.5 -9t-21.5 22q0 12 7 17t15.5 5t14.5 -5t4 -13q14 2 14 12t-8 21.5t-18.5 20.5t-18.5 11q-14 4 -32.5 1t-24.5 -19 q-12 -25 -4 -43.5t24.5 -32.5t37 -27.5t32.5 -27.5q14 -20 22.5 -47t4.5 -52.5t-20.5 -44t-47.5 -22.5q-27 -2 -53.5 -1t-54.5 1q8 4 5 19.5t-8.5 33.5t-8.5 37.5zM866 -266h41q-4 23 -9 46t-11 46zM874 1014q4 -12 16.5 -10t14.5 14q2 18 -10 43q-6 -8 -14.5 -22.5 t-6.5 -24.5zM991 1059l4 -15q10 -14 25 -6q16 4 23.5 21.5t3.5 34.5q-2 10 -9.5 16t-21.5 -4q-20 -14 -25 -47zM997 4q12 14 15.5 36.5t2.5 47.5t-4 48.5t-3 39.5v127q0 16 1 29.5t-12 29.5h76q-10 -10 -13 -30.5t-2 -42t3 -43t2 -35.5v-166h104q23 0 55.5 -3t55.5 13 q-4 -8 -7 -29.5t-14 -21.5h-260zM1006 -135q29 4 64.5 6t62.5 -14q31 -23 22.5 -58t-37.5 -49q14 -6 21.5 -19.5t10.5 -28.5t5 -30.5t8 -27.5h-51q-6 12 -8 27.5t-6 28.5t-12.5 22.5t-26.5 7.5v-86h-53v221zM1057 -196.5q2 -24.5 2 -34.5h12q18 0 26.5 10t6.5 22.5 t-11.5 21.5t-27.5 7q-10 -2 -8 -26.5zM1065 416q10 12 11 25.5t1 27.5v248q0 14 -1 30.5t-11 28.5h127q25 -25 25.5 -59.5t-9.5 -67.5q-4 -8 -15 -29.5t-20.5 -45t-11.5 -45t10 -27.5q-6 12 4.5 13t21.5 -4t14 -14.5t-17 -17.5q-25 -10 -35 9.5t-8 35.5q0 16 6 32.5t8 31 t-4 22.5t-28 6v-155q16 0 41.5 -3t44.5 11q-6 -14 -8.5 -26.5t-6.5 -26.5h-139zM1098 362h78q-12 -29 2 -65.5t26 -60.5q12 29 22.5 62.5t0.5 63.5h80q-23 -12 -27 -38.5t-10 -47.5q-6 -20 -23.5 -47.5t-17.5 -48.5q0 -23 -3 -56.5t13 -51.5h-76q18 18 14.5 53.5t-3.5 58.5 q-12 23 -21.5 46.5t-17.5 45.5q-10 23 -14.5 46.5t-22.5 39.5zM1133 662q20 0 45.5 2t27.5 32q0 16 -7 23.5t-18.5 10.5t-24.5 3h-23v-71zM1192 -133h53v-223h-53v223zM1245 1092q-4 -10 1 -27.5t22 -3.5q12 12 21 33t11 39q-2 8 -4 13t-12 1q-16 -8 -25.5 -23.5 t-13.5 -31.5zM1274 -328q0 14 9 22.5t21.5 8.5t21.5 -8t9 -23q0 -16 -9 -23t-21.5 -7t-21.5 7t-9 23zM1294 813q-8 -6 4 -8q27 -10 57.5 -13.5t62.5 -3.5h62.5t59.5 -2t57.5 -5t57.5 -13q29 -8 51.5 -23.5t48.5 -27.5q0 61 -21.5 106t-80.5 68q35 31 69.5 58.5t75.5 43.5 q-49 47 -110.5 77t-126.5 46q-2 -57 -3.5 -112.5t-5.5 -112.5l-2 2v-6q-27 -2 -64.5 -4t-74.5 -9.5t-68.5 -21.5t-48.5 -39zM1364 -133h57l68 -152q-4 39 -4 77v75h47v-223h-51q-20 39 -37 78.5t-35 76.5q2 -39 2 -77.5v-77.5h-47v223zM1393 1157q16 20 31.5 40t19.5 46h-2 q-37 -37 -49 -86zM1562.5 -268q-8.5 37 14.5 80q12 29 40 43t62 14h10.5t17.5 -2t16.5 -4t7.5 -4l-9 -41q-27 12 -48 8t-36.5 -18.5t-20.5 -37t3 -46.5q16 -47 61 -41q10 2 8.5 21.5t-1.5 27.5h-27v41h76v-121q-41 -16 -79 -9t-62.5 29.5t-33 59.5z" />
<glyph unicode="%" horiz-adv-x="1454" d="M-88 -55q-4 37 25 84q57 96 164.5 199.5t246.5 207.5q-12 6 -25.5 13.5t-25.5 17.5q-76 55 -86 131t24.5 152.5t104.5 146.5t155 111t174 44t162 -51q53 -41 71 -93t7 -111q90 49 175 93t165 81q61 29 109.5 19.5t73 -38t18.5 -66.5t-51 -69q-139 -90 -301 -170 t-334 -176t-345 -222t-333 -308q-41 -47 -80 -56.5t-64.5 7t-29.5 53.5zM394.5 676q-2.5 -33 15.5 -58q23 -29 58.5 -26.5t74.5 22t74.5 52t57 68.5t26 68t-20.5 52q-31 25 -68 22.5t-73.5 -20.5t-68.5 -49t-52.5 -64.5t-23 -66.5zM479 -10.5q-10 84.5 29 170.5t114.5 163.5 t167 125t186.5 51t173 -57.5q74 -59 84 -143t-23.5 -172t-104.5 -167t-159 -126t-186 -50t-189 62q-82 59 -92 143.5zM694.5 71q-3.5 -38 16.5 -65q25 -33 61.5 -31t76.5 25t77 59.5t60.5 77.5t27.5 78t-23 59q-33 27 -71.5 26t-76.5 -22.5t-71 -56.5t-53.5 -73.5t-24 -76.5 z" />
<glyph unicode="&#x26;" horiz-adv-x="1882" d="M-214 122q1 77 59.5 158.5t181.5 151.5q111 63 272.5 118.5t333.5 106.5q18 111 92 206t177.5 165t221 111t223 45t185.5 -34t106 -124q31 -98 -26.5 -174t-171 -136.5t-266 -108.5t-312.5 -91q12 -59 43 -107.5t76 -86.5q74 41 138.5 78.5t113.5 72.5q74 51 150.5 56.5 t128 -18.5t63.5 -63.5t-43 -78.5q-45 -31 -122 -75t-175 -95q104 -25 201 -23t163 27q74 29 115 4t46 -70t-26.5 -96t-103.5 -76q-51 -18 -128 -27.5t-167 -2t-188 38t-191 94.5q-100 -45 -204.5 -85t-208.5 -75q-174 -57 -314.5 -60.5t-240 31.5t-151.5 100.5t-51 142.5z M97.5 162q-7.5 -49 28.5 -81t109.5 -39t176.5 26q68 23 167 63.5t207 91.5q-67 85 -114 187q-6 12 -11.5 24t-9.5 25q-156 -45 -284.5 -91t-200.5 -106q-61 -51 -68.5 -100zM911 737q104 31 193.5 58.5t153 53t94 50t18.5 47.5q-18 31 -75.5 29t-127 -32t-140.5 -83 t-116 -123z" />
<glyph unicode="'" horiz-adv-x="10" d="M-16.5 918.5q-6.5 29.5 10.5 64.5q12 29 34.5 71t52.5 86t65.5 85.5t74.5 72.5q41 33 91 47.5t96.5 12.5t81 -21.5t45.5 -54.5q10 -37 -7.5 -68.5t-52.5 -60.5t-82 -55.5t-95 -53t-91 -54t-70 -60.5q-41 -49 -73.5 -59.5t-53 4t-27 44z" />
<glyph unicode="(" horiz-adv-x="808" d="M-102.5 -60.5q-14.5 111.5 17.5 245.5t111.5 283.5t214 300.5t326 295t445.5 267q63 31 124.5 36t112.5 -6t87 -36t49.5 -52.5t-1 -56.5t-63.5 -47q-295 -117 -505 -245.5t-350 -260t-217 -257t-104.5 -236.5t-11 -201t61.5 -147q55 -70 41.5 -110t-60.5 -48t-108.5 14.5 t-102.5 77.5q-53 72 -67.5 183.5z" />
<glyph unicode=")" horiz-adv-x="1034" d="M-462 -208q-13 28 1.5 57t63.5 47q293 117 503.5 245.5t351 259.5t217.5 257t104.5 237t11 201t-61.5 147q-55 70 -42 110t60.5 48t109 -14.5t101.5 -77.5q53 -74 67.5 -184.5t-17 -245t-111.5 -284t-214 -300t-325.5 -294.5t-445.5 -267q-63 -31 -124.5 -36t-113 6 t-87.5 35.5t-49 52.5z" />
<glyph unicode="*" horiz-adv-x="937" d="M296 833.5q9 30.5 52 49.5q25 10 53.5 22.5t61.5 26.5q-12 8 -23.5 12t-19.5 8q-29 8 -32 37t11.5 59.5t43 56t65.5 25.5q23 0 51.5 -15t58.5 -40q18 41 48 76q31 37 67.5 39t63 -14.5t30.5 -44t-30 -52.5q-18 -12 -35 -28q39 14 72.5 21t62.5 11q49 4 71.5 -25.5 t21.5 -65.5t-25.5 -64.5t-67.5 -22.5q-35 4 -63.5 6t-57.5 2l68 -77q20 -23 19 -46.5t-14 -42t-35.5 -28.5t-43.5 -2q-18 6 -56 32.5t-83 61.5q-8 -23 -13.5 -40t-9.5 -34q-14 -41 -48 -51t-64.5 0t-44 35.5t13.5 56.5q14 16 26.5 33.5t22.5 36.5q-31 -16 -60.5 -39 t-62.5 -49q-29 -25 -55.5 -15.5t-37.5 34t-2 55z" />
<glyph unicode="+" horiz-adv-x="1017" d="M132 589q11 32 45 58.5t85 26.5q102 0 199 6q35 51 61.5 94t44.5 72q20 35 58.5 45t69 -2t43 -45t-16.5 -82l-43 -68l129 13q55 8 75.5 -18.5t8.5 -63.5t-55 -72t-115 -47q-39 -6 -83 -10t-91 -9q-41 -59 -78 -109t-59 -77q-31 -37 -72 -45t-69.5 4t-38 43t21.5 72 q16 23 36.5 50.5t43.5 59.5q-35 2 -70 4.5t-67 6.5q-47 4 -60.5 32.5t-2.5 60.5z" />
<glyph unicode="," horiz-adv-x="794" d="M4 -92q-6 31 10 63q12 29 35 71t52.5 86t65.5 87t75 74q41 31 91 45t96 12t81 -21.5t45 -54.5q10 -37 -7.5 -68.5t-52 -60t-81.5 -55.5t-95.5 -53.5t-91.5 -54t-69 -60.5q-41 -49 -74 -59.5t-53.5 4t-26.5 45.5z" />
<glyph unicode="-" horiz-adv-x="1034" d="M254 384q12 32 46 58.5t85 26.5q82 2 137.5 5t98.5 7t77.5 10.5t75.5 12.5q55 8 75.5 -18.5t8.5 -63.5t-55 -72t-113 -47q-57 -10 -100 -15t-83 -6t-85 1t-105 8q-47 4 -61 32.5t-2 60.5z" />
<glyph unicode="." horiz-adv-x="831" d="M131 74q-10 45 13.5 88t67.5 76.5t98.5 55t103.5 25t87 -16t46 -64.5q8 -41 -17.5 -79t-68.5 -70t-96.5 -52.5t-102.5 -25.5t-86 9.5t-45 53.5z" />
<glyph unicode="/" horiz-adv-x="1787" d="M4 -230q-4 36 25 83q47 78 149.5 198.5t237.5 261t291.5 289t314.5 279.5t303 234.5t258 154.5q61 27 108.5 18.5t72 -36t19.5 -65.5t-50 -67q-92 -59 -213 -148t-259.5 -201t-286 -237.5t-289.5 -257t-273 -261.5t-236 -248q-41 -45 -80 -55.5t-63.5 6t-28.5 52.5z" />
<glyph unicode="0" d="M35 813q70 37 137.5 67.5t144.5 53.5q4 0 8.5 20.5t8.5 45t8 48t8 31.5q23 35 68 53.5t78 34.5q88 35 179 61.5t183 51.5q94 23 188.5 39t190.5 24q33 4 80 8.5t95 3.5t92 -12.5t71 -37.5q2 -4 -2 -29t-6 -33l-6 -98q0 -4 4 -4q78 -23 152.5 -58.5t123.5 -103.5v-2 q-16 4 -36.5 -3t-41 -20.5t-38 -28t-27.5 -26.5q31 -16 50 -47t27.5 -66.5t6.5 -72.5t-13 -68q-16 43 -49.5 66.5t-74.5 35t-85 14.5t-83 5q-45 4 -94.5 2t-92.5 14q-16 6 -22 25.5t-7 43t2 46.5t5 37q-184 -14 -363.5 -56t-351.5 -102q-8 -2 -8 -6q2 -10 8 -33.5t10 -50.5 t6 -49.5t-6 -28.5q-23 -18 -58.5 -21t-64.5 -7q-39 -6 -78.5 -12.5t-78.5 -12.5q-35 -8 -67 -17.5t-62 -21.5q-14 -8 -28.5 -13t-29.5 -16q-8 -8 -18 -20t-17 -16q10 35 24.5 67.5t27.5 63.5q2 6 13 25.5t21.5 41t18.5 39t6 21.5q-25 35 -58.5 67.5t-78.5 36.5zM86 -133h47 q4 -41 7 -83t12 -83q4 41 10 83t14 83h37l25 -166q4 41 9 83t9 83h43l-43 -223h-43q-6 37 -11 73.5t-9 73.5q-4 -37 -11.5 -73.5t-13.5 -73.5h-43zM90 819q68 -37 109 -108q2 -2 -4.5 -15.5t-14.5 -29t-15 -28.5t-9 -20q-25 -45 -41 -94q51 27 104 39t108.5 20.5t110 15.5 t107.5 24q-18 18 -47 25t-62 8t-65.5 -2t-55.5 -5v131t4 131q-59 -16 -116.5 -39.5t-112.5 -52.5zM305 -133h45q4 -41 8 -83t11 -83q4 41 10 83t14 83h39l23 -166q4 41 9 83t9 83h43l-43 -223h-41q-8 37 -13 73.5t-9 73.5q-4 -37 -10.5 -73.5t-12.5 -73.5h-45zM342 709 q8 0 22.5 6t29 15t27.5 18.5t23 13.5q37 16 75 29.5t77 27.5q78 23 155.5 43.5t159.5 38.5q78 16 155 31.5t157 21.5q72 8 154.5 11.5t152.5 -29.5q6 55 6 112.5t4 110.5q0 29 2 57.5t6 57.5q2 14 -6 22.5t-20.5 13.5t-26.5 7t-27 4q-119 18 -245.5 1t-245.5 -42 q-129 -27 -255 -60.5t-249 -86.5q-23 -12 -46.5 -24.5t-43.5 -29.5q-20 -16 -24.5 -49t-8.5 -55q-8 -66 -8 -132.5v-133.5zM367 825q0 23 15 38.5t36 19.5q6 2 15 -2t5 -15q-12 -8 -22 -8q-12 -4 -16.5 -16.5t1.5 -22.5q4 -4 8.5 -5t8.5 -3q20 -2 33.5 11.5t22.5 34t13.5 41 t8.5 34.5q-27 -27 -62 -35q-27 -4 -43 12q-16 8 -16 37q0 27 12 51q27 61 86 99q12 6 25.5 12t27.5 10q10 4 21.5 12.5t21.5 10.5q12 -1 6 -13q12 0 21 -2q16 -2 27.5 -15t13.5 -32q6 -43 -23.5 -83t-66.5 -62q-18 -12 -27.5 -31.5t-18.5 -39t-20.5 -38t-34.5 -28.5 q-23 -16 -53 -11q-12 4 -20 14.5t-6 24.5zM405.5 937q2.5 -15 22.5 -15q31 0 49.5 19.5t30.5 47t18.5 58.5t10.5 51q-29 -6 -52.5 -23.5t-44.5 -38.5q-6 -6 -15 -25.5t-15.5 -39t-4 -34.5zM522 -133h45q4 -41 9.5 -83t9.5 -83q4 41 10 83t14 83h39l25 -166q2 41 7 83t11 83 h41l-41 -223h-43q-8 37 -12 73.5t-10 73.5q-4 -37 -10.5 -73.5t-12.5 -73.5h-43zM530 950q14 4 29.5 19.5t26 35t14.5 40t0 34.5q-6 23 -33 23q-14 -37 -20.5 -75t-16.5 -77zM582 138q2 34 2 61q0 20 -1 38.5t1 38.5q0 49 26.5 67.5t73.5 18.5q37 0 54.5 -20t23.5 -50 t4 -63.5t-2 -60.5v-80q0 -47 -26.5 -66.5t-71.5 -17.5q-39 0 -56.5 20.5t-23.5 50t-4 63.5zM628 952.5q-5 20.5 6 46t31.5 46t43.5 22.5q12 0 16 -10q8 -12 2 -29q-6 -23 -27.5 -40t-44.5 -21q2 -12 10.5 -13.5t17.5 3t17.5 10.5t12.5 10q25 20 36 46t21 52q2 2 -1 9.5 t-8 15.5t-8 17t-1 16q10 27 34 22q12 0 17 -12q4 -10 2 -22.5t-2 -24.5q20 2 28.5 -1t-4.5 -28q-8 -16 -17 -33.5t-11 -36.5q0 -10 6 -10q20 0 34.5 20.5t26 46t22.5 51t25 34.5q8 2 17 -2q2 -4 2 -13q-4 -12 -10.5 -21t-1.5 -24q6 -12 13 -25.5t5 -27.5h2q20 25 32.5 60.5 t45.5 52.5q37 14 49 -21q10 -14 6 -25.5t-2 -27.5q8 2 14 10q16 12 18.5 35t8.5 41q4 4 11 5t12 -1q10 -2 8 -12v-2q10 10 24 16q10 6 17.5 2t11.5 -14q4 -12 1 -22.5t-8 -21.5t-10 -22.5t-3 -23.5q14 12 24 26.5t18.5 29.5t17.5 28.5t26 23.5q20 10 51 0q4 6 17 8.5 t9 -14.5q-4 -18 -14 -38.5t-10 -41.5q0 -14 8 -2q20 20 30.5 48t19.5 55.5t23.5 53t43.5 42.5q14 8 24 -8q12 -23 4 -48.5t-24 -41.5q-14 -18 -43 -44t-25 -53q4 -16 23 -12q14 6 21 19.5t16 25.5q4 2 12 2t8 -10l-4 -12q-16 -39 -53 -54q-25 -14 -43 15q-4 4 -4 10 q-10 -8 -16.5 -15.5t-18.5 -11.5q-10 -4 -16.5 0t-12.5 8q-4 -4 -12 -8t-16 -6q-31 -6 -43 21v2q-8 -10 -17.5 -17.5t-23.5 -11.5q-14 -8 -25 12q-6 12 -3 23.5t8 22t9 21.5t2 23q-18 -8 -25 -19t-11.5 -25.5t-6.5 -29t-8 -28.5q-6 -16 -24 -8q-8 2 -9 10q0 4 1 9t1 7 q-14 -4 -19 -4t-15 -10t-24.5 -18.5t-31.5 -8.5q-10 2 -16 8.5t-10 14.5q-16 -16 -40 -32.5t-50 -12.5q-16 2 -25 18q-25 -29 -51 -36q-29 -12 -33 20q-4 27 8.5 44t22.5 38q2 4 -3 5t-7 -3q-8 -20 -18.5 -44t-26 -45.5t-36 -34.5t-46.5 -11q-31 2 -36 22.5zM638 163 q-1 -38 1 -75q0 -16 9 -26.5t21.5 -14.5t24 1t15.5 24q2 12 2 27.5v29.5v147q0 16 -10.5 27.5t-22.5 16t-23.5 -2t-15.5 -22.5q-2 -14 -1 -29.5t1 -27.5q0 -37 -1 -75zM653 416q12 14 15.5 36.5t2.5 48t-4 49t-3 42.5v125q0 16 1 30.5t-12 28.5h76q-14 -12 -12 -32.5 t2 -36.5v-142q0 -16 -2 -49t10 -47q14 -23 37.5 -8.5t28.5 33.5q8 27 2.5 54t-9.5 54q-4 14 -10 38t-8 48.5t2 46t21 33.5q10 10 31.5 10t29.5 -16q6 -16 -2 -21.5t-18.5 -4.5t-17.5 8.5t1 15.5q-16 -8 -17 -28.5t6 -44t17 -46.5t15 -35q12 -37 17 -87t-22 -85 q-10 -14 -33.5 -19t-50 -5t-53 3t-41.5 3zM655 987q12 -2 28.5 15.5t18.5 27.5q4 8 -2 12.5t-12 -2.5q-10 -10 -18.5 -24.5t-14.5 -28.5zM715 -328q0 14 9 22.5t21.5 8.5t21.5 -8t9 -23q0 -16 -9 -23t-21.5 -7t-21.5 7t-9 23zM776 1124q-2 -8 4 -20h4q0 8 1 13t-1 13 q-6 0 -8 -6zM780 4q10 14 13.5 34.5t2.5 44t-4.5 46.5t-3.5 39v172q0 10 -8 22h58q29 -12 51 -50t35 -66q0 25 2 59.5t-13 56.5h74q-12 -10 -11 -24t1 -29v-246q0 -14 -1 -31.5t11 -27.5h-207zM797 -356l59 223h64l59 -223h-51l-15 51h-53l-10 -51h-53zM844 47 q0 -14 11 -23.5t25.5 -11.5t28 3.5t15.5 19.5q-4 63 -21.5 127.5t-58.5 116.5v-232zM865 506.5q-3 19.5 7 32.5q10 12 33 13t27 -22q0 -10 -7 -15t-15.5 -5t-14.5 4t-6 14q-12 -4 -12 -14t7 -20.5t17 -19.5t17 -11q14 -4 34.5 -4t30.5 10q20 20 16 40.5t-19 38t-35.5 32 t-31.5 24.5q-18 16 -30.5 42t-12.5 52.5t13.5 48t44.5 27.5q27 6 54.5 4t51.5 -2l-6 -10q0 -14 7 -29.5t13.5 -31t5.5 -29.5t-16 -27q-14 -10 -33.5 -9t-21.5 22q0 12 7 17t15.5 5t14.5 -5t4 -13q14 2 14 12t-8 21.5t-18.5 20.5t-18.5 11q-14 4 -32.5 1t-24.5 -19 q-12 -25 -4 -43.5t24.5 -32.5t37 -27.5t32.5 -27.5q14 -20 22.5 -47t4.5 -52.5t-20.5 -44t-47.5 -22.5q-27 -2 -53.5 -1t-54.5 1q8 4 5 19.5t-8.5 33.5t-8.5 37.5zM866 -266h41q-4 23 -9 46t-11 46zM874 1014q4 -12 16.5 -10t14.5 14q2 18 -10 43q-6 -8 -14.5 -22.5 t-6.5 -24.5zM991 1059l4 -15q10 -14 25 -6q16 4 23.5 21.5t3.5 34.5q-2 10 -9.5 16t-21.5 -4q-20 -14 -25 -47zM997 4q12 14 15.5 36.5t2.5 47.5t-4 48.5t-3 39.5v127q0 16 1 29.5t-12 29.5h76q-10 -10 -13 -30.5t-2 -42t3 -43t2 -35.5v-166h104q23 0 55.5 -3t55.5 13 q-4 -8 -7 -29.5t-14 -21.5h-260zM1006 -135q29 4 64.5 6t62.5 -14q31 -23 22.5 -58t-37.5 -49q14 -6 21.5 -19.5t10.5 -28.5t5 -30.5t8 -27.5h-51q-6 12 -8 27.5t-6 28.5t-12.5 22.5t-26.5 7.5v-86h-53v221zM1057 -196.5q2 -24.5 2 -34.5h12q18 0 26.5 10t6.5 22.5 t-11.5 21.5t-27.5 7q-10 -2 -8 -26.5zM1065 416q10 12 11 25.5t1 27.5v248q0 14 -1 30.5t-11 28.5h127q25 -25 25.5 -59.5t-9.5 -67.5q-4 -8 -15 -29.5t-20.5 -45t-11.5 -45t10 -27.5q-6 12 4.5 13t21.5 -4t14 -14.5t-17 -17.5q-25 -10 -35 9.5t-8 35.5q0 16 6 32.5t8 31 t-4 22.5t-28 6v-155q16 0 41.5 -3t44.5 11q-6 -14 -8.5 -26.5t-6.5 -26.5h-139zM1098 362h78q-12 -29 2 -65.5t26 -60.5q12 29 22.5 62.5t0.5 63.5h80q-23 -12 -27 -38.5t-10 -47.5q-6 -20 -23.5 -47.5t-17.5 -48.5q0 -23 -3 -56.5t13 -51.5h-76q18 18 14.5 53.5t-3.5 58.5 q-12 23 -21.5 46.5t-17.5 45.5q-10 23 -14.5 46.5t-22.5 39.5zM1133 662q20 0 45.5 2t27.5 32q0 16 -7 23.5t-18.5 10.5t-24.5 3h-23v-71zM1192 -133h53v-223h-53v223zM1245 1092q-4 -10 1 -27.5t22 -3.5q12 12 21 33t11 39q-2 8 -4 13t-12 1q-16 -8 -25.5 -23.5 t-13.5 -31.5zM1274 -328q0 14 9 22.5t21.5 8.5t21.5 -8t9 -23q0 -16 -9 -23t-21.5 -7t-21.5 7t-9 23zM1294 813q-8 -6 4 -8q27 -10 57.5 -13.5t62.5 -3.5h62.5t59.5 -2t57.5 -5t57.5 -13q29 -8 51.5 -23.5t48.5 -27.5q0 61 -21.5 106t-80.5 68q35 31 69.5 58.5t75.5 43.5 q-49 47 -110.5 77t-126.5 46q-2 -57 -3.5 -112.5t-5.5 -112.5l-2 2v-6q-27 -2 -64.5 -4t-74.5 -9.5t-68.5 -21.5t-48.5 -39zM1364 -133h57l68 -152q-4 39 -4 77v75h47v-223h-51q-20 39 -37 78.5t-35 76.5q2 -39 2 -77.5v-77.5h-47v223zM1393 1157q16 20 31.5 40t19.5 46h-2 q-37 -37 -49 -86zM1562.5 -268q-8.5 37 14.5 80q12 29 40 43t62 14h10.5t17.5 -2t16.5 -4t7.5 -4l-9 -41q-27 12 -48 8t-36.5 -18.5t-20.5 -37t3 -46.5q16 -47 61 -41q10 2 8.5 21.5t-1.5 27.5h-27v41h76v-121q-41 -16 -79 -9t-62.5 29.5t-33 59.5z" />
<glyph unicode="1" d="M35 813q70 37 137.5 67.5t144.5 53.5q4 0 8.5 20.5t8.5 45t8 48t8 31.5q23 35 68 53.5t78 34.5q88 35 179 61.5t183 51.5q94 23 188.5 39t190.5 24q33 4 80 8.5t95 3.5t92 -12.5t71 -37.5q2 -4 -2 -29t-6 -33l-6 -98q0 -4 4 -4q78 -23 152.5 -58.5t123.5 -103.5v-2 q-16 4 -36.5 -3t-41 -20.5t-38 -28t-27.5 -26.5q31 -16 50 -47t27.5 -66.5t6.5 -72.5t-13 -68q-16 43 -49.5 66.5t-74.5 35t-85 14.5t-83 5q-45 4 -94.5 2t-92.5 14q-16 6 -22 25.5t-7 43t2 46.5t5 37q-184 -14 -363.5 -56t-351.5 -102q-8 -2 -8 -6q2 -10 8 -33.5t10 -50.5 t6 -49.5t-6 -28.5q-23 -18 -58.5 -21t-64.5 -7q-39 -6 -78.5 -12.5t-78.5 -12.5q-35 -8 -67 -17.5t-62 -21.5q-14 -8 -28.5 -13t-29.5 -16q-8 -8 -18 -20t-17 -16q10 35 24.5 67.5t27.5 63.5q2 6 13 25.5t21.5 41t18.5 39t6 21.5q-25 35 -58.5 67.5t-78.5 36.5zM86 -133h47 q4 -41 7 -83t12 -83q4 41 10 83t14 83h37l25 -166q4 41 9 83t9 83h43l-43 -223h-43q-6 37 -11 73.5t-9 73.5q-4 -37 -11.5 -73.5t-13.5 -73.5h-43zM90 819q68 -37 109 -108q2 -2 -4.5 -15.5t-14.5 -29t-15 -28.5t-9 -20q-25 -45 -41 -94q51 27 104 39t108.5 20.5t110 15.5 t107.5 24q-18 18 -47 25t-62 8t-65.5 -2t-55.5 -5v131t4 131q-59 -16 -116.5 -39.5t-112.5 -52.5zM305 -133h45q4 -41 8 -83t11 -83q4 41 10 83t14 83h39l23 -166q4 41 9 83t9 83h43l-43 -223h-41q-8 37 -13 73.5t-9 73.5q-4 -37 -10.5 -73.5t-12.5 -73.5h-45zM342 709 q8 0 22.5 6t29 15t27.5 18.5t23 13.5q37 16 75 29.5t77 27.5q78 23 155.5 43.5t159.5 38.5q78 16 155 31.5t157 21.5q72 8 154.5 11.5t152.5 -29.5q6 55 6 112.5t4 110.5q0 29 2 57.5t6 57.5q2 14 -6 22.5t-20.5 13.5t-26.5 7t-27 4q-119 18 -245.5 1t-245.5 -42 q-129 -27 -255 -60.5t-249 -86.5q-23 -12 -46.5 -24.5t-43.5 -29.5q-20 -16 -24.5 -49t-8.5 -55q-8 -66 -8 -132.5v-133.5zM367 825q0 23 15 38.5t36 19.5q6 2 15 -2t5 -15q-12 -8 -22 -8q-12 -4 -16.5 -16.5t1.5 -22.5q4 -4 8.5 -5t8.5 -3q20 -2 33.5 11.5t22.5 34t13.5 41 t8.5 34.5q-27 -27 -62 -35q-27 -4 -43 12q-16 8 -16 37q0 27 12 51q27 61 86 99q12 6 25.5 12t27.5 10q10 4 21.5 12.5t21.5 10.5q12 -1 6 -13q12 0 21 -2q16 -2 27.5 -15t13.5 -32q6 -43 -23.5 -83t-66.5 -62q-18 -12 -27.5 -31.5t-18.5 -39t-20.5 -38t-34.5 -28.5 q-23 -16 -53 -11q-12 4 -20 14.5t-6 24.5zM405.5 937q2.5 -15 22.5 -15q31 0 49.5 19.5t30.5 47t18.5 58.5t10.5 51q-29 -6 -52.5 -23.5t-44.5 -38.5q-6 -6 -15 -25.5t-15.5 -39t-4 -34.5zM522 -133h45q4 -41 9.5 -83t9.5 -83q4 41 10 83t14 83h39l25 -166q2 41 7 83t11 83 h41l-41 -223h-43q-8 37 -12 73.5t-10 73.5q-4 -37 -10.5 -73.5t-12.5 -73.5h-43zM530 950q14 4 29.5 19.5t26 35t14.5 40t0 34.5q-6 23 -33 23q-14 -37 -20.5 -75t-16.5 -77zM582 138q2 34 2 61q0 20 -1 38.5t1 38.5q0 49 26.5 67.5t73.5 18.5q37 0 54.5 -20t23.5 -50 t4 -63.5t-2 -60.5v-80q0 -47 -26.5 -66.5t-71.5 -17.5q-39 0 -56.5 20.5t-23.5 50t-4 63.5zM628 952.5q-5 20.5 6 46t31.5 46t43.5 22.5q12 0 16 -10q8 -12 2 -29q-6 -23 -27.5 -40t-44.5 -21q2 -12 10.5 -13.5t17.5 3t17.5 10.5t12.5 10q25 20 36 46t21 52q2 2 -1 9.5 t-8 15.5t-8 17t-1 16q10 27 34 22q12 0 17 -12q4 -10 2 -22.5t-2 -24.5q20 2 28.5 -1t-4.5 -28q-8 -16 -17 -33.5t-11 -36.5q0 -10 6 -10q20 0 34.5 20.5t26 46t22.5 51t25 34.5q8 2 17 -2q2 -4 2 -13q-4 -12 -10.5 -21t-1.5 -24q6 -12 13 -25.5t5 -27.5h2q20 25 32.5 60.5 t45.5 52.5q37 14 49 -21q10 -14 6 -25.5t-2 -27.5q8 2 14 10q16 12 18.5 35t8.5 41q4 4 11 5t12 -1q10 -2 8 -12v-2q10 10 24 16q10 6 17.5 2t11.5 -14q4 -12 1 -22.5t-8 -21.5t-10 -22.5t-3 -23.5q14 12 24 26.5t18.5 29.5t17.5 28.5t26 23.5q20 10 51 0q4 6 17 8.5 t9 -14.5q-4 -18 -14 -38.5t-10 -41.5q0 -14 8 -2q20 20 30.5 48t19.5 55.5t23.5 53t43.5 42.5q14 8 24 -8q12 -23 4 -48.5t-24 -41.5q-14 -18 -43 -44t-25 -53q4 -16 23 -12q14 6 21 19.5t16 25.5q4 2 12 2t8 -10l-4 -12q-16 -39 -53 -54q-25 -14 -43 15q-4 4 -4 10 q-10 -8 -16.5 -15.5t-18.5 -11.5q-10 -4 -16.5 0t-12.5 8q-4 -4 -12 -8t-16 -6q-31 -6 -43 21v2q-8 -10 -17.5 -17.5t-23.5 -11.5q-14 -8 -25 12q-6 12 -3 23.5t8 22t9 21.5t2 23q-18 -8 -25 -19t-11.5 -25.5t-6.5 -29t-8 -28.5q-6 -16 -24 -8q-8 2 -9 10q0 4 1 9t1 7 q-14 -4 -19 -4t-15 -10t-24.5 -18.5t-31.5 -8.5q-10 2 -16 8.5t-10 14.5q-16 -16 -40 -32.5t-50 -12.5q-16 2 -25 18q-25 -29 -51 -36q-29 -12 -33 20q-4 27 8.5 44t22.5 38q2 4 -3 5t-7 -3q-8 -20 -18.5 -44t-26 -45.5t-36 -34.5t-46.5 -11q-31 2 -36 22.5zM638 163 q-1 -38 1 -75q0 -16 9 -26.5t21.5 -14.5t24 1t15.5 24q2 12 2 27.5v29.5v147q0 16 -10.5 27.5t-22.5 16t-23.5 -2t-15.5 -22.5q-2 -14 -1 -29.5t1 -27.5q0 -37 -1 -75zM653 416q12 14 15.5 36.5t2.5 48t-4 49t-3 42.5v125q0 16 1 30.5t-12 28.5h76q-14 -12 -12 -32.5 t2 -36.5v-142q0 -16 -2 -49t10 -47q14 -23 37.5 -8.5t28.5 33.5q8 27 2.5 54t-9.5 54q-4 14 -10 38t-8 48.5t2 46t21 33.5q10 10 31.5 10t29.5 -16q6 -16 -2 -21.5t-18.5 -4.5t-17.5 8.5t1 15.5q-16 -8 -17 -28.5t6 -44t17 -46.5t15 -35q12 -37 17 -87t-22 -85 q-10 -14 -33.5 -19t-50 -5t-53 3t-41.5 3zM655 987q12 -2 28.5 15.5t18.5 27.5q4 8 -2 12.5t-12 -2.5q-10 -10 -18.5 -24.5t-14.5 -28.5zM715 -328q0 14 9 22.5t21.5 8.5t21.5 -8t9 -23q0 -16 -9 -23t-21.5 -7t-21.5 7t-9 23zM776 1124q-2 -8 4 -20h4q0 8 1 13t-1 13 q-6 0 -8 -6zM780 4q10 14 13.5 34.5t2.5 44t-4.5 46.5t-3.5 39v172q0 10 -8 22h58q29 -12 51 -50t35 -66q0 25 2 59.5t-13 56.5h74q-12 -10 -11 -24t1 -29v-246q0 -14 -1 -31.5t11 -27.5h-207zM797 -356l59 223h64l59 -223h-51l-15 51h-53l-10 -51h-53zM844 47 q0 -14 11 -23.5t25.5 -11.5t28 3.5t15.5 19.5q-4 63 -21.5 127.5t-58.5 116.5v-232zM865 506.5q-3 19.5 7 32.5q10 12 33 13t27 -22q0 -10 -7 -15t-15.5 -5t-14.5 4t-6 14q-12 -4 -12 -14t7 -20.5t17 -19.5t17 -11q14 -4 34.5 -4t30.5 10q20 20 16 40.5t-19 38t-35.5 32 t-31.5 24.5q-18 16 -30.5 42t-12.5 52.5t13.5 48t44.5 27.5q27 6 54.5 4t51.5 -2l-6 -10q0 -14 7 -29.5t13.5 -31t5.5 -29.5t-16 -27q-14 -10 -33.5 -9t-21.5 22q0 12 7 17t15.5 5t14.5 -5t4 -13q14 2 14 12t-8 21.5t-18.5 20.5t-18.5 11q-14 4 -32.5 1t-24.5 -19 q-12 -25 -4 -43.5t24.5 -32.5t37 -27.5t32.5 -27.5q14 -20 22.5 -47t4.5 -52.5t-20.5 -44t-47.5 -22.5q-27 -2 -53.5 -1t-54.5 1q8 4 5 19.5t-8.5 33.5t-8.5 37.5zM866 -266h41q-4 23 -9 46t-11 46zM874 1014q4 -12 16.5 -10t14.5 14q2 18 -10 43q-6 -8 -14.5 -22.5 t-6.5 -24.5zM991 1059l4 -15q10 -14 25 -6q16 4 23.5 21.5t3.5 34.5q-2 10 -9.5 16t-21.5 -4q-20 -14 -25 -47zM997 4q12 14 15.5 36.5t2.5 47.5t-4 48.5t-3 39.5v127q0 16 1 29.5t-12 29.5h76q-10 -10 -13 -30.5t-2 -42t3 -43t2 -35.5v-166h104q23 0 55.5 -3t55.5 13 q-4 -8 -7 -29.5t-14 -21.5h-260zM1006 -135q29 4 64.5 6t62.5 -14q31 -23 22.5 -58t-37.5 -49q14 -6 21.5 -19.5t10.5 -28.5t5 -30.5t8 -27.5h-51q-6 12 -8 27.5t-6 28.5t-12.5 22.5t-26.5 7.5v-86h-53v221zM1057 -196.5q2 -24.5 2 -34.5h12q18 0 26.5 10t6.5 22.5 t-11.5 21.5t-27.5 7q-10 -2 -8 -26.5zM1065 416q10 12 11 25.5t1 27.5v248q0 14 -1 30.5t-11 28.5h127q25 -25 25.5 -59.5t-9.5 -67.5q-4 -8 -15 -29.5t-20.5 -45t-11.5 -45t10 -27.5q-6 12 4.5 13t21.5 -4t14 -14.5t-17 -17.5q-25 -10 -35 9.5t-8 35.5q0 16 6 32.5t8 31 t-4 22.5t-28 6v-155q16 0 41.5 -3t44.5 11q-6 -14 -8.5 -26.5t-6.5 -26.5h-139zM1098 362h78q-12 -29 2 -65.5t26 -60.5q12 29 22.5 62.5t0.5 63.5h80q-23 -12 -27 -38.5t-10 -47.5q-6 -20 -23.5 -47.5t-17.5 -48.5q0 -23 -3 -56.5t13 -51.5h-76q18 18 14.5 53.5t-3.5 58.5 q-12 23 -21.5 46.5t-17.5 45.5q-10 23 -14.5 46.5t-22.5 39.5zM1133 662q20 0 45.5 2t27.5 32q0 16 -7 23.5t-18.5 10.5t-24.5 3h-23v-71zM1192 -133h53v-223h-53v223zM1245 1092q-4 -10 1 -27.5t22 -3.5q12 12 21 33t11 39q-2 8 -4 13t-12 1q-16 -8 -25.5 -23.5 t-13.5 -31.5zM1274 -328q0 14 9 22.5t21.5 8.5t21.5 -8t9 -23q0 -16 -9 -23t-21.5 -7t-21.5 7t-9 23zM1294 813q-8 -6 4 -8q27 -10 57.5 -13.5t62.5 -3.5h62.5t59.5 -2t57.5 -5t57.5 -13q29 -8 51.5 -23.5t48.5 -27.5q0 61 -21.5 106t-80.5 68q35 31 69.5 58.5t75.5 43.5 q-49 47 -110.5 77t-126.5 46q-2 -57 -3.5 -112.5t-5.5 -112.5l-2 2v-6q-27 -2 -64.5 -4t-74.5 -9.5t-68.5 -21.5t-48.5 -39zM1364 -133h57l68 -152q-4 39 -4 77v75h47v-223h-51q-20 39 -37 78.5t-35 76.5q2 -39 2 -77.5v-77.5h-47v223zM1393 1157q16 20 31.5 40t19.5 46h-2 q-37 -37 -49 -86zM1562.5 -268q-8.5 37 14.5 80q12 29 40 43t62 14h10.5t17.5 -2t16.5 -4t7.5 -4l-9 -41q-27 12 -48 8t-36.5 -18.5t-20.5 -37t3 -46.5q16 -47 61 -41q10 2 8.5 21.5t-1.5 27.5h-27v41h76v-121q-41 -16 -79 -9t-62.5 29.5t-33 59.5z" />
<glyph unicode="2" d="M35 813q70 37 137.5 67.5t144.5 53.5q4 0 8.5 20.5t8.5 45t8 48t8 31.5q23 35 68 53.5t78 34.5q88 35 179 61.5t183 51.5q94 23 188.5 39t190.5 24q33 4 80 8.5t95 3.5t92 -12.5t71 -37.5q2 -4 -2 -29t-6 -33l-6 -98q0 -4 4 -4q78 -23 152.5 -58.5t123.5 -103.5v-2 q-16 4 -36.5 -3t-41 -20.5t-38 -28t-27.5 -26.5q31 -16 50 -47t27.5 -66.5t6.5 -72.5t-13 -68q-16 43 -49.5 66.5t-74.5 35t-85 14.5t-83 5q-45 4 -94.5 2t-92.5 14q-16 6 -22 25.5t-7 43t2 46.5t5 37q-184 -14 -363.5 -56t-351.5 -102q-8 -2 -8 -6q2 -10 8 -33.5t10 -50.5 t6 -49.5t-6 -28.5q-23 -18 -58.5 -21t-64.5 -7q-39 -6 -78.5 -12.5t-78.5 -12.5q-35 -8 -67 -17.5t-62 -21.5q-14 -8 -28.5 -13t-29.5 -16q-8 -8 -18 -20t-17 -16q10 35 24.5 67.5t27.5 63.5q2 6 13 25.5t21.5 41t18.5 39t6 21.5q-25 35 -58.5 67.5t-78.5 36.5zM86 -133h47 q4 -41 7 -83t12 -83q4 41 10 83t14 83h37l25 -166q4 41 9 83t9 83h43l-43 -223h-43q-6 37 -11 73.5t-9 73.5q-4 -37 -11.5 -73.5t-13.5 -73.5h-43zM90 819q68 -37 109 -108q2 -2 -4.5 -15.5t-14.5 -29t-15 -28.5t-9 -20q-25 -45 -41 -94q51 27 104 39t108.5 20.5t110 15.5 t107.5 24q-18 18 -47 25t-62 8t-65.5 -2t-55.5 -5v131t4 131q-59 -16 -116.5 -39.5t-112.5 -52.5zM305 -133h45q4 -41 8 -83t11 -83q4 41 10 83t14 83h39l23 -166q4 41 9 83t9 83h43l-43 -223h-41q-8 37 -13 73.5t-9 73.5q-4 -37 -10.5 -73.5t-12.5 -73.5h-45zM342 709 q8 0 22.5 6t29 15t27.5 18.5t23 13.5q37 16 75 29.5t77 27.5q78 23 155.5 43.5t159.5 38.5q78 16 155 31.5t157 21.5q72 8 154.5 11.5t152.5 -29.5q6 55 6 112.5t4 110.5q0 29 2 57.5t6 57.5q2 14 -6 22.5t-20.5 13.5t-26.5 7t-27 4q-119 18 -245.5 1t-245.5 -42 q-129 -27 -255 -60.5t-249 -86.5q-23 -12 -46.5 -24.5t-43.5 -29.5q-20 -16 -24.5 -49t-8.5 -55q-8 -66 -8 -132.5v-133.5zM367 825q0 23 15 38.5t36 19.5q6 2 15 -2t5 -15q-12 -8 -22 -8q-12 -4 -16.5 -16.5t1.5 -22.5q4 -4 8.5 -5t8.5 -3q20 -2 33.5 11.5t22.5 34t13.5 41 t8.5 34.5q-27 -27 -62 -35q-27 -4 -43 12q-16 8 -16 37q0 27 12 51q27 61 86 99q12 6 25.5 12t27.5 10q10 4 21.5 12.5t21.5 10.5q12 -1 6 -13q12 0 21 -2q16 -2 27.5 -15t13.5 -32q6 -43 -23.5 -83t-66.5 -62q-18 -12 -27.5 -31.5t-18.5 -39t-20.5 -38t-34.5 -28.5 q-23 -16 -53 -11q-12 4 -20 14.5t-6 24.5zM405.5 937q2.5 -15 22.5 -15q31 0 49.5 19.5t30.5 47t18.5 58.5t10.5 51q-29 -6 -52.5 -23.5t-44.5 -38.5q-6 -6 -15 -25.5t-15.5 -39t-4 -34.5zM522 -133h45q4 -41 9.5 -83t9.5 -83q4 41 10 83t14 83h39l25 -166q2 41 7 83t11 83 h41l-41 -223h-43q-8 37 -12 73.5t-10 73.5q-4 -37 -10.5 -73.5t-12.5 -73.5h-43zM530 950q14 4 29.5 19.5t26 35t14.5 40t0 34.5q-6 23 -33 23q-14 -37 -20.5 -75t-16.5 -77zM582 138q2 34 2 61q0 20 -1 38.5t1 38.5q0 49 26.5 67.5t73.5 18.5q37 0 54.5 -20t23.5 -50 t4 -63.5t-2 -60.5v-80q0 -47 -26.5 -66.5t-71.5 -17.5q-39 0 -56.5 20.5t-23.5 50t-4 63.5zM628 952.5q-5 20.5 6 46t31.5 46t43.5 22.5q12 0 16 -10q8 -12 2 -29q-6 -23 -27.5 -40t-44.5 -21q2 -12 10.5 -13.5t17.5 3t17.5 10.5t12.5 10q25 20 36 46t21 52q2 2 -1 9.5 t-8 15.5t-8 17t-1 16q10 27 34 22q12 0 17 -12q4 -10 2 -22.5t-2 -24.5q20 2 28.5 -1t-4.5 -28q-8 -16 -17 -33.5t-11 -36.5q0 -10 6 -10q20 0 34.5 20.5t26 46t22.5 51t25 34.5q8 2 17 -2q2 -4 2 -13q-4 -12 -10.5 -21t-1.5 -24q6 -12 13 -25.5t5 -27.5h2q20 25 32.5 60.5 t45.5 52.5q37 14 49 -21q10 -14 6 -25.5t-2 -27.5q8 2 14 10q16 12 18.5 35t8.5 41q4 4 11 5t12 -1q10 -2 8 -12v-2q10 10 24 16q10 6 17.5 2t11.5 -14q4 -12 1 -22.5t-8 -21.5t-10 -22.5t-3 -23.5q14 12 24 26.5t18.5 29.5t17.5 28.5t26 23.5q20 10 51 0q4 6 17 8.5 t9 -14.5q-4 -18 -14 -38.5t-10 -41.5q0 -14 8 -2q20 20 30.5 48t19.5 55.5t23.5 53t43.5 42.5q14 8 24 -8q12 -23 4 -48.5t-24 -41.5q-14 -18 -43 -44t-25 -53q4 -16 23 -12q14 6 21 19.5t16 25.5q4 2 12 2t8 -10l-4 -12q-16 -39 -53 -54q-25 -14 -43 15q-4 4 -4 10 q-10 -8 -16.5 -15.5t-18.5 -11.5q-10 -4 -16.5 0t-12.5 8q-4 -4 -12 -8t-16 -6q-31 -6 -43 21v2q-8 -10 -17.5 -17.5t-23.5 -11.5q-14 -8 -25 12q-6 12 -3 23.5t8 22t9 21.5t2 23q-18 -8 -25 -19t-11.5 -25.5t-6.5 -29t-8 -28.5q-6 -16 -24 -8q-8 2 -9 10q0 4 1 9t1 7 q-14 -4 -19 -4t-15 -10t-24.5 -18.5t-31.5 -8.5q-10 2 -16 8.5t-10 14.5q-16 -16 -40 -32.5t-50 -12.5q-16 2 -25 18q-25 -29 -51 -36q-29 -12 -33 20q-4 27 8.5 44t22.5 38q2 4 -3 5t-7 -3q-8 -20 -18.5 -44t-26 -45.5t-36 -34.5t-46.5 -11q-31 2 -36 22.5zM638 163 q-1 -38 1 -75q0 -16 9 -26.5t21.5 -14.5t24 1t15.5 24q2 12 2 27.5v29.5v147q0 16 -10.5 27.5t-22.5 16t-23.5 -2t-15.5 -22.5q-2 -14 -1 -29.5t1 -27.5q0 -37 -1 -75zM653 416q12 14 15.5 36.5t2.5 48t-4 49t-3 42.5v125q0 16 1 30.5t-12 28.5h76q-14 -12 -12 -32.5 t2 -36.5v-142q0 -16 -2 -49t10 -47q14 -23 37.5 -8.5t28.5 33.5q8 27 2.5 54t-9.5 54q-4 14 -10 38t-8 48.5t2 46t21 33.5q10 10 31.5 10t29.5 -16q6 -16 -2 -21.5t-18.5 -4.5t-17.5 8.5t1 15.5q-16 -8 -17 -28.5t6 -44t17 -46.5t15 -35q12 -37 17 -87t-22 -85 q-10 -14 -33.5 -19t-50 -5t-53 3t-41.5 3zM655 987q12 -2 28.5 15.5t18.5 27.5q4 8 -2 12.5t-12 -2.5q-10 -10 -18.5 -24.5t-14.5 -28.5zM715 -328q0 14 9 22.5t21.5 8.5t21.5 -8t9 -23q0 -16 -9 -23t-21.5 -7t-21.5 7t-9 23zM776 1124q-2 -8 4 -20h4q0 8 1 13t-1 13 q-6 0 -8 -6zM780 4q10 14 13.5 34.5t2.5 44t-4.5 46.5t-3.5 39v172q0 10 -8 22h58q29 -12 51 -50t35 -66q0 25 2 59.5t-13 56.5h74q-12 -10 -11 -24t1 -29v-246q0 -14 -1 -31.5t11 -27.5h-207zM797 -356l59 223h64l59 -223h-51l-15 51h-53l-10 -51h-53zM844 47 q0 -14 11 -23.5t25.5 -11.5t28 3.5t15.5 19.5q-4 63 -21.5 127.5t-58.5 116.5v-232zM865 506.5q-3 19.5 7 32.5q10 12 33 13t27 -22q0 -10 -7 -15t-15.5 -5t-14.5 4t-6 14q-12 -4 -12 -14t7 -20.5t17 -19.5t17 -11q14 -4 34.5 -4t30.5 10q20 20 16 40.5t-19 38t-35.5 32 t-31.5 24.5q-18 16 -30.5 42t-12.5 52.5t13.5 48t44.5 27.5q27 6 54.5 4t51.5 -2l-6 -10q0 -14 7 -29.5t13.5 -31t5.5 -29.5t-16 -27q-14 -10 -33.5 -9t-21.5 22q0 12 7 17t15.5 5t14.5 -5t4 -13q14 2 14 12t-8 21.5t-18.5 20.5t-18.5 11q-14 4 -32.5 1t-24.5 -19 q-12 -25 -4 -43.5t24.5 -32.5t37 -27.5t32.5 -27.5q14 -20 22.5 -47t4.5 -52.5t-20.5 -44t-47.5 -22.5q-27 -2 -53.5 -1t-54.5 1q8 4 5 19.5t-8.5 33.5t-8.5 37.5zM866 -266h41q-4 23 -9 46t-11 46zM874 1014q4 -12 16.5 -10t14.5 14q2 18 -10 43q-6 -8 -14.5 -22.5 t-6.5 -24.5zM991 1059l4 -15q10 -14 25 -6q16 4 23.5 21.5t3.5 34.5q-2 10 -9.5 16t-21.5 -4q-20 -14 -25 -47zM997 4q12 14 15.5 36.5t2.5 47.5t-4 48.5t-3 39.5v127q0 16 1 29.5t-12 29.5h76q-10 -10 -13 -30.5t-2 -42t3 -43t2 -35.5v-166h104q23 0 55.5 -3t55.5 13 q-4 -8 -7 -29.5t-14 -21.5h-260zM1006 -135q29 4 64.5 6t62.5 -14q31 -23 22.5 -58t-37.5 -49q14 -6 21.5 -19.5t10.5 -28.5t5 -30.5t8 -27.5h-51q-6 12 -8 27.5t-6 28.5t-12.5 22.5t-26.5 7.5v-86h-53v221zM1057 -196.5q2 -24.5 2 -34.5h12q18 0 26.5 10t6.5 22.5 t-11.5 21.5t-27.5 7q-10 -2 -8 -26.5zM1065 416q10 12 11 25.5t1 27.5v248q0 14 -1 30.5t-11 28.5h127q25 -25 25.5 -59.5t-9.5 -67.5q-4 -8 -15 -29.5t-20.5 -45t-11.5 -45t10 -27.5q-6 12 4.5 13t21.5 -4t14 -14.5t-17 -17.5q-25 -10 -35 9.5t-8 35.5q0 16 6 32.5t8 31 t-4 22.5t-28 6v-155q16 0 41.5 -3t44.5 11q-6 -14 -8.5 -26.5t-6.5 -26.5h-139zM1098 362h78q-12 -29 2 -65.5t26 -60.5q12 29 22.5 62.5t0.5 63.5h80q-23 -12 -27 -38.5t-10 -47.5q-6 -20 -23.5 -47.5t-17.5 -48.5q0 -23 -3 -56.5t13 -51.5h-76q18 18 14.5 53.5t-3.5 58.5 q-12 23 -21.5 46.5t-17.5 45.5q-10 23 -14.5 46.5t-22.5 39.5zM1133 662q20 0 45.5 2t27.5 32q0 16 -7 23.5t-18.5 10.5t-24.5 3h-23v-71zM1192 -133h53v-223h-53v223zM1245 1092q-4 -10 1 -27.5t22 -3.5q12 12 21 33t11 39q-2 8 -4 13t-12 1q-16 -8 -25.5 -23.5 t-13.5 -31.5zM1274 -328q0 14 9 22.5t21.5 8.5t21.5 -8t9 -23q0 -16 -9 -23t-21.5 -7t-21.5 7t-9 23zM1294 813q-8 -6 4 -8q27 -10 57.5 -13.5t62.5 -3.5h62.5t59.5 -2t57.5 -5t57.5 -13q29 -8 51.5 -23.5t48.5 -27.5q0 61 -21.5 106t-80.5 68q35 31 69.5 58.5t75.5 43.5 q-49 47 -110.5 77t-126.5 46q-2 -57 -3.5 -112.5t-5.5 -112.5l-2 2v-6q-27 -2 -64.5 -4t-74.5 -9.5t-68.5 -21.5t-48.5 -39zM1364 -133h57l68 -152q-4 39 -4 77v75h47v-223h-51q-20 39 -37 78.5t-35 76.5q2 -39 2 -77.5v-77.5h-47v223zM1393 1157q16 20 31.5 40t19.5 46h-2 q-37 -37 -49 -86zM1562.5 -268q-8.5 37 14.5 80q12 29 40 43t62 14h10.5t17.5 -2t16.5 -4t7.5 -4l-9 -41q-27 12 -48 8t-36.5 -18.5t-20.5 -37t3 -46.5q16 -47 61 -41q10 2 8.5 21.5t-1.5 27.5h-27v41h76v-121q-41 -16 -79 -9t-62.5 29.5t-33 59.5z" />
<glyph unicode="3" d="M35 813q70 37 137.5 67.5t144.5 53.5q4 0 8.5 20.5t8.5 45t8 48t8 31.5q23 35 68 53.5t78 34.5q88 35 179 61.5t183 51.5q94 23 188.5 39t190.5 24q33 4 80 8.5t95 3.5t92 -12.5t71 -37.5q2 -4 -2 -29t-6 -33l-6 -98q0 -4 4 -4q78 -23 152.5 -58.5t123.5 -103.5v-2 q-16 4 -36.5 -3t-41 -20.5t-38 -28t-27.5 -26.5q31 -16 50 -47t27.5 -66.5t6.5 -72.5t-13 -68q-16 43 -49.5 66.5t-74.5 35t-85 14.5t-83 5q-45 4 -94.5 2t-92.5 14q-16 6 -22 25.5t-7 43t2 46.5t5 37q-184 -14 -363.5 -56t-351.5 -102q-8 -2 -8 -6q2 -10 8 -33.5t10 -50.5 t6 -49.5t-6 -28.5q-23 -18 -58.5 -21t-64.5 -7q-39 -6 -78.5 -12.5t-78.5 -12.5q-35 -8 -67 -17.5t-62 -21.5q-14 -8 -28.5 -13t-29.5 -16q-8 -8 -18 -20t-17 -16q10 35 24.5 67.5t27.5 63.5q2 6 13 25.5t21.5 41t18.5 39t6 21.5q-25 35 -58.5 67.5t-78.5 36.5zM86 -133h47 q4 -41 7 -83t12 -83q4 41 10 83t14 83h37l25 -166q4 41 9 83t9 83h43l-43 -223h-43q-6 37 -11 73.5t-9 73.5q-4 -37 -11.5 -73.5t-13.5 -73.5h-43zM90 819q68 -37 109 -108q2 -2 -4.5 -15.5t-14.5 -29t-15 -28.5t-9 -20q-25 -45 -41 -94q51 27 104 39t108.5 20.5t110 15.5 t107.5 24q-18 18 -47 25t-62 8t-65.5 -2t-55.5 -5v131t4 131q-59 -16 -116.5 -39.5t-112.5 -52.5zM305 -133h45q4 -41 8 -83t11 -83q4 41 10 83t14 83h39l23 -166q4 41 9 83t9 83h43l-43 -223h-41q-8 37 -13 73.5t-9 73.5q-4 -37 -10.5 -73.5t-12.5 -73.5h-45zM342 709 q8 0 22.5 6t29 15t27.5 18.5t23 13.5q37 16 75 29.5t77 27.5q78 23 155.5 43.5t159.5 38.5q78 16 155 31.5t157 21.5q72 8 154.5 11.5t152.5 -29.5q6 55 6 112.5t4 110.5q0 29 2 57.5t6 57.5q2 14 -6 22.5t-20.5 13.5t-26.5 7t-27 4q-119 18 -245.5 1t-245.5 -42 q-129 -27 -255 -60.5t-249 -86.5q-23 -12 -46.5 -24.5t-43.5 -29.5q-20 -16 -24.5 -49t-8.5 -55q-8 -66 -8 -132.5v-133.5zM367 825q0 23 15 38.5t36 19.5q6 2 15 -2t5 -15q-12 -8 -22 -8q-12 -4 -16.5 -16.5t1.5 -22.5q4 -4 8.5 -5t8.5 -3q20 -2 33.5 11.5t22.5 34t13.5 41 t8.5 34.5q-27 -27 -62 -35q-27 -4 -43 12q-16 8 -16 37q0 27 12 51q27 61 86 99q12 6 25.5 12t27.5 10q10 4 21.5 12.5t21.5 10.5q12 -1 6 -13q12 0 21 -2q16 -2 27.5 -15t13.5 -32q6 -43 -23.5 -83t-66.5 -62q-18 -12 -27.5 -31.5t-18.5 -39t-20.5 -38t-34.5 -28.5 q-23 -16 -53 -11q-12 4 -20 14.5t-6 24.5zM405.5 937q2.5 -15 22.5 -15q31 0 49.5 19.5t30.5 47t18.5 58.5t10.5 51q-29 -6 -52.5 -23.5t-44.5 -38.5q-6 -6 -15 -25.5t-15.5 -39t-4 -34.5zM522 -133h45q4 -41 9.5 -83t9.5 -83q4 41 10 83t14 83h39l25 -166q2 41 7 83t11 83 h41l-41 -223h-43q-8 37 -12 73.5t-10 73.5q-4 -37 -10.5 -73.5t-12.5 -73.5h-43zM530 950q14 4 29.5 19.5t26 35t14.5 40t0 34.5q-6 23 -33 23q-14 -37 -20.5 -75t-16.5 -77zM582 138q2 34 2 61q0 20 -1 38.5t1 38.5q0 49 26.5 67.5t73.5 18.5q37 0 54.5 -20t23.5 -50 t4 -63.5t-2 -60.5v-80q0 -47 -26.5 -66.5t-71.5 -17.5q-39 0 -56.5 20.5t-23.5 50t-4 63.5zM628 952.5q-5 20.5 6 46t31.5 46t43.5 22.5q12 0 16 -10q8 -12 2 -29q-6 -23 -27.5 -40t-44.5 -21q2 -12 10.5 -13.5t17.5 3t17.5 10.5t12.5 10q25 20 36 46t21 52q2 2 -1 9.5 t-8 15.5t-8 17t-1 16q10 27 34 22q12 0 17 -12q4 -10 2 -22.5t-2 -24.5q20 2 28.5 -1t-4.5 -28q-8 -16 -17 -33.5t-11 -36.5q0 -10 6 -10q20 0 34.5 20.5t26 46t22.5 51t25 34.5q8 2 17 -2q2 -4 2 -13q-4 -12 -10.5 -21t-1.5 -24q6 -12 13 -25.5t5 -27.5h2q20 25 32.5 60.5 t45.5 52.5q37 14 49 -21q10 -14 6 -25.5t-2 -27.5q8 2 14 10q16 12 18.5 35t8.5 41q4 4 11 5t12 -1q10 -2 8 -12v-2q10 10 24 16q10 6 17.5 2t11.5 -14q4 -12 1 -22.5t-8 -21.5t-10 -22.5t-3 -23.5q14 12 24 26.5t18.5 29.5t17.5 28.5t26 23.5q20 10 51 0q4 6 17 8.5 t9 -14.5q-4 -18 -14 -38.5t-10 -41.5q0 -14 8 -2q20 20 30.5 48t19.5 55.5t23.5 53t43.5 42.5q14 8 24 -8q12 -23 4 -48.5t-24 -41.5q-14 -18 -43 -44t-25 -53q4 -16 23 -12q14 6 21 19.5t16 25.5q4 2 12 2t8 -10l-4 -12q-16 -39 -53 -54q-25 -14 -43 15q-4 4 -4 10 q-10 -8 -16.5 -15.5t-18.5 -11.5q-10 -4 -16.5 0t-12.5 8q-4 -4 -12 -8t-16 -6q-31 -6 -43 21v2q-8 -10 -17.5 -17.5t-23.5 -11.5q-14 -8 -25 12q-6 12 -3 23.5t8 22t9 21.5t2 23q-18 -8 -25 -19t-11.5 -25.5t-6.5 -29t-8 -28.5q-6 -16 -24 -8q-8 2 -9 10q0 4 1 9t1 7 q-14 -4 -19 -4t-15 -10t-24.5 -18.5t-31.5 -8.5q-10 2 -16 8.5t-10 14.5q-16 -16 -40 -32.5t-50 -12.5q-16 2 -25 18q-25 -29 -51 -36q-29 -12 -33 20q-4 27 8.5 44t22.5 38q2 4 -3 5t-7 -3q-8 -20 -18.5 -44t-26 -45.5t-36 -34.5t-46.5 -11q-31 2 -36 22.5zM638 163 q-1 -38 1 -75q0 -16 9 -26.5t21.5 -14.5t24 1t15.5 24q2 12 2 27.5v29.5v147q0 16 -10.5 27.5t-22.5 16t-23.5 -2t-15.5 -22.5q-2 -14 -1 -29.5t1 -27.5q0 -37 -1 -75zM653 416q12 14 15.5 36.5t2.5 48t-4 49t-3 42.5v125q0 16 1 30.5t-12 28.5h76q-14 -12 -12 -32.5 t2 -36.5v-142q0 -16 -2 -49t10 -47q14 -23 37.5 -8.5t28.5 33.5q8 27 2.5 54t-9.5 54q-4 14 -10 38t-8 48.5t2 46t21 33.5q10 10 31.5 10t29.5 -16q6 -16 -2 -21.5t-18.5 -4.5t-17.5 8.5t1 15.5q-16 -8 -17 -28.5t6 -44t17 -46.5t15 -35q12 -37 17 -87t-22 -85 q-10 -14 -33.5 -19t-50 -5t-53 3t-41.5 3zM655 987q12 -2 28.5 15.5t18.5 27.5q4 8 -2 12.5t-12 -2.5q-10 -10 -18.5 -24.5t-14.5 -28.5zM715 -328q0 14 9 22.5t21.5 8.5t21.5 -8t9 -23q0 -16 -9 -23t-21.5 -7t-21.5 7t-9 23zM776 1124q-2 -8 4 -20h4q0 8 1 13t-1 13 q-6 0 -8 -6zM780 4q10 14 13.5 34.5t2.5 44t-4.5 46.5t-3.5 39v172q0 10 -8 22h58q29 -12 51 -50t35 -66q0 25 2 59.5t-13 56.5h74q-12 -10 -11 -24t1 -29v-246q0 -14 -1 -31.5t11 -27.5h-207zM797 -356l59 223h64l59 -223h-51l-15 51h-53l-10 -51h-53zM844 47 q0 -14 11 -23.5t25.5 -11.5t28 3.5t15.5 19.5q-4 63 -21.5 127.5t-58.5 116.5v-232zM865 506.5q-3 19.5 7 32.5q10 12 33 13t27 -22q0 -10 -7 -15t-15.5 -5t-14.5 4t-6 14q-12 -4 -12 -14t7 -20.5t17 -19.5t17 -11q14 -4 34.5 -4t30.5 10q20 20 16 40.5t-19 38t-35.5 32 t-31.5 24.5q-18 16 -30.5 42t-12.5 52.5t13.5 48t44.5 27.5q27 6 54.5 4t51.5 -2l-6 -10q0 -14 7 -29.5t13.5 -31t5.5 -29.5t-16 -27q-14 -10 -33.5 -9t-21.5 22q0 12 7 17t15.5 5t14.5 -5t4 -13q14 2 14 12t-8 21.5t-18.5 20.5t-18.5 11q-14 4 -32.5 1t-24.5 -19 q-12 -25 -4 -43.5t24.5 -32.5t37 -27.5t32.5 -27.5q14 -20 22.5 -47t4.5 -52.5t-20.5 -44t-47.5 -22.5q-27 -2 -53.5 -1t-54.5 1q8 4 5 19.5t-8.5 33.5t-8.5 37.5zM866 -266h41q-4 23 -9 46t-11 46zM874 1014q4 -12 16.5 -10t14.5 14q2 18 -10 43q-6 -8 -14.5 -22.5 t-6.5 -24.5zM991 1059l4 -15q10 -14 25 -6q16 4 23.5 21.5t3.5 34.5q-2 10 -9.5 16t-21.5 -4q-20 -14 -25 -47zM997 4q12 14 15.5 36.5t2.5 47.5t-4 48.5t-3 39.5v127q0 16 1 29.5t-12 29.5h76q-10 -10 -13 -30.5t-2 -42t3 -43t2 -35.5v-166h104q23 0 55.5 -3t55.5 13 q-4 -8 -7 -29.5t-14 -21.5h-260zM1006 -135q29 4 64.5 6t62.5 -14q31 -23 22.5 -58t-37.5 -49q14 -6 21.5 -19.5t10.5 -28.5t5 -30.5t8 -27.5h-51q-6 12 -8 27.5t-6 28.5t-12.5 22.5t-26.5 7.5v-86h-53v221zM1057 -196.5q2 -24.5 2 -34.5h12q18 0 26.5 10t6.5 22.5 t-11.5 21.5t-27.5 7q-10 -2 -8 -26.5zM1065 416q10 12 11 25.5t1 27.5v248q0 14 -1 30.5t-11 28.5h127q25 -25 25.5 -59.5t-9.5 -67.5q-4 -8 -15 -29.5t-20.5 -45t-11.5 -45t10 -27.5q-6 12 4.5 13t21.5 -4t14 -14.5t-17 -17.5q-25 -10 -35 9.5t-8 35.5q0 16 6 32.5t8 31 t-4 22.5t-28 6v-155q16 0 41.5 -3t44.5 11q-6 -14 -8.5 -26.5t-6.5 -26.5h-139zM1098 362h78q-12 -29 2 -65.5t26 -60.5q12 29 22.5 62.5t0.5 63.5h80q-23 -12 -27 -38.5t-10 -47.5q-6 -20 -23.5 -47.5t-17.5 -48.5q0 -23 -3 -56.5t13 -51.5h-76q18 18 14.5 53.5t-3.5 58.5 q-12 23 -21.5 46.5t-17.5 45.5q-10 23 -14.5 46.5t-22.5 39.5zM1133 662q20 0 45.5 2t27.5 32q0 16 -7 23.5t-18.5 10.5t-24.5 3h-23v-71zM1192 -133h53v-223h-53v223zM1245 1092q-4 -10 1 -27.5t22 -3.5q12 12 21 33t11 39q-2 8 -4 13t-12 1q-16 -8 -25.5 -23.5 t-13.5 -31.5zM1274 -328q0 14 9 22.5t21.5 8.5t21.5 -8t9 -23q0 -16 -9 -23t-21.5 -7t-21.5 7t-9 23zM1294 813q-8 -6 4 -8q27 -10 57.5 -13.5t62.5 -3.5h62.5t59.5 -2t57.5 -5t57.5 -13q29 -8 51.5 -23.5t48.5 -27.5q0 61 -21.5 106t-80.5 68q35 31 69.5 58.5t75.5 43.5 q-49 47 -110.5 77t-126.5 46q-2 -57 -3.5 -112.5t-5.5 -112.5l-2 2v-6q-27 -2 -64.5 -4t-74.5 -9.5t-68.5 -21.5t-48.5 -39zM1364 -133h57l68 -152q-4 39 -4 77v75h47v-223h-51q-20 39 -37 78.5t-35 76.5q2 -39 2 -77.5v-77.5h-47v223zM1393 1157q16 20 31.5 40t19.5 46h-2 q-37 -37 -49 -86zM1562.5 -268q-8.5 37 14.5 80q12 29 40 43t62 14h10.5t17.5 -2t16.5 -4t7.5 -4l-9 -41q-27 12 -48 8t-36.5 -18.5t-20.5 -37t3 -46.5q16 -47 61 -41q10 2 8.5 21.5t-1.5 27.5h-27v41h76v-121q-41 -16 -79 -9t-62.5 29.5t-33 59.5z" />
<glyph unicode="4" d="M35 813q70 37 137.5 67.5t144.5 53.5q4 0 8.5 20.5t8.5 45t8 48t8 31.5q23 35 68 53.5t78 34.5q88 35 179 61.5t183 51.5q94 23 188.5 39t190.5 24q33 4 80 8.5t95 3.5t92 -12.5t71 -37.5q2 -4 -2 -29t-6 -33l-6 -98q0 -4 4 -4q78 -23 152.5 -58.5t123.5 -103.5v-2 q-16 4 -36.5 -3t-41 -20.5t-38 -28t-27.5 -26.5q31 -16 50 -47t27.5 -66.5t6.5 -72.5t-13 -68q-16 43 -49.5 66.5t-74.5 35t-85 14.5t-83 5q-45 4 -94.5 2t-92.5 14q-16 6 -22 25.5t-7 43t2 46.5t5 37q-184 -14 -363.5 -56t-351.5 -102q-8 -2 -8 -6q2 -10 8 -33.5t10 -50.5 t6 -49.5t-6 -28.5q-23 -18 -58.5 -21t-64.5 -7q-39 -6 -78.5 -12.5t-78.5 -12.5q-35 -8 -67 -17.5t-62 -21.5q-14 -8 -28.5 -13t-29.5 -16q-8 -8 -18 -20t-17 -16q10 35 24.5 67.5t27.5 63.5q2 6 13 25.5t21.5 41t18.5 39t6 21.5q-25 35 -58.5 67.5t-78.5 36.5zM86 -133h47 q4 -41 7 -83t12 -83q4 41 10 83t14 83h37l25 -166q4 41 9 83t9 83h43l-43 -223h-43q-6 37 -11 73.5t-9 73.5q-4 -37 -11.5 -73.5t-13.5 -73.5h-43zM90 819q68 -37 109 -108q2 -2 -4.5 -15.5t-14.5 -29t-15 -28.5t-9 -20q-25 -45 -41 -94q51 27 104 39t108.5 20.5t110 15.5 t107.5 24q-18 18 -47 25t-62 8t-65.5 -2t-55.5 -5v131t4 131q-59 -16 -116.5 -39.5t-112.5 -52.5zM305 -133h45q4 -41 8 -83t11 -83q4 41 10 83t14 83h39l23 -166q4 41 9 83t9 83h43l-43 -223h-41q-8 37 -13 73.5t-9 73.5q-4 -37 -10.5 -73.5t-12.5 -73.5h-45zM342 709 q8 0 22.5 6t29 15t27.5 18.5t23 13.5q37 16 75 29.5t77 27.5q78 23 155.5 43.5t159.5 38.5q78 16 155 31.5t157 21.5q72 8 154.5 11.5t152.5 -29.5q6 55 6 112.5t4 110.5q0 29 2 57.5t6 57.5q2 14 -6 22.5t-20.5 13.5t-26.5 7t-27 4q-119 18 -245.5 1t-245.5 -42 q-129 -27 -255 -60.5t-249 -86.5q-23 -12 -46.5 -24.5t-43.5 -29.5q-20 -16 -24.5 -49t-8.5 -55q-8 -66 -8 -132.5v-133.5zM367 825q0 23 15 38.5t36 19.5q6 2 15 -2t5 -15q-12 -8 -22 -8q-12 -4 -16.5 -16.5t1.5 -22.5q4 -4 8.5 -5t8.5 -3q20 -2 33.5 11.5t22.5 34t13.5 41 t8.5 34.5q-27 -27 -62 -35q-27 -4 -43 12q-16 8 -16 37q0 27 12 51q27 61 86 99q12 6 25.5 12t27.5 10q10 4 21.5 12.5t21.5 10.5q12 -1 6 -13q12 0 21 -2q16 -2 27.5 -15t13.5 -32q6 -43 -23.5 -83t-66.5 -62q-18 -12 -27.5 -31.5t-18.5 -39t-20.5 -38t-34.5 -28.5 q-23 -16 -53 -11q-12 4 -20 14.5t-6 24.5zM405.5 937q2.5 -15 22.5 -15q31 0 49.5 19.5t30.5 47t18.5 58.5t10.5 51q-29 -6 -52.5 -23.5t-44.5 -38.5q-6 -6 -15 -25.5t-15.5 -39t-4 -34.5zM522 -133h45q4 -41 9.5 -83t9.5 -83q4 41 10 83t14 83h39l25 -166q2 41 7 83t11 83 h41l-41 -223h-43q-8 37 -12 73.5t-10 73.5q-4 -37 -10.5 -73.5t-12.5 -73.5h-43zM530 950q14 4 29.5 19.5t26 35t14.5 40t0 34.5q-6 23 -33 23q-14 -37 -20.5 -75t-16.5 -77zM582 138q2 34 2 61q0 20 -1 38.5t1 38.5q0 49 26.5 67.5t73.5 18.5q37 0 54.5 -20t23.5 -50 t4 -63.5t-2 -60.5v-80q0 -47 -26.5 -66.5t-71.5 -17.5q-39 0 -56.5 20.5t-23.5 50t-4 63.5zM628 952.5q-5 20.5 6 46t31.5 46t43.5 22.5q12 0 16 -10q8 -12 2 -29q-6 -23 -27.5 -40t-44.5 -21q2 -12 10.5 -13.5t17.5 3t17.5 10.5t12.5 10q25 20 36 46t21 52q2 2 -1 9.5 t-8 15.5t-8 17t-1 16q10 27 34 22q12 0 17 -12q4 -10 2 -22.5t-2 -24.5q20 2 28.5 -1t-4.5 -28q-8 -16 -17 -33.5t-11 -36.5q0 -10 6 -10q20 0 34.5 20.5t26 46t22.5 51t25 34.5q8 2 17 -2q2 -4 2 -13q-4 -12 -10.5 -21t-1.5 -24q6 -12 13 -25.5t5 -27.5h2q20 25 32.5 60.5 t45.5 52.5q37 14 49 -21q10 -14 6 -25.5t-2 -27.5q8 2 14 10q16 12 18.5 35t8.5 41q4 4 11 5t12 -1q10 -2 8 -12v-2q10 10 24 16q10 6 17.5 2t11.5 -14q4 -12 1 -22.5t-8 -21.5t-10 -22.5t-3 -23.5q14 12 24 26.5t18.5 29.5t17.5 28.5t26 23.5q20 10 51 0q4 6 17 8.5 t9 -14.5q-4 -18 -14 -38.5t-10 -41.5q0 -14 8 -2q20 20 30.5 48t19.5 55.5t23.5 53t43.5 42.5q14 8 24 -8q12 -23 4 -48.5t-24 -41.5q-14 -18 -43 -44t-25 -53q4 -16 23 -12q14 6 21 19.5t16 25.5q4 2 12 2t8 -10l-4 -12q-16 -39 -53 -54q-25 -14 -43 15q-4 4 -4 10 q-10 -8 -16.5 -15.5t-18.5 -11.5q-10 -4 -16.5 0t-12.5 8q-4 -4 -12 -8t-16 -6q-31 -6 -43 21v2q-8 -10 -17.5 -17.5t-23.5 -11.5q-14 -8 -25 12q-6 12 -3 23.5t8 22t9 21.5t2 23q-18 -8 -25 -19t-11.5 -25.5t-6.5 -29t-8 -28.5q-6 -16 -24 -8q-8 2 -9 10q0 4 1 9t1 7 q-14 -4 -19 -4t-15 -10t-24.5 -18.5t-31.5 -8.5q-10 2 -16 8.5t-10 14.5q-16 -16 -40 -32.5t-50 -12.5q-16 2 -25 18q-25 -29 -51 -36q-29 -12 -33 20q-4 27 8.5 44t22.5 38q2 4 -3 5t-7 -3q-8 -20 -18.5 -44t-26 -45.5t-36 -34.5t-46.5 -11q-31 2 -36 22.5zM638 163 q-1 -38 1 -75q0 -16 9 -26.5t21.5 -14.5t24 1t15.5 24q2 12 2 27.5v29.5v147q0 16 -10.5 27.5t-22.5 16t-23.5 -2t-15.5 -22.5q-2 -14 -1 -29.5t1 -27.5q0 -37 -1 -75zM653 416q12 14 15.5 36.5t2.5 48t-4 49t-3 42.5v125q0 16 1 30.5t-12 28.5h76q-14 -12 -12 -32.5 t2 -36.5v-142q0 -16 -2 -49t10 -47q14 -23 37.5 -8.5t28.5 33.5q8 27 2.5 54t-9.5 54q-4 14 -10 38t-8 48.5t2 46t21 33.5q10 10 31.5 10t29.5 -16q6 -16 -2 -21.5t-18.5 -4.5t-17.5 8.5t1 15.5q-16 -8 -17 -28.5t6 -44t17 -46.5t15 -35q12 -37 17 -87t-22 -85 q-10 -14 -33.5 -19t-50 -5t-53 3t-41.5 3zM655 987q12 -2 28.5 15.5t18.5 27.5q4 8 -2 12.5t-12 -2.5q-10 -10 -18.5 -24.5t-14.5 -28.5zM715 -328q0 14 9 22.5t21.5 8.5t21.5 -8t9 -23q0 -16 -9 -23t-21.5 -7t-21.5 7t-9 23zM776 1124q-2 -8 4 -20h4q0 8 1 13t-1 13 q-6 0 -8 -6zM780 4q10 14 13.5 34.5t2.5 44t-4.5 46.5t-3.5 39v172q0 10 -8 22h58q29 -12 51 -50t35 -66q0 25 2 59.5t-13 56.5h74q-12 -10 -11 -24t1 -29v-246q0 -14 -1 -31.5t11 -27.5h-207zM797 -356l59 223h64l59 -223h-51l-15 51h-53l-10 -51h-53zM844 47 q0 -14 11 -23.5t25.5 -11.5t28 3.5t15.5 19.5q-4 63 -21.5 127.5t-58.5 116.5v-232zM865 506.5q-3 19.5 7 32.5q10 12 33 13t27 -22q0 -10 -7 -15t-15.5 -5t-14.5 4t-6 14q-12 -4 -12 -14t7 -20.5t17 -19.5t17 -11q14 -4 34.5 -4t30.5 10q20 20 16 40.5t-19 38t-35.5 32 t-31.5 24.5q-18 16 -30.5 42t-12.5 52.5t13.5 48t44.5 27.5q27 6 54.5 4t51.5 -2l-6 -10q0 -14 7 -29.5t13.5 -31t5.5 -29.5t-16 -27q-14 -10 -33.5 -9t-21.5 22q0 12 7 17t15.5 5t14.5 -5t4 -13q14 2 14 12t-8 21.5t-18.5 20.5t-18.5 11q-14 4 -32.5 1t-24.5 -19 q-12 -25 -4 -43.5t24.5 -32.5t37 -27.5t32.5 -27.5q14 -20 22.5 -47t4.5 -52.5t-20.5 -44t-47.5 -22.5q-27 -2 -53.5 -1t-54.5 1q8 4 5 19.5t-8.5 33.5t-8.5 37.5zM866 -266h41q-4 23 -9 46t-11 46zM874 1014q4 -12 16.5 -10t14.5 14q2 18 -10 43q-6 -8 -14.5 -22.5 t-6.5 -24.5zM991 1059l4 -15q10 -14 25 -6q16 4 23.5 21.5t3.5 34.5q-2 10 -9.5 16t-21.5 -4q-20 -14 -25 -47zM997 4q12 14 15.5 36.5t2.5 47.5t-4 48.5t-3 39.5v127q0 16 1 29.5t-12 29.5h76q-10 -10 -13 -30.5t-2 -42t3 -43t2 -35.5v-166h104q23 0 55.5 -3t55.5 13 q-4 -8 -7 -29.5t-14 -21.5h-260zM1006 -135q29 4 64.5 6t62.5 -14q31 -23 22.5 -58t-37.5 -49q14 -6 21.5 -19.5t10.5 -28.5t5 -30.5t8 -27.5h-51q-6 12 -8 27.5t-6 28.5t-12.5 22.5t-26.5 7.5v-86h-53v221zM1057 -196.5q2 -24.5 2 -34.5h12q18 0 26.5 10t6.5 22.5 t-11.5 21.5t-27.5 7q-10 -2 -8 -26.5zM1065 416q10 12 11 25.5t1 27.5v248q0 14 -1 30.5t-11 28.5h127q25 -25 25.5 -59.5t-9.5 -67.5q-4 -8 -15 -29.5t-20.5 -45t-11.5 -45t10 -27.5q-6 12 4.5 13t21.5 -4t14 -14.5t-17 -17.5q-25 -10 -35 9.5t-8 35.5q0 16 6 32.5t8 31 t-4 22.5t-28 6v-155q16 0 41.5 -3t44.5 11q-6 -14 -8.5 -26.5t-6.5 -26.5h-139zM1098 362h78q-12 -29 2 -65.5t26 -60.5q12 29 22.5 62.5t0.5 63.5h80q-23 -12 -27 -38.5t-10 -47.5q-6 -20 -23.5 -47.5t-17.5 -48.5q0 -23 -3 -56.5t13 -51.5h-76q18 18 14.5 53.5t-3.5 58.5 q-12 23 -21.5 46.5t-17.5 45.5q-10 23 -14.5 46.5t-22.5 39.5zM1133 662q20 0 45.5 2t27.5 32q0 16 -7 23.5t-18.5 10.5t-24.5 3h-23v-71zM1192 -133h53v-223h-53v223zM1245 1092q-4 -10 1 -27.5t22 -3.5q12 12 21 33t11 39q-2 8 -4 13t-12 1q-16 -8 -25.5 -23.5 t-13.5 -31.5zM1274 -328q0 14 9 22.5t21.5 8.5t21.5 -8t9 -23q0 -16 -9 -23t-21.5 -7t-21.5 7t-9 23zM1294 813q-8 -6 4 -8q27 -10 57.5 -13.5t62.5 -3.5h62.5t59.5 -2t57.5 -5t57.5 -13q29 -8 51.5 -23.5t48.5 -27.5q0 61 -21.5 106t-80.5 68q35 31 69.5 58.5t75.5 43.5 q-49 47 -110.5 77t-126.5 46q-2 -57 -3.5 -112.5t-5.5 -112.5l-2 2v-6q-27 -2 -64.5 -4t-74.5 -9.5t-68.5 -21.5t-48.5 -39zM1364 -133h57l68 -152q-4 39 -4 77v75h47v-223h-51q-20 39 -37 78.5t-35 76.5q2 -39 2 -77.5v-77.5h-47v223zM1393 1157q16 20 31.5 40t19.5 46h-2 q-37 -37 -49 -86zM1562.5 -268q-8.5 37 14.5 80q12 29 40 43t62 14h10.5t17.5 -2t16.5 -4t7.5 -4l-9 -41q-27 12 -48 8t-36.5 -18.5t-20.5 -37t3 -46.5q16 -47 61 -41q10 2 8.5 21.5t-1.5 27.5h-27v41h76v-121q-41 -16 -79 -9t-62.5 29.5t-33 59.5z" />
<glyph unicode="5" d="M35 813q70 37 137.5 67.5t144.5 53.5q4 0 8.5 20.5t8.5 45t8 48t8 31.5q23 35 68 53.5t78 34.5q88 35 179 61.5t183 51.5q94 23 188.5 39t190.5 24q33 4 80 8.5t95 3.5t92 -12.5t71 -37.5q2 -4 -2 -29t-6 -33l-6 -98q0 -4 4 -4q78 -23 152.5 -58.5t123.5 -103.5v-2 q-16 4 -36.5 -3t-41 -20.5t-38 -28t-27.5 -26.5q31 -16 50 -47t27.5 -66.5t6.5 -72.5t-13 -68q-16 43 -49.5 66.5t-74.5 35t-85 14.5t-83 5q-45 4 -94.5 2t-92.5 14q-16 6 -22 25.5t-7 43t2 46.5t5 37q-184 -14 -363.5 -56t-351.5 -102q-8 -2 -8 -6q2 -10 8 -33.5t10 -50.5 t6 -49.5t-6 -28.5q-23 -18 -58.5 -21t-64.5 -7q-39 -6 -78.5 -12.5t-78.5 -12.5q-35 -8 -67 -17.5t-62 -21.5q-14 -8 -28.5 -13t-29.5 -16q-8 -8 -18 -20t-17 -16q10 35 24.5 67.5t27.5 63.5q2 6 13 25.5t21.5 41t18.5 39t6 21.5q-25 35 -58.5 67.5t-78.5 36.5zM86 -133h47 q4 -41 7 -83t12 -83q4 41 10 83t14 83h37l25 -166q4 41 9 83t9 83h43l-43 -223h-43q-6 37 -11 73.5t-9 73.5q-4 -37 -11.5 -73.5t-13.5 -73.5h-43zM90 819q68 -37 109 -108q2 -2 -4.5 -15.5t-14.5 -29t-15 -28.5t-9 -20q-25 -45 -41 -94q51 27 104 39t108.5 20.5t110 15.5 t107.5 24q-18 18 -47 25t-62 8t-65.5 -2t-55.5 -5v131t4 131q-59 -16 -116.5 -39.5t-112.5 -52.5zM305 -133h45q4 -41 8 -83t11 -83q4 41 10 83t14 83h39l23 -166q4 41 9 83t9 83h43l-43 -223h-41q-8 37 -13 73.5t-9 73.5q-4 -37 -10.5 -73.5t-12.5 -73.5h-45zM342 709 q8 0 22.5 6t29 15t27.5 18.5t23 13.5q37 16 75 29.5t77 27.5q78 23 155.5 43.5t159.5 38.5q78 16 155 31.5t157 21.5q72 8 154.5 11.5t152.5 -29.5q6 55 6 112.5t4 110.5q0 29 2 57.5t6 57.5q2 14 -6 22.5t-20.5 13.5t-26.5 7t-27 4q-119 18 -245.5 1t-245.5 -42 q-129 -27 -255 -60.5t-249 -86.5q-23 -12 -46.5 -24.5t-43.5 -29.5q-20 -16 -24.5 -49t-8.5 -55q-8 -66 -8 -132.5v-133.5zM367 825q0 23 15 38.5t36 19.5q6 2 15 -2t5 -15q-12 -8 -22 -8q-12 -4 -16.5 -16.5t1.5 -22.5q4 -4 8.5 -5t8.5 -3q20 -2 33.5 11.5t22.5 34t13.5 41 t8.5 34.5q-27 -27 -62 -35q-27 -4 -43 12q-16 8 -16 37q0 27 12 51q27 61 86 99q12 6 25.5 12t27.5 10q10 4 21.5 12.5t21.5 10.5q12 -1 6 -13q12 0 21 -2q16 -2 27.5 -15t13.5 -32q6 -43 -23.5 -83t-66.5 -62q-18 -12 -27.5 -31.5t-18.5 -39t-20.5 -38t-34.5 -28.5 q-23 -16 -53 -11q-12 4 -20 14.5t-6 24.5zM405.5 937q2.5 -15 22.5 -15q31 0 49.5 19.5t30.5 47t18.5 58.5t10.5 51q-29 -6 -52.5 -23.5t-44.5 -38.5q-6 -6 -15 -25.5t-15.5 -39t-4 -34.5zM522 -133h45q4 -41 9.5 -83t9.5 -83q4 41 10 83t14 83h39l25 -166q2 41 7 83t11 83 h41l-41 -223h-43q-8 37 -12 73.5t-10 73.5q-4 -37 -10.5 -73.5t-12.5 -73.5h-43zM530 950q14 4 29.5 19.5t26 35t14.5 40t0 34.5q-6 23 -33 23q-14 -37 -20.5 -75t-16.5 -77zM582 138q2 34 2 61q0 20 -1 38.5t1 38.5q0 49 26.5 67.5t73.5 18.5q37 0 54.5 -20t23.5 -50 t4 -63.5t-2 -60.5v-80q0 -47 -26.5 -66.5t-71.5 -17.5q-39 0 -56.5 20.5t-23.5 50t-4 63.5zM628 952.5q-5 20.5 6 46t31.5 46t43.5 22.5q12 0 16 -10q8 -12 2 -29q-6 -23 -27.5 -40t-44.5 -21q2 -12 10.5 -13.5t17.5 3t17.5 10.5t12.5 10q25 20 36 46t21 52q2 2 -1 9.5 t-8 15.5t-8 17t-1 16q10 27 34 22q12 0 17 -12q4 -10 2 -22.5t-2 -24.5q20 2 28.5 -1t-4.5 -28q-8 -16 -17 -33.5t-11 -36.5q0 -10 6 -10q20 0 34.5 20.5t26 46t22.5 51t25 34.5q8 2 17 -2q2 -4 2 -13q-4 -12 -10.5 -21t-1.5 -24q6 -12 13 -25.5t5 -27.5h2q20 25 32.5 60.5 t45.5 52.5q37 14 49 -21q10 -14 6 -25.5t-2 -27.5q8 2 14 10q16 12 18.5 35t8.5 41q4 4 11 5t12 -1q10 -2 8 -12v-2q10 10 24 16q10 6 17.5 2t11.5 -14q4 -12 1 -22.5t-8 -21.5t-10 -22.5t-3 -23.5q14 12 24 26.5t18.5 29.5t17.5 28.5t26 23.5q20 10 51 0q4 6 17 8.5 t9 -14.5q-4 -18 -14 -38.5t-10 -41.5q0 -14 8 -2q20 20 30.5 48t19.5 55.5t23.5 53t43.5 42.5q14 8 24 -8q12 -23 4 -48.5t-24 -41.5q-14 -18 -43 -44t-25 -53q4 -16 23 -12q14 6 21 19.5t16 25.5q4 2 12 2t8 -10l-4 -12q-16 -39 -53 -54q-25 -14 -43 15q-4 4 -4 10 q-10 -8 -16.5 -15.5t-18.5 -11.5q-10 -4 -16.5 0t-12.5 8q-4 -4 -12 -8t-16 -6q-31 -6 -43 21v2q-8 -10 -17.5 -17.5t-23.5 -11.5q-14 -8 -25 12q-6 12 -3 23.5t8 22t9 21.5t2 23q-18 -8 -25 -19t-11.5 -25.5t-6.5 -29t-8 -28.5q-6 -16 -24 -8q-8 2 -9 10q0 4 1 9t1 7 q-14 -4 -19 -4t-15 -10t-24.5 -18.5t-31.5 -8.5q-10 2 -16 8.5t-10 14.5q-16 -16 -40 -32.5t-50 -12.5q-16 2 -25 18q-25 -29 -51 -36q-29 -12 -33 20q-4 27 8.5 44t22.5 38q2 4 -3 5t-7 -3q-8 -20 -18.5 -44t-26 -45.5t-36 -34.5t-46.5 -11q-31 2 -36 22.5zM638 163 q-1 -38 1 -75q0 -16 9 -26.5t21.5 -14.5t24 1t15.5 24q2 12 2 27.5v29.5v147q0 16 -10.5 27.5t-22.5 16t-23.5 -2t-15.5 -22.5q-2 -14 -1 -29.5t1 -27.5q0 -37 -1 -75zM653 416q12 14 15.5 36.5t2.5 48t-4 49t-3 42.5v125q0 16 1 30.5t-12 28.5h76q-14 -12 -12 -32.5 t2 -36.5v-142q0 -16 -2 -49t10 -47q14 -23 37.5 -8.5t28.5 33.5q8 27 2.5 54t-9.5 54q-4 14 -10 38t-8 48.5t2 46t21 33.5q10 10 31.5 10t29.5 -16q6 -16 -2 -21.5t-18.5 -4.5t-17.5 8.5t1 15.5q-16 -8 -17 -28.5t6 -44t17 -46.5t15 -35q12 -37 17 -87t-22 -85 q-10 -14 -33.5 -19t-50 -5t-53 3t-41.5 3zM655 987q12 -2 28.5 15.5t18.5 27.5q4 8 -2 12.5t-12 -2.5q-10 -10 -18.5 -24.5t-14.5 -28.5zM715 -328q0 14 9 22.5t21.5 8.5t21.5 -8t9 -23q0 -16 -9 -23t-21.5 -7t-21.5 7t-9 23zM776 1124q-2 -8 4 -20h4q0 8 1 13t-1 13 q-6 0 -8 -6zM780 4q10 14 13.5 34.5t2.5 44t-4.5 46.5t-3.5 39v172q0 10 -8 22h58q29 -12 51 -50t35 -66q0 25 2 59.5t-13 56.5h74q-12 -10 -11 -24t1 -29v-246q0 -14 -1 -31.5t11 -27.5h-207zM797 -356l59 223h64l59 -223h-51l-15 51h-53l-10 -51h-53zM844 47 q0 -14 11 -23.5t25.5 -11.5t28 3.5t15.5 19.5q-4 63 -21.5 127.5t-58.5 116.5v-232zM865 506.5q-3 19.5 7 32.5q10 12 33 13t27 -22q0 -10 -7 -15t-15.5 -5t-14.5 4t-6 14q-12 -4 -12 -14t7 -20.5t17 -19.5t17 -11q14 -4 34.5 -4t30.5 10q20 20 16 40.5t-19 38t-35.5 32 t-31.5 24.5q-18 16 -30.5 42t-12.5 52.5t13.5 48t44.5 27.5q27 6 54.5 4t51.5 -2l-6 -10q0 -14 7 -29.5t13.5 -31t5.5 -29.5t-16 -27q-14 -10 -33.5 -9t-21.5 22q0 12 7 17t15.5 5t14.5 -5t4 -13q14 2 14 12t-8 21.5t-18.5 20.5t-18.5 11q-14 4 -32.5 1t-24.5 -19 q-12 -25 -4 -43.5t24.5 -32.5t37 -27.5t32.5 -27.5q14 -20 22.5 -47t4.5 -52.5t-20.5 -44t-47.5 -22.5q-27 -2 -53.5 -1t-54.5 1q8 4 5 19.5t-8.5 33.5t-8.5 37.5zM866 -266h41q-4 23 -9 46t-11 46zM874 1014q4 -12 16.5 -10t14.5 14q2 18 -10 43q-6 -8 -14.5 -22.5 t-6.5 -24.5zM991 1059l4 -15q10 -14 25 -6q16 4 23.5 21.5t3.5 34.5q-2 10 -9.5 16t-21.5 -4q-20 -14 -25 -47zM997 4q12 14 15.5 36.5t2.5 47.5t-4 48.5t-3 39.5v127q0 16 1 29.5t-12 29.5h76q-10 -10 -13 -30.5t-2 -42t3 -43t2 -35.5v-166h104q23 0 55.5 -3t55.5 13 q-4 -8 -7 -29.5t-14 -21.5h-260zM1006 -135q29 4 64.5 6t62.5 -14q31 -23 22.5 -58t-37.5 -49q14 -6 21.5 -19.5t10.5 -28.5t5 -30.5t8 -27.5h-51q-6 12 -8 27.5t-6 28.5t-12.5 22.5t-26.5 7.5v-86h-53v221zM1057 -196.5q2 -24.5 2 -34.5h12q18 0 26.5 10t6.5 22.5 t-11.5 21.5t-27.5 7q-10 -2 -8 -26.5zM1065 416q10 12 11 25.5t1 27.5v248q0 14 -1 30.5t-11 28.5h127q25 -25 25.5 -59.5t-9.5 -67.5q-4 -8 -15 -29.5t-20.5 -45t-11.5 -45t10 -27.5q-6 12 4.5 13t21.5 -4t14 -14.5t-17 -17.5q-25 -10 -35 9.5t-8 35.5q0 16 6 32.5t8 31 t-4 22.5t-28 6v-155q16 0 41.5 -3t44.5 11q-6 -14 -8.5 -26.5t-6.5 -26.5h-139zM1098 362h78q-12 -29 2 -65.5t26 -60.5q12 29 22.5 62.5t0.5 63.5h80q-23 -12 -27 -38.5t-10 -47.5q-6 -20 -23.5 -47.5t-17.5 -48.5q0 -23 -3 -56.5t13 -51.5h-76q18 18 14.5 53.5t-3.5 58.5 q-12 23 -21.5 46.5t-17.5 45.5q-10 23 -14.5 46.5t-22.5 39.5zM1133 662q20 0 45.5 2t27.5 32q0 16 -7 23.5t-18.5 10.5t-24.5 3h-23v-71zM1192 -133h53v-223h-53v223zM1245 1092q-4 -10 1 -27.5t22 -3.5q12 12 21 33t11 39q-2 8 -4 13t-12 1q-16 -8 -25.5 -23.5 t-13.5 -31.5zM1274 -328q0 14 9 22.5t21.5 8.5t21.5 -8t9 -23q0 -16 -9 -23t-21.5 -7t-21.5 7t-9 23zM1294 813q-8 -6 4 -8q27 -10 57.5 -13.5t62.5 -3.5h62.5t59.5 -2t57.5 -5t57.5 -13q29 -8 51.5 -23.5t48.5 -27.5q0 61 -21.5 106t-80.5 68q35 31 69.5 58.5t75.5 43.5 q-49 47 -110.5 77t-126.5 46q-2 -57 -3.5 -112.5t-5.5 -112.5l-2 2v-6q-27 -2 -64.5 -4t-74.5 -9.5t-68.5 -21.5t-48.5 -39zM1364 -133h57l68 -152q-4 39 -4 77v75h47v-223h-51q-20 39 -37 78.5t-35 76.5q2 -39 2 -77.5v-77.5h-47v223zM1393 1157q16 20 31.5 40t19.5 46h-2 q-37 -37 -49 -86zM1562.5 -268q-8.5 37 14.5 80q12 29 40 43t62 14h10.5t17.5 -2t16.5 -4t7.5 -4l-9 -41q-27 12 -48 8t-36.5 -18.5t-20.5 -37t3 -46.5q16 -47 61 -41q10 2 8.5 21.5t-1.5 27.5h-27v41h76v-121q-41 -16 -79 -9t-62.5 29.5t-33 59.5z" />
<glyph unicode="6" d="M35 813q70 37 137.5 67.5t144.5 53.5q4 0 8.5 20.5t8.5 45t8 48t8 31.5q23 35 68 53.5t78 34.5q88 35 179 61.5t183 51.5q94 23 188.5 39t190.5 24q33 4 80 8.5t95 3.5t92 -12.5t71 -37.5q2 -4 -2 -29t-6 -33l-6 -98q0 -4 4 -4q78 -23 152.5 -58.5t123.5 -103.5v-2 q-16 4 -36.5 -3t-41 -20.5t-38 -28t-27.5 -26.5q31 -16 50 -47t27.5 -66.5t6.5 -72.5t-13 -68q-16 43 -49.5 66.5t-74.5 35t-85 14.5t-83 5q-45 4 -94.5 2t-92.5 14q-16 6 -22 25.5t-7 43t2 46.5t5 37q-184 -14 -363.5 -56t-351.5 -102q-8 -2 -8 -6q2 -10 8 -33.5t10 -50.5 t6 -49.5t-6 -28.5q-23 -18 -58.5 -21t-64.5 -7q-39 -6 -78.5 -12.5t-78.5 -12.5q-35 -8 -67 -17.5t-62 -21.5q-14 -8 -28.5 -13t-29.5 -16q-8 -8 -18 -20t-17 -16q10 35 24.5 67.5t27.5 63.5q2 6 13 25.5t21.5 41t18.5 39t6 21.5q-25 35 -58.5 67.5t-78.5 36.5zM86 -133h47 q4 -41 7 -83t12 -83q4 41 10 83t14 83h37l25 -166q4 41 9 83t9 83h43l-43 -223h-43q-6 37 -11 73.5t-9 73.5q-4 -37 -11.5 -73.5t-13.5 -73.5h-43zM90 819q68 -37 109 -108q2 -2 -4.5 -15.5t-14.5 -29t-15 -28.5t-9 -20q-25 -45 -41 -94q51 27 104 39t108.5 20.5t110 15.5 t107.5 24q-18 18 -47 25t-62 8t-65.5 -2t-55.5 -5v131t4 131q-59 -16 -116.5 -39.5t-112.5 -52.5zM305 -133h45q4 -41 8 -83t11 -83q4 41 10 83t14 83h39l23 -166q4 41 9 83t9 83h43l-43 -223h-41q-8 37 -13 73.5t-9 73.5q-4 -37 -10.5 -73.5t-12.5 -73.5h-45zM342 709 q8 0 22.5 6t29 15t27.5 18.5t23 13.5q37 16 75 29.5t77 27.5q78 23 155.5 43.5t159.5 38.5q78 16 155 31.5t157 21.5q72 8 154.5 11.5t152.5 -29.5q6 55 6 112.5t4 110.5q0 29 2 57.5t6 57.5q2 14 -6 22.5t-20.5 13.5t-26.5 7t-27 4q-119 18 -245.5 1t-245.5 -42 q-129 -27 -255 -60.5t-249 -86.5q-23 -12 -46.5 -24.5t-43.5 -29.5q-20 -16 -24.5 -49t-8.5 -55q-8 -66 -8 -132.5v-133.5zM367 825q0 23 15 38.5t36 19.5q6 2 15 -2t5 -15q-12 -8 -22 -8q-12 -4 -16.5 -16.5t1.5 -22.5q4 -4 8.5 -5t8.5 -3q20 -2 33.5 11.5t22.5 34t13.5 41 t8.5 34.5q-27 -27 -62 -35q-27 -4 -43 12q-16 8 -16 37q0 27 12 51q27 61 86 99q12 6 25.5 12t27.5 10q10 4 21.5 12.5t21.5 10.5q12 -1 6 -13q12 0 21 -2q16 -2 27.5 -15t13.5 -32q6 -43 -23.5 -83t-66.5 -62q-18 -12 -27.5 -31.5t-18.5 -39t-20.5 -38t-34.5 -28.5 q-23 -16 -53 -11q-12 4 -20 14.5t-6 24.5zM405.5 937q2.5 -15 22.5 -15q31 0 49.5 19.5t30.5 47t18.5 58.5t10.5 51q-29 -6 -52.5 -23.5t-44.5 -38.5q-6 -6 -15 -25.5t-15.5 -39t-4 -34.5zM522 -133h45q4 -41 9.5 -83t9.5 -83q4 41 10 83t14 83h39l25 -166q2 41 7 83t11 83 h41l-41 -223h-43q-8 37 -12 73.5t-10 73.5q-4 -37 -10.5 -73.5t-12.5 -73.5h-43zM530 950q14 4 29.5 19.5t26 35t14.5 40t0 34.5q-6 23 -33 23q-14 -37 -20.5 -75t-16.5 -77zM582 138q2 34 2 61q0 20 -1 38.5t1 38.5q0 49 26.5 67.5t73.5 18.5q37 0 54.5 -20t23.5 -50 t4 -63.5t-2 -60.5v-80q0 -47 -26.5 -66.5t-71.5 -17.5q-39 0 -56.5 20.5t-23.5 50t-4 63.5zM628 952.5q-5 20.5 6 46t31.5 46t43.5 22.5q12 0 16 -10q8 -12 2 -29q-6 -23 -27.5 -40t-44.5 -21q2 -12 10.5 -13.5t17.5 3t17.5 10.5t12.5 10q25 20 36 46t21 52q2 2 -1 9.5 t-8 15.5t-8 17t-1 16q10 27 34 22q12 0 17 -12q4 -10 2 -22.5t-2 -24.5q20 2 28.5 -1t-4.5 -28q-8 -16 -17 -33.5t-11 -36.5q0 -10 6 -10q20 0 34.5 20.5t26 46t22.5 51t25 34.5q8 2 17 -2q2 -4 2 -13q-4 -12 -10.5 -21t-1.5 -24q6 -12 13 -25.5t5 -27.5h2q20 25 32.5 60.5 t45.5 52.5q37 14 49 -21q10 -14 6 -25.5t-2 -27.5q8 2 14 10q16 12 18.5 35t8.5 41q4 4 11 5t12 -1q10 -2 8 -12v-2q10 10 24 16q10 6 17.5 2t11.5 -14q4 -12 1 -22.5t-8 -21.5t-10 -22.5t-3 -23.5q14 12 24 26.5t18.5 29.5t17.5 28.5t26 23.5q20 10 51 0q4 6 17 8.5 t9 -14.5q-4 -18 -14 -38.5t-10 -41.5q0 -14 8 -2q20 20 30.5 48t19.5 55.5t23.5 53t43.5 42.5q14 8 24 -8q12 -23 4 -48.5t-24 -41.5q-14 -18 -43 -44t-25 -53q4 -16 23 -12q14 6 21 19.5t16 25.5q4 2 12 2t8 -10l-4 -12q-16 -39 -53 -54q-25 -14 -43 15q-4 4 -4 10 q-10 -8 -16.5 -15.5t-18.5 -11.5q-10 -4 -16.5 0t-12.5 8q-4 -4 -12 -8t-16 -6q-31 -6 -43 21v2q-8 -10 -17.5 -17.5t-23.5 -11.5q-14 -8 -25 12q-6 12 -3 23.5t8 22t9 21.5t2 23q-18 -8 -25 -19t-11.5 -25.5t-6.5 -29t-8 -28.5q-6 -16 -24 -8q-8 2 -9 10q0 4 1 9t1 7 q-14 -4 -19 -4t-15 -10t-24.5 -18.5t-31.5 -8.5q-10 2 -16 8.5t-10 14.5q-16 -16 -40 -32.5t-50 -12.5q-16 2 -25 18q-25 -29 -51 -36q-29 -12 -33 20q-4 27 8.5 44t22.5 38q2 4 -3 5t-7 -3q-8 -20 -18.5 -44t-26 -45.5t-36 -34.5t-46.5 -11q-31 2 -36 22.5zM638 163 q-1 -38 1 -75q0 -16 9 -26.5t21.5 -14.5t24 1t15.5 24q2 12 2 27.5v29.5v147q0 16 -10.5 27.5t-22.5 16t-23.5 -2t-15.5 -22.5q-2 -14 -1 -29.5t1 -27.5q0 -37 -1 -75zM653 416q12 14 15.5 36.5t2.5 48t-4 49t-3 42.5v125q0 16 1 30.5t-12 28.5h76q-14 -12 -12 -32.5 t2 -36.5v-142q0 -16 -2 -49t10 -47q14 -23 37.5 -8.5t28.5 33.5q8 27 2.5 54t-9.5 54q-4 14 -10 38t-8 48.5t2 46t21 33.5q10 10 31.5 10t29.5 -16q6 -16 -2 -21.5t-18.5 -4.5t-17.5 8.5t1 15.5q-16 -8 -17 -28.5t6 -44t17 -46.5t15 -35q12 -37 17 -87t-22 -85 q-10 -14 -33.5 -19t-50 -5t-53 3t-41.5 3zM655 987q12 -2 28.5 15.5t18.5 27.5q4 8 -2 12.5t-12 -2.5q-10 -10 -18.5 -24.5t-14.5 -28.5zM715 -328q0 14 9 22.5t21.5 8.5t21.5 -8t9 -23q0 -16 -9 -23t-21.5 -7t-21.5 7t-9 23zM776 1124q-2 -8 4 -20h4q0 8 1 13t-1 13 q-6 0 -8 -6zM780 4q10 14 13.5 34.5t2.5 44t-4.5 46.5t-3.5 39v172q0 10 -8 22h58q29 -12 51 -50t35 -66q0 25 2 59.5t-13 56.5h74q-12 -10 -11 -24t1 -29v-246q0 -14 -1 -31.5t11 -27.5h-207zM797 -356l59 223h64l59 -223h-51l-15 51h-53l-10 -51h-53zM844 47 q0 -14 11 -23.5t25.5 -11.5t28 3.5t15.5 19.5q-4 63 -21.5 127.5t-58.5 116.5v-232zM865 506.5q-3 19.5 7 32.5q10 12 33 13t27 -22q0 -10 -7 -15t-15.5 -5t-14.5 4t-6 14q-12 -4 -12 -14t7 -20.5t17 -19.5t17 -11q14 -4 34.5 -4t30.5 10q20 20 16 40.5t-19 38t-35.5 32 t-31.5 24.5q-18 16 -30.5 42t-12.5 52.5t13.5 48t44.5 27.5q27 6 54.5 4t51.5 -2l-6 -10q0 -14 7 -29.5t13.5 -31t5.5 -29.5t-16 -27q-14 -10 -33.5 -9t-21.5 22q0 12 7 17t15.5 5t14.5 -5t4 -13q14 2 14 12t-8 21.5t-18.5 20.5t-18.5 11q-14 4 -32.5 1t-24.5 -19 q-12 -25 -4 -43.5t24.5 -32.5t37 -27.5t32.5 -27.5q14 -20 22.5 -47t4.5 -52.5t-20.5 -44t-47.5 -22.5q-27 -2 -53.5 -1t-54.5 1q8 4 5 19.5t-8.5 33.5t-8.5 37.5zM866 -266h41q-4 23 -9 46t-11 46zM874 1014q4 -12 16.5 -10t14.5 14q2 18 -10 43q-6 -8 -14.5 -22.5 t-6.5 -24.5zM991 1059l4 -15q10 -14 25 -6q16 4 23.5 21.5t3.5 34.5q-2 10 -9.5 16t-21.5 -4q-20 -14 -25 -47zM997 4q12 14 15.5 36.5t2.5 47.5t-4 48.5t-3 39.5v127q0 16 1 29.5t-12 29.5h76q-10 -10 -13 -30.5t-2 -42t3 -43t2 -35.5v-166h104q23 0 55.5 -3t55.5 13 q-4 -8 -7 -29.5t-14 -21.5h-260zM1006 -135q29 4 64.5 6t62.5 -14q31 -23 22.5 -58t-37.5 -49q14 -6 21.5 -19.5t10.5 -28.5t5 -30.5t8 -27.5h-51q-6 12 -8 27.5t-6 28.5t-12.5 22.5t-26.5 7.5v-86h-53v221zM1057 -196.5q2 -24.5 2 -34.5h12q18 0 26.5 10t6.5 22.5 t-11.5 21.5t-27.5 7q-10 -2 -8 -26.5zM1065 416q10 12 11 25.5t1 27.5v248q0 14 -1 30.5t-11 28.5h127q25 -25 25.5 -59.5t-9.5 -67.5q-4 -8 -15 -29.5t-20.5 -45t-11.5 -45t10 -27.5q-6 12 4.5 13t21.5 -4t14 -14.5t-17 -17.5q-25 -10 -35 9.5t-8 35.5q0 16 6 32.5t8 31 t-4 22.5t-28 6v-155q16 0 41.5 -3t44.5 11q-6 -14 -8.5 -26.5t-6.5 -26.5h-139zM1098 362h78q-12 -29 2 -65.5t26 -60.5q12 29 22.5 62.5t0.5 63.5h80q-23 -12 -27 -38.5t-10 -47.5q-6 -20 -23.5 -47.5t-17.5 -48.5q0 -23 -3 -56.5t13 -51.5h-76q18 18 14.5 53.5t-3.5 58.5 q-12 23 -21.5 46.5t-17.5 45.5q-10 23 -14.5 46.5t-22.5 39.5zM1133 662q20 0 45.5 2t27.5 32q0 16 -7 23.5t-18.5 10.5t-24.5 3h-23v-71zM1192 -133h53v-223h-53v223zM1245 1092q-4 -10 1 -27.5t22 -3.5q12 12 21 33t11 39q-2 8 -4 13t-12 1q-16 -8 -25.5 -23.5 t-13.5 -31.5zM1274 -328q0 14 9 22.5t21.5 8.5t21.5 -8t9 -23q0 -16 -9 -23t-21.5 -7t-21.5 7t-9 23zM1294 813q-8 -6 4 -8q27 -10 57.5 -13.5t62.5 -3.5h62.5t59.5 -2t57.5 -5t57.5 -13q29 -8 51.5 -23.5t48.5 -27.5q0 61 -21.5 106t-80.5 68q35 31 69.5 58.5t75.5 43.5 q-49 47 -110.5 77t-126.5 46q-2 -57 -3.5 -112.5t-5.5 -112.5l-2 2v-6q-27 -2 -64.5 -4t-74.5 -9.5t-68.5 -21.5t-48.5 -39zM1364 -133h57l68 -152q-4 39 -4 77v75h47v-223h-51q-20 39 -37 78.5t-35 76.5q2 -39 2 -77.5v-77.5h-47v223zM1393 1157q16 20 31.5 40t19.5 46h-2 q-37 -37 -49 -86zM1562.5 -268q-8.5 37 14.5 80q12 29 40 43t62 14h10.5t17.5 -2t16.5 -4t7.5 -4l-9 -41q-27 12 -48 8t-36.5 -18.5t-20.5 -37t3 -46.5q16 -47 61 -41q10 2 8.5 21.5t-1.5 27.5h-27v41h76v-121q-41 -16 -79 -9t-62.5 29.5t-33 59.5z" />
<glyph unicode="7" d="M35 813q70 37 137.5 67.5t144.5 53.5q4 0 8.5 20.5t8.5 45t8 48t8 31.5q23 35 68 53.5t78 34.5q88 35 179 61.5t183 51.5q94 23 188.5 39t190.5 24q33 4 80 8.5t95 3.5t92 -12.5t71 -37.5q2 -4 -2 -29t-6 -33l-6 -98q0 -4 4 -4q78 -23 152.5 -58.5t123.5 -103.5v-2 q-16 4 -36.5 -3t-41 -20.5t-38 -28t-27.5 -26.5q31 -16 50 -47t27.5 -66.5t6.5 -72.5t-13 -68q-16 43 -49.5 66.5t-74.5 35t-85 14.5t-83 5q-45 4 -94.5 2t-92.5 14q-16 6 -22 25.5t-7 43t2 46.5t5 37q-184 -14 -363.5 -56t-351.5 -102q-8 -2 -8 -6q2 -10 8 -33.5t10 -50.5 t6 -49.5t-6 -28.5q-23 -18 -58.5 -21t-64.5 -7q-39 -6 -78.5 -12.5t-78.5 -12.5q-35 -8 -67 -17.5t-62 -21.5q-14 -8 -28.5 -13t-29.5 -16q-8 -8 -18 -20t-17 -16q10 35 24.5 67.5t27.5 63.5q2 6 13 25.5t21.5 41t18.5 39t6 21.5q-25 35 -58.5 67.5t-78.5 36.5zM86 -133h47 q4 -41 7 -83t12 -83q4 41 10 83t14 83h37l25 -166q4 41 9 83t9 83h43l-43 -223h-43q-6 37 -11 73.5t-9 73.5q-4 -37 -11.5 -73.5t-13.5 -73.5h-43zM90 819q68 -37 109 -108q2 -2 -4.5 -15.5t-14.5 -29t-15 -28.5t-9 -20q-25 -45 -41 -94q51 27 104 39t108.5 20.5t110 15.5 t107.5 24q-18 18 -47 25t-62 8t-65.5 -2t-55.5 -5v131t4 131q-59 -16 -116.5 -39.5t-112.5 -52.5zM305 -133h45q4 -41 8 -83t11 -83q4 41 10 83t14 83h39l23 -166q4 41 9 83t9 83h43l-43 -223h-41q-8 37 -13 73.5t-9 73.5q-4 -37 -10.5 -73.5t-12.5 -73.5h-45zM342 709 q8 0 22.5 6t29 15t27.5 18.5t23 13.5q37 16 75 29.5t77 27.5q78 23 155.5 43.5t159.5 38.5q78 16 155 31.5t157 21.5q72 8 154.5 11.5t152.5 -29.5q6 55 6 112.5t4 110.5q0 29 2 57.5t6 57.5q2 14 -6 22.5t-20.5 13.5t-26.5 7t-27 4q-119 18 -245.5 1t-245.5 -42 q-129 -27 -255 -60.5t-249 -86.5q-23 -12 -46.5 -24.5t-43.5 -29.5q-20 -16 -24.5 -49t-8.5 -55q-8 -66 -8 -132.5v-133.5zM367 825q0 23 15 38.5t36 19.5q6 2 15 -2t5 -15q-12 -8 -22 -8q-12 -4 -16.5 -16.5t1.5 -22.5q4 -4 8.5 -5t8.5 -3q20 -2 33.5 11.5t22.5 34t13.5 41 t8.5 34.5q-27 -27 -62 -35q-27 -4 -43 12q-16 8 -16 37q0 27 12 51q27 61 86 99q12 6 25.5 12t27.5 10q10 4 21.5 12.5t21.5 10.5q12 -1 6 -13q12 0 21 -2q16 -2 27.5 -15t13.5 -32q6 -43 -23.5 -83t-66.5 -62q-18 -12 -27.5 -31.5t-18.5 -39t-20.5 -38t-34.5 -28.5 q-23 -16 -53 -11q-12 4 -20 14.5t-6 24.5zM405.5 937q2.5 -15 22.5 -15q31 0 49.5 19.5t30.5 47t18.5 58.5t10.5 51q-29 -6 -52.5 -23.5t-44.5 -38.5q-6 -6 -15 -25.5t-15.5 -39t-4 -34.5zM522 -133h45q4 -41 9.5 -83t9.5 -83q4 41 10 83t14 83h39l25 -166q2 41 7 83t11 83 h41l-41 -223h-43q-8 37 -12 73.5t-10 73.5q-4 -37 -10.5 -73.5t-12.5 -73.5h-43zM530 950q14 4 29.5 19.5t26 35t14.5 40t0 34.5q-6 23 -33 23q-14 -37 -20.5 -75t-16.5 -77zM582 138q2 34 2 61q0 20 -1 38.5t1 38.5q0 49 26.5 67.5t73.5 18.5q37 0 54.5 -20t23.5 -50 t4 -63.5t-2 -60.5v-80q0 -47 -26.5 -66.5t-71.5 -17.5q-39 0 -56.5 20.5t-23.5 50t-4 63.5zM628 952.5q-5 20.5 6 46t31.5 46t43.5 22.5q12 0 16 -10q8 -12 2 -29q-6 -23 -27.5 -40t-44.5 -21q2 -12 10.5 -13.5t17.5 3t17.5 10.5t12.5 10q25 20 36 46t21 52q2 2 -1 9.5 t-8 15.5t-8 17t-1 16q10 27 34 22q12 0 17 -12q4 -10 2 -22.5t-2 -24.5q20 2 28.5 -1t-4.5 -28q-8 -16 -17 -33.5t-11 -36.5q0 -10 6 -10q20 0 34.5 20.5t26 46t22.5 51t25 34.5q8 2 17 -2q2 -4 2 -13q-4 -12 -10.5 -21t-1.5 -24q6 -12 13 -25.5t5 -27.5h2q20 25 32.5 60.5 t45.5 52.5q37 14 49 -21q10 -14 6 -25.5t-2 -27.5q8 2 14 10q16 12 18.5 35t8.5 41q4 4 11 5t12 -1q10 -2 8 -12v-2q10 10 24 16q10 6 17.5 2t11.5 -14q4 -12 1 -22.5t-8 -21.5t-10 -22.5t-3 -23.5q14 12 24 26.5t18.5 29.5t17.5 28.5t26 23.5q20 10 51 0q4 6 17 8.5 t9 -14.5q-4 -18 -14 -38.5t-10 -41.5q0 -14 8 -2q20 20 30.5 48t19.5 55.5t23.5 53t43.5 42.5q14 8 24 -8q12 -23 4 -48.5t-24 -41.5q-14 -18 -43 -44t-25 -53q4 -16 23 -12q14 6 21 19.5t16 25.5q4 2 12 2t8 -10l-4 -12q-16 -39 -53 -54q-25 -14 -43 15q-4 4 -4 10 q-10 -8 -16.5 -15.5t-18.5 -11.5q-10 -4 -16.5 0t-12.5 8q-4 -4 -12 -8t-16 -6q-31 -6 -43 21v2q-8 -10 -17.5 -17.5t-23.5 -11.5q-14 -8 -25 12q-6 12 -3 23.5t8 22t9 21.5t2 23q-18 -8 -25 -19t-11.5 -25.5t-6.5 -29t-8 -28.5q-6 -16 -24 -8q-8 2 -9 10q0 4 1 9t1 7 q-14 -4 -19 -4t-15 -10t-24.5 -18.5t-31.5 -8.5q-10 2 -16 8.5t-10 14.5q-16 -16 -40 -32.5t-50 -12.5q-16 2 -25 18q-25 -29 -51 -36q-29 -12 -33 20q-4 27 8.5 44t22.5 38q2 4 -3 5t-7 -3q-8 -20 -18.5 -44t-26 -45.5t-36 -34.5t-46.5 -11q-31 2 -36 22.5zM638 163 q-1 -38 1 -75q0 -16 9 -26.5t21.5 -14.5t24 1t15.5 24q2 12 2 27.5v29.5v147q0 16 -10.5 27.5t-22.5 16t-23.5 -2t-15.5 -22.5q-2 -14 -1 -29.5t1 -27.5q0 -37 -1 -75zM653 416q12 14 15.5 36.5t2.5 48t-4 49t-3 42.5v125q0 16 1 30.5t-12 28.5h76q-14 -12 -12 -32.5 t2 -36.5v-142q0 -16 -2 -49t10 -47q14 -23 37.5 -8.5t28.5 33.5q8 27 2.5 54t-9.5 54q-4 14 -10 38t-8 48.5t2 46t21 33.5q10 10 31.5 10t29.5 -16q6 -16 -2 -21.5t-18.5 -4.5t-17.5 8.5t1 15.5q-16 -8 -17 -28.5t6 -44t17 -46.5t15 -35q12 -37 17 -87t-22 -85 q-10 -14 -33.5 -19t-50 -5t-53 3t-41.5 3zM655 987q12 -2 28.5 15.5t18.5 27.5q4 8 -2 12.5t-12 -2.5q-10 -10 -18.5 -24.5t-14.5 -28.5zM715 -328q0 14 9 22.5t21.5 8.5t21.5 -8t9 -23q0 -16 -9 -23t-21.5 -7t-21.5 7t-9 23zM776 1124q-2 -8 4 -20h4q0 8 1 13t-1 13 q-6 0 -8 -6zM780 4q10 14 13.5 34.5t2.5 44t-4.5 46.5t-3.5 39v172q0 10 -8 22h58q29 -12 51 -50t35 -66q0 25 2 59.5t-13 56.5h74q-12 -10 -11 -24t1 -29v-246q0 -14 -1 -31.5t11 -27.5h-207zM797 -356l59 223h64l59 -223h-51l-15 51h-53l-10 -51h-53zM844 47 q0 -14 11 -23.5t25.5 -11.5t28 3.5t15.5 19.5q-4 63 -21.5 127.5t-58.5 116.5v-232zM865 506.5q-3 19.5 7 32.5q10 12 33 13t27 -22q0 -10 -7 -15t-15.5 -5t-14.5 4t-6 14q-12 -4 -12 -14t7 -20.5t17 -19.5t17 -11q14 -4 34.5 -4t30.5 10q20 20 16 40.5t-19 38t-35.5 32 t-31.5 24.5q-18 16 -30.5 42t-12.5 52.5t13.5 48t44.5 27.5q27 6 54.5 4t51.5 -2l-6 -10q0 -14 7 -29.5t13.5 -31t5.5 -29.5t-16 -27q-14 -10 -33.5 -9t-21.5 22q0 12 7 17t15.5 5t14.5 -5t4 -13q14 2 14 12t-8 21.5t-18.5 20.5t-18.5 11q-14 4 -32.5 1t-24.5 -19 q-12 -25 -4 -43.5t24.5 -32.5t37 -27.5t32.5 -27.5q14 -20 22.5 -47t4.5 -52.5t-20.5 -44t-47.5 -22.5q-27 -2 -53.5 -1t-54.5 1q8 4 5 19.5t-8.5 33.5t-8.5 37.5zM866 -266h41q-4 23 -9 46t-11 46zM874 1014q4 -12 16.5 -10t14.5 14q2 18 -10 43q-6 -8 -14.5 -22.5 t-6.5 -24.5zM991 1059l4 -15q10 -14 25 -6q16 4 23.5 21.5t3.5 34.5q-2 10 -9.5 16t-21.5 -4q-20 -14 -25 -47zM997 4q12 14 15.5 36.5t2.5 47.5t-4 48.5t-3 39.5v127q0 16 1 29.5t-12 29.5h76q-10 -10 -13 -30.5t-2 -42t3 -43t2 -35.5v-166h104q23 0 55.5 -3t55.5 13 q-4 -8 -7 -29.5t-14 -21.5h-260zM1006 -135q29 4 64.5 6t62.5 -14q31 -23 22.5 -58t-37.5 -49q14 -6 21.5 -19.5t10.5 -28.5t5 -30.5t8 -27.5h-51q-6 12 -8 27.5t-6 28.5t-12.5 22.5t-26.5 7.5v-86h-53v221zM1057 -196.5q2 -24.5 2 -34.5h12q18 0 26.5 10t6.5 22.5 t-11.5 21.5t-27.5 7q-10 -2 -8 -26.5zM1065 416q10 12 11 25.5t1 27.5v248q0 14 -1 30.5t-11 28.5h127q25 -25 25.5 -59.5t-9.5 -67.5q-4 -8 -15 -29.5t-20.5 -45t-11.5 -45t10 -27.5q-6 12 4.5 13t21.5 -4t14 -14.5t-17 -17.5q-25 -10 -35 9.5t-8 35.5q0 16 6 32.5t8 31 t-4 22.5t-28 6v-155q16 0 41.5 -3t44.5 11q-6 -14 -8.5 -26.5t-6.5 -26.5h-139zM1098 362h78q-12 -29 2 -65.5t26 -60.5q12 29 22.5 62.5t0.5 63.5h80q-23 -12 -27 -38.5t-10 -47.5q-6 -20 -23.5 -47.5t-17.5 -48.5q0 -23 -3 -56.5t13 -51.5h-76q18 18 14.5 53.5t-3.5 58.5 q-12 23 -21.5 46.5t-17.5 45.5q-10 23 -14.5 46.5t-22.5 39.5zM1133 662q20 0 45.5 2t27.5 32q0 16 -7 23.5t-18.5 10.5t-24.5 3h-23v-71zM1192 -133h53v-223h-53v223zM1245 1092q-4 -10 1 -27.5t22 -3.5q12 12 21 33t11 39q-2 8 -4 13t-12 1q-16 -8 -25.5 -23.5 t-13.5 -31.5zM1274 -328q0 14 9 22.5t21.5 8.5t21.5 -8t9 -23q0 -16 -9 -23t-21.5 -7t-21.5 7t-9 23zM1294 813q-8 -6 4 -8q27 -10 57.5 -13.5t62.5 -3.5h62.5t59.5 -2t57.5 -5t57.5 -13q29 -8 51.5 -23.5t48.5 -27.5q0 61 -21.5 106t-80.5 68q35 31 69.5 58.5t75.5 43.5 q-49 47 -110.5 77t-126.5 46q-2 -57 -3.5 -112.5t-5.5 -112.5l-2 2v-6q-27 -2 -64.5 -4t-74.5 -9.5t-68.5 -21.5t-48.5 -39zM1364 -133h57l68 -152q-4 39 -4 77v75h47v-223h-51q-20 39 -37 78.5t-35 76.5q2 -39 2 -77.5v-77.5h-47v223zM1393 1157q16 20 31.5 40t19.5 46h-2 q-37 -37 -49 -86zM1562.5 -268q-8.5 37 14.5 80q12 29 40 43t62 14h10.5t17.5 -2t16.5 -4t7.5 -4l-9 -41q-27 12 -48 8t-36.5 -18.5t-20.5 -37t3 -46.5q16 -47 61 -41q10 2 8.5 21.5t-1.5 27.5h-27v41h76v-121q-41 -16 -79 -9t-62.5 29.5t-33 59.5z" />
<glyph unicode="8" d="M35 813q70 37 137.5 67.5t144.5 53.5q4 0 8.5 20.5t8.5 45t8 48t8 31.5q23 35 68 53.5t78 34.5q88 35 179 61.5t183 51.5q94 23 188.5 39t190.5 24q33 4 80 8.5t95 3.5t92 -12.5t71 -37.5q2 -4 -2 -29t-6 -33l-6 -98q0 -4 4 -4q78 -23 152.5 -58.5t123.5 -103.5v-2 q-16 4 -36.5 -3t-41 -20.5t-38 -28t-27.5 -26.5q31 -16 50 -47t27.5 -66.5t6.5 -72.5t-13 -68q-16 43 -49.5 66.5t-74.5 35t-85 14.5t-83 5q-45 4 -94.5 2t-92.5 14q-16 6 -22 25.5t-7 43t2 46.5t5 37q-184 -14 -363.5 -56t-351.5 -102q-8 -2 -8 -6q2 -10 8 -33.5t10 -50.5 t6 -49.5t-6 -28.5q-23 -18 -58.5 -21t-64.5 -7q-39 -6 -78.5 -12.5t-78.5 -12.5q-35 -8 -67 -17.5t-62 -21.5q-14 -8 -28.5 -13t-29.5 -16q-8 -8 -18 -20t-17 -16q10 35 24.5 67.5t27.5 63.5q2 6 13 25.5t21.5 41t18.5 39t6 21.5q-25 35 -58.5 67.5t-78.5 36.5zM86 -133h47 q4 -41 7 -83t12 -83q4 41 10 83t14 83h37l25 -166q4 41 9 83t9 83h43l-43 -223h-43q-6 37 -11 73.5t-9 73.5q-4 -37 -11.5 -73.5t-13.5 -73.5h-43zM90 819q68 -37 109 -108q2 -2 -4.5 -15.5t-14.5 -29t-15 -28.5t-9 -20q-25 -45 -41 -94q51 27 104 39t108.5 20.5t110 15.5 t107.5 24q-18 18 -47 25t-62 8t-65.5 -2t-55.5 -5v131t4 131q-59 -16 -116.5 -39.5t-112.5 -52.5zM305 -133h45q4 -41 8 -83t11 -83q4 41 10 83t14 83h39l23 -166q4 41 9 83t9 83h43l-43 -223h-41q-8 37 -13 73.5t-9 73.5q-4 -37 -10.5 -73.5t-12.5 -73.5h-45zM342 709 q8 0 22.5 6t29 15t27.5 18.5t23 13.5q37 16 75 29.5t77 27.5q78 23 155.5 43.5t159.5 38.5q78 16 155 31.5t157 21.5q72 8 154.5 11.5t152.5 -29.5q6 55 6 112.5t4 110.5q0 29 2 57.5t6 57.5q2 14 -6 22.5t-20.5 13.5t-26.5 7t-27 4q-119 18 -245.5 1t-245.5 -42 q-129 -27 -255 -60.5t-249 -86.5q-23 -12 -46.5 -24.5t-43.5 -29.5q-20 -16 -24.5 -49t-8.5 -55q-8 -66 -8 -132.5v-133.5zM367 825q0 23 15 38.5t36 19.5q6 2 15 -2t5 -15q-12 -8 -22 -8q-12 -4 -16.5 -16.5t1.5 -22.5q4 -4 8.5 -5t8.5 -3q20 -2 33.5 11.5t22.5 34t13.5 41 t8.5 34.5q-27 -27 -62 -35q-27 -4 -43 12q-16 8 -16 37q0 27 12 51q27 61 86 99q12 6 25.5 12t27.5 10q10 4 21.5 12.5t21.5 10.5q12 -1 6 -13q12 0 21 -2q16 -2 27.5 -15t13.5 -32q6 -43 -23.5 -83t-66.5 -62q-18 -12 -27.5 -31.5t-18.5 -39t-20.5 -38t-34.5 -28.5 q-23 -16 -53 -11q-12 4 -20 14.5t-6 24.5zM405.5 937q2.5 -15 22.5 -15q31 0 49.5 19.5t30.5 47t18.5 58.5t10.5 51q-29 -6 -52.5 -23.5t-44.5 -38.5q-6 -6 -15 -25.5t-15.5 -39t-4 -34.5zM522 -133h45q4 -41 9.5 -83t9.5 -83q4 41 10 83t14 83h39l25 -166q2 41 7 83t11 83 h41l-41 -223h-43q-8 37 -12 73.5t-10 73.5q-4 -37 -10.5 -73.5t-12.5 -73.5h-43zM530 950q14 4 29.5 19.5t26 35t14.5 40t0 34.5q-6 23 -33 23q-14 -37 -20.5 -75t-16.5 -77zM582 138q2 34 2 61q0 20 -1 38.5t1 38.5q0 49 26.5 67.5t73.5 18.5q37 0 54.5 -20t23.5 -50 t4 -63.5t-2 -60.5v-80q0 -47 -26.5 -66.5t-71.5 -17.5q-39 0 -56.5 20.5t-23.5 50t-4 63.5zM628 952.5q-5 20.5 6 46t31.5 46t43.5 22.5q12 0 16 -10q8 -12 2 -29q-6 -23 -27.5 -40t-44.5 -21q2 -12 10.5 -13.5t17.5 3t17.5 10.5t12.5 10q25 20 36 46t21 52q2 2 -1 9.5 t-8 15.5t-8 17t-1 16q10 27 34 22q12 0 17 -12q4 -10 2 -22.5t-2 -24.5q20 2 28.5 -1t-4.5 -28q-8 -16 -17 -33.5t-11 -36.5q0 -10 6 -10q20 0 34.5 20.5t26 46t22.5 51t25 34.5q8 2 17 -2q2 -4 2 -13q-4 -12 -10.5 -21t-1.5 -24q6 -12 13 -25.5t5 -27.5h2q20 25 32.5 60.5 t45.5 52.5q37 14 49 -21q10 -14 6 -25.5t-2 -27.5q8 2 14 10q16 12 18.5 35t8.5 41q4 4 11 5t12 -1q10 -2 8 -12v-2q10 10 24 16q10 6 17.5 2t11.5 -14q4 -12 1 -22.5t-8 -21.5t-10 -22.5t-3 -23.5q14 12 24 26.5t18.5 29.5t17.5 28.5t26 23.5q20 10 51 0q4 6 17 8.5 t9 -14.5q-4 -18 -14 -38.5t-10 -41.5q0 -14 8 -2q20 20 30.5 48t19.5 55.5t23.5 53t43.5 42.5q14 8 24 -8q12 -23 4 -48.5t-24 -41.5q-14 -18 -43 -44t-25 -53q4 -16 23 -12q14 6 21 19.5t16 25.5q4 2 12 2t8 -10l-4 -12q-16 -39 -53 -54q-25 -14 -43 15q-4 4 -4 10 q-10 -8 -16.5 -15.5t-18.5 -11.5q-10 -4 -16.5 0t-12.5 8q-4 -4 -12 -8t-16 -6q-31 -6 -43 21v2q-8 -10 -17.5 -17.5t-23.5 -11.5q-14 -8 -25 12q-6 12 -3 23.5t8 22t9 21.5t2 23q-18 -8 -25 -19t-11.5 -25.5t-6.5 -29t-8 -28.5q-6 -16 -24 -8q-8 2 -9 10q0 4 1 9t1 7 q-14 -4 -19 -4t-15 -10t-24.5 -18.5t-31.5 -8.5q-10 2 -16 8.5t-10 14.5q-16 -16 -40 -32.5t-50 -12.5q-16 2 -25 18q-25 -29 -51 -36q-29 -12 -33 20q-4 27 8.5 44t22.5 38q2 4 -3 5t-7 -3q-8 -20 -18.5 -44t-26 -45.5t-36 -34.5t-46.5 -11q-31 2 -36 22.5zM638 163 q-1 -38 1 -75q0 -16 9 -26.5t21.5 -14.5t24 1t15.5 24q2 12 2 27.5v29.5v147q0 16 -10.5 27.5t-22.5 16t-23.5 -2t-15.5 -22.5q-2 -14 -1 -29.5t1 -27.5q0 -37 -1 -75zM653 416q12 14 15.5 36.5t2.5 48t-4 49t-3 42.5v125q0 16 1 30.5t-12 28.5h76q-14 -12 -12 -32.5 t2 -36.5v-142q0 -16 -2 -49t10 -47q14 -23 37.5 -8.5t28.5 33.5q8 27 2.5 54t-9.5 54q-4 14 -10 38t-8 48.5t2 46t21 33.5q10 10 31.5 10t29.5 -16q6 -16 -2 -21.5t-18.5 -4.5t-17.5 8.5t1 15.5q-16 -8 -17 -28.5t6 -44t17 -46.5t15 -35q12 -37 17 -87t-22 -85 q-10 -14 -33.5 -19t-50 -5t-53 3t-41.5 3zM655 987q12 -2 28.5 15.5t18.5 27.5q4 8 -2 12.5t-12 -2.5q-10 -10 -18.5 -24.5t-14.5 -28.5zM715 -328q0 14 9 22.5t21.5 8.5t21.5 -8t9 -23q0 -16 -9 -23t-21.5 -7t-21.5 7t-9 23zM776 1124q-2 -8 4 -20h4q0 8 1 13t-1 13 q-6 0 -8 -6zM780 4q10 14 13.5 34.5t2.5 44t-4.5 46.5t-3.5 39v172q0 10 -8 22h58q29 -12 51 -50t35 -66q0 25 2 59.5t-13 56.5h74q-12 -10 -11 -24t1 -29v-246q0 -14 -1 -31.5t11 -27.5h-207zM797 -356l59 223h64l59 -223h-51l-15 51h-53l-10 -51h-53zM844 47 q0 -14 11 -23.5t25.5 -11.5t28 3.5t15.5 19.5q-4 63 -21.5 127.5t-58.5 116.5v-232zM865 506.5q-3 19.5 7 32.5q10 12 33 13t27 -22q0 -10 -7 -15t-15.5 -5t-14.5 4t-6 14q-12 -4 -12 -14t7 -20.5t17 -19.5t17 -11q14 -4 34.5 -4t30.5 10q20 20 16 40.5t-19 38t-35.5 32 t-31.5 24.5q-18 16 -30.5 42t-12.5 52.5t13.5 48t44.5 27.5q27 6 54.5 4t51.5 -2l-6 -10q0 -14 7 -29.5t13.5 -31t5.5 -29.5t-16 -27q-14 -10 -33.5 -9t-21.5 22q0 12 7 17t15.5 5t14.5 -5t4 -13q14 2 14 12t-8 21.5t-18.5 20.5t-18.5 11q-14 4 -32.5 1t-24.5 -19 q-12 -25 -4 -43.5t24.5 -32.5t37 -27.5t32.5 -27.5q14 -20 22.5 -47t4.5 -52.5t-20.5 -44t-47.5 -22.5q-27 -2 -53.5 -1t-54.5 1q8 4 5 19.5t-8.5 33.5t-8.5 37.5zM866 -266h41q-4 23 -9 46t-11 46zM874 1014q4 -12 16.5 -10t14.5 14q2 18 -10 43q-6 -8 -14.5 -22.5 t-6.5 -24.5zM991 1059l4 -15q10 -14 25 -6q16 4 23.5 21.5t3.5 34.5q-2 10 -9.5 16t-21.5 -4q-20 -14 -25 -47zM997 4q12 14 15.5 36.5t2.5 47.5t-4 48.5t-3 39.5v127q0 16 1 29.5t-12 29.5h76q-10 -10 -13 -30.5t-2 -42t3 -43t2 -35.5v-166h104q23 0 55.5 -3t55.5 13 q-4 -8 -7 -29.5t-14 -21.5h-260zM1006 -135q29 4 64.5 6t62.5 -14q31 -23 22.5 -58t-37.5 -49q14 -6 21.5 -19.5t10.5 -28.5t5 -30.5t8 -27.5h-51q-6 12 -8 27.5t-6 28.5t-12.5 22.5t-26.5 7.5v-86h-53v221zM1057 -196.5q2 -24.5 2 -34.5h12q18 0 26.5 10t6.5 22.5 t-11.5 21.5t-27.5 7q-10 -2 -8 -26.5zM1065 416q10 12 11 25.5t1 27.5v248q0 14 -1 30.5t-11 28.5h127q25 -25 25.5 -59.5t-9.5 -67.5q-4 -8 -15 -29.5t-20.5 -45t-11.5 -45t10 -27.5q-6 12 4.5 13t21.5 -4t14 -14.5t-17 -17.5q-25 -10 -35 9.5t-8 35.5q0 16 6 32.5t8 31 t-4 22.5t-28 6v-155q16 0 41.5 -3t44.5 11q-6 -14 -8.5 -26.5t-6.5 -26.5h-139zM1098 362h78q-12 -29 2 -65.5t26 -60.5q12 29 22.5 62.5t0.5 63.5h80q-23 -12 -27 -38.5t-10 -47.5q-6 -20 -23.5 -47.5t-17.5 -48.5q0 -23 -3 -56.5t13 -51.5h-76q18 18 14.5 53.5t-3.5 58.5 q-12 23 -21.5 46.5t-17.5 45.5q-10 23 -14.5 46.5t-22.5 39.5zM1133 662q20 0 45.5 2t27.5 32q0 16 -7 23.5t-18.5 10.5t-24.5 3h-23v-71zM1192 -133h53v-223h-53v223zM1245 1092q-4 -10 1 -27.5t22 -3.5q12 12 21 33t11 39q-2 8 -4 13t-12 1q-16 -8 -25.5 -23.5 t-13.5 -31.5zM1274 -328q0 14 9 22.5t21.5 8.5t21.5 -8t9 -23q0 -16 -9 -23t-21.5 -7t-21.5 7t-9 23zM1294 813q-8 -6 4 -8q27 -10 57.5 -13.5t62.5 -3.5h62.5t59.5 -2t57.5 -5t57.5 -13q29 -8 51.5 -23.5t48.5 -27.5q0 61 -21.5 106t-80.5 68q35 31 69.5 58.5t75.5 43.5 q-49 47 -110.5 77t-126.5 46q-2 -57 -3.5 -112.5t-5.5 -112.5l-2 2v-6q-27 -2 -64.5 -4t-74.5 -9.5t-68.5 -21.5t-48.5 -39zM1364 -133h57l68 -152q-4 39 -4 77v75h47v-223h-51q-20 39 -37 78.5t-35 76.5q2 -39 2 -77.5v-77.5h-47v223zM1393 1157q16 20 31.5 40t19.5 46h-2 q-37 -37 -49 -86zM1562.5 -268q-8.5 37 14.5 80q12 29 40 43t62 14h10.5t17.5 -2t16.5 -4t7.5 -4l-9 -41q-27 12 -48 8t-36.5 -18.5t-20.5 -37t3 -46.5q16 -47 61 -41q10 2 8.5 21.5t-1.5 27.5h-27v41h76v-121q-41 -16 -79 -9t-62.5 29.5t-33 59.5z" />
<glyph unicode="9" d="M35 813q70 37 137.5 67.5t144.5 53.5q4 0 8.5 20.5t8.5 45t8 48t8 31.5q23 35 68 53.5t78 34.5q88 35 179 61.5t183 51.5q94 23 188.5 39t190.5 24q33 4 80 8.5t95 3.5t92 -12.5t71 -37.5q2 -4 -2 -29t-6 -33l-6 -98q0 -4 4 -4q78 -23 152.5 -58.5t123.5 -103.5v-2 q-16 4 -36.5 -3t-41 -20.5t-38 -28t-27.5 -26.5q31 -16 50 -47t27.5 -66.5t6.5 -72.5t-13 -68q-16 43 -49.5 66.5t-74.5 35t-85 14.5t-83 5q-45 4 -94.5 2t-92.5 14q-16 6 -22 25.5t-7 43t2 46.5t5 37q-184 -14 -363.5 -56t-351.5 -102q-8 -2 -8 -6q2 -10 8 -33.5t10 -50.5 t6 -49.5t-6 -28.5q-23 -18 -58.5 -21t-64.5 -7q-39 -6 -78.5 -12.5t-78.5 -12.5q-35 -8 -67 -17.5t-62 -21.5q-14 -8 -28.5 -13t-29.5 -16q-8 -8 -18 -20t-17 -16q10 35 24.5 67.5t27.5 63.5q2 6 13 25.5t21.5 41t18.5 39t6 21.5q-25 35 -58.5 67.5t-78.5 36.5zM86 -133h47 q4 -41 7 -83t12 -83q4 41 10 83t14 83h37l25 -166q4 41 9 83t9 83h43l-43 -223h-43q-6 37 -11 73.5t-9 73.5q-4 -37 -11.5 -73.5t-13.5 -73.5h-43zM90 819q68 -37 109 -108q2 -2 -4.5 -15.5t-14.5 -29t-15 -28.5t-9 -20q-25 -45 -41 -94q51 27 104 39t108.5 20.5t110 15.5 t107.5 24q-18 18 -47 25t-62 8t-65.5 -2t-55.5 -5v131t4 131q-59 -16 -116.5 -39.5t-112.5 -52.5zM305 -133h45q4 -41 8 -83t11 -83q4 41 10 83t14 83h39l23 -166q4 41 9 83t9 83h43l-43 -223h-41q-8 37 -13 73.5t-9 73.5q-4 -37 -10.5 -73.5t-12.5 -73.5h-45zM342 709 q8 0 22.5 6t29 15t27.5 18.5t23 13.5q37 16 75 29.5t77 27.5q78 23 155.5 43.5t159.5 38.5q78 16 155 31.5t157 21.5q72 8 154.5 11.5t152.5 -29.5q6 55 6 112.5t4 110.5q0 29 2 57.5t6 57.5q2 14 -6 22.5t-20.5 13.5t-26.5 7t-27 4q-119 18 -245.5 1t-245.5 -42 q-129 -27 -255 -60.5t-249 -86.5q-23 -12 -46.5 -24.5t-43.5 -29.5q-20 -16 -24.5 -49t-8.5 -55q-8 -66 -8 -132.5v-133.5zM367 825q0 23 15 38.5t36 19.5q6 2 15 -2t5 -15q-12 -8 -22 -8q-12 -4 -16.5 -16.5t1.5 -22.5q4 -4 8.5 -5t8.5 -3q20 -2 33.5 11.5t22.5 34t13.5 41 t8.5 34.5q-27 -27 -62 -35q-27 -4 -43 12q-16 8 -16 37q0 27 12 51q27 61 86 99q12 6 25.5 12t27.5 10q10 4 21.5 12.5t21.5 10.5q12 -1 6 -13q12 0 21 -2q16 -2 27.5 -15t13.5 -32q6 -43 -23.5 -83t-66.5 -62q-18 -12 -27.5 -31.5t-18.5 -39t-20.5 -38t-34.5 -28.5 q-23 -16 -53 -11q-12 4 -20 14.5t-6 24.5zM405.5 937q2.5 -15 22.5 -15q31 0 49.5 19.5t30.5 47t18.5 58.5t10.5 51q-29 -6 -52.5 -23.5t-44.5 -38.5q-6 -6 -15 -25.5t-15.5 -39t-4 -34.5zM522 -133h45q4 -41 9.5 -83t9.5 -83q4 41 10 83t14 83h39l25 -166q2 41 7 83t11 83 h41l-41 -223h-43q-8 37 -12 73.5t-10 73.5q-4 -37 -10.5 -73.5t-12.5 -73.5h-43zM530 950q14 4 29.5 19.5t26 35t14.5 40t0 34.5q-6 23 -33 23q-14 -37 -20.5 -75t-16.5 -77zM582 138q2 34 2 61q0 20 -1 38.5t1 38.5q0 49 26.5 67.5t73.5 18.5q37 0 54.5 -20t23.5 -50 t4 -63.5t-2 -60.5v-80q0 -47 -26.5 -66.5t-71.5 -17.5q-39 0 -56.5 20.5t-23.5 50t-4 63.5zM628 952.5q-5 20.5 6 46t31.5 46t43.5 22.5q12 0 16 -10q8 -12 2 -29q-6 -23 -27.5 -40t-44.5 -21q2 -12 10.5 -13.5t17.5 3t17.5 10.5t12.5 10q25 20 36 46t21 52q2 2 -1 9.5 t-8 15.5t-8 17t-1 16q10 27 34 22q12 0 17 -12q4 -10 2 -22.5t-2 -24.5q20 2 28.5 -1t-4.5 -28q-8 -16 -17 -33.5t-11 -36.5q0 -10 6 -10q20 0 34.5 20.5t26 46t22.5 51t25 34.5q8 2 17 -2q2 -4 2 -13q-4 -12 -10.5 -21t-1.5 -24q6 -12 13 -25.5t5 -27.5h2q20 25 32.5 60.5 t45.5 52.5q37 14 49 -21q10 -14 6 -25.5t-2 -27.5q8 2 14 10q16 12 18.5 35t8.5 41q4 4 11 5t12 -1q10 -2 8 -12v-2q10 10 24 16q10 6 17.5 2t11.5 -14q4 -12 1 -22.5t-8 -21.5t-10 -22.5t-3 -23.5q14 12 24 26.5t18.5 29.5t17.5 28.5t26 23.5q20 10 51 0q4 6 17 8.5 t9 -14.5q-4 -18 -14 -38.5t-10 -41.5q0 -14 8 -2q20 20 30.5 48t19.5 55.5t23.5 53t43.5 42.5q14 8 24 -8q12 -23 4 -48.5t-24 -41.5q-14 -18 -43 -44t-25 -53q4 -16 23 -12q14 6 21 19.5t16 25.5q4 2 12 2t8 -10l-4 -12q-16 -39 -53 -54q-25 -14 -43 15q-4 4 -4 10 q-10 -8 -16.5 -15.5t-18.5 -11.5q-10 -4 -16.5 0t-12.5 8q-4 -4 -12 -8t-16 -6q-31 -6 -43 21v2q-8 -10 -17.5 -17.5t-23.5 -11.5q-14 -8 -25 12q-6 12 -3 23.5t8 22t9 21.5t2 23q-18 -8 -25 -19t-11.5 -25.5t-6.5 -29t-8 -28.5q-6 -16 -24 -8q-8 2 -9 10q0 4 1 9t1 7 q-14 -4 -19 -4t-15 -10t-24.5 -18.5t-31.5 -8.5q-10 2 -16 8.5t-10 14.5q-16 -16 -40 -32.5t-50 -12.5q-16 2 -25 18q-25 -29 -51 -36q-29 -12 -33 20q-4 27 8.5 44t22.5 38q2 4 -3 5t-7 -3q-8 -20 -18.5 -44t-26 -45.5t-36 -34.5t-46.5 -11q-31 2 -36 22.5zM638 163 q-1 -38 1 -75q0 -16 9 -26.5t21.5 -14.5t24 1t15.5 24q2 12 2 27.5v29.5v147q0 16 -10.5 27.5t-22.5 16t-23.5 -2t-15.5 -22.5q-2 -14 -1 -29.5t1 -27.5q0 -37 -1 -75zM653 416q12 14 15.5 36.5t2.5 48t-4 49t-3 42.5v125q0 16 1 30.5t-12 28.5h76q-14 -12 -12 -32.5 t2 -36.5v-142q0 -16 -2 -49t10 -47q14 -23 37.5 -8.5t28.5 33.5q8 27 2.5 54t-9.5 54q-4 14 -10 38t-8 48.5t2 46t21 33.5q10 10 31.5 10t29.5 -16q6 -16 -2 -21.5t-18.5 -4.5t-17.5 8.5t1 15.5q-16 -8 -17 -28.5t6 -44t17 -46.5t15 -35q12 -37 17 -87t-22 -85 q-10 -14 -33.5 -19t-50 -5t-53 3t-41.5 3zM655 987q12 -2 28.5 15.5t18.5 27.5q4 8 -2 12.5t-12 -2.5q-10 -10 -18.5 -24.5t-14.5 -28.5zM715 -328q0 14 9 22.5t21.5 8.5t21.5 -8t9 -23q0 -16 -9 -23t-21.5 -7t-21.5 7t-9 23zM776 1124q-2 -8 4 -20h4q0 8 1 13t-1 13 q-6 0 -8 -6zM780 4q10 14 13.5 34.5t2.5 44t-4.5 46.5t-3.5 39v172q0 10 -8 22h58q29 -12 51 -50t35 -66q0 25 2 59.5t-13 56.5h74q-12 -10 -11 -24t1 -29v-246q0 -14 -1 -31.5t11 -27.5h-207zM797 -356l59 223h64l59 -223h-51l-15 51h-53l-10 -51h-53zM844 47 q0 -14 11 -23.5t25.5 -11.5t28 3.5t15.5 19.5q-4 63 -21.5 127.5t-58.5 116.5v-232zM865 506.5q-3 19.5 7 32.5q10 12 33 13t27 -22q0 -10 -7 -15t-15.5 -5t-14.5 4t-6 14q-12 -4 -12 -14t7 -20.5t17 -19.5t17 -11q14 -4 34.5 -4t30.5 10q20 20 16 40.5t-19 38t-35.5 32 t-31.5 24.5q-18 16 -30.5 42t-12.5 52.5t13.5 48t44.5 27.5q27 6 54.5 4t51.5 -2l-6 -10q0 -14 7 -29.5t13.5 -31t5.5 -29.5t-16 -27q-14 -10 -33.5 -9t-21.5 22q0 12 7 17t15.5 5t14.5 -5t4 -13q14 2 14 12t-8 21.5t-18.5 20.5t-18.5 11q-14 4 -32.5 1t-24.5 -19 q-12 -25 -4 -43.5t24.5 -32.5t37 -27.5t32.5 -27.5q14 -20 22.5 -47t4.5 -52.5t-20.5 -44t-47.5 -22.5q-27 -2 -53.5 -1t-54.5 1q8 4 5 19.5t-8.5 33.5t-8.5 37.5zM866 -266h41q-4 23 -9 46t-11 46zM874 1014q4 -12 16.5 -10t14.5 14q2 18 -10 43q-6 -8 -14.5 -22.5 t-6.5 -24.5zM991 1059l4 -15q10 -14 25 -6q16 4 23.5 21.5t3.5 34.5q-2 10 -9.5 16t-21.5 -4q-20 -14 -25 -47zM997 4q12 14 15.5 36.5t2.5 47.5t-4 48.5t-3 39.5v127q0 16 1 29.5t-12 29.5h76q-10 -10 -13 -30.5t-2 -42t3 -43t2 -35.5v-166h104q23 0 55.5 -3t55.5 13 q-4 -8 -7 -29.5t-14 -21.5h-260zM1006 -135q29 4 64.5 6t62.5 -14q31 -23 22.5 -58t-37.5 -49q14 -6 21.5 -19.5t10.5 -28.5t5 -30.5t8 -27.5h-51q-6 12 -8 27.5t-6 28.5t-12.5 22.5t-26.5 7.5v-86h-53v221zM1057 -196.5q2 -24.5 2 -34.5h12q18 0 26.5 10t6.5 22.5 t-11.5 21.5t-27.5 7q-10 -2 -8 -26.5zM1065 416q10 12 11 25.5t1 27.5v248q0 14 -1 30.5t-11 28.5h127q25 -25 25.5 -59.5t-9.5 -67.5q-4 -8 -15 -29.5t-20.5 -45t-11.5 -45t10 -27.5q-6 12 4.5 13t21.5 -4t14 -14.5t-17 -17.5q-25 -10 -35 9.5t-8 35.5q0 16 6 32.5t8 31 t-4 22.5t-28 6v-155q16 0 41.5 -3t44.5 11q-6 -14 -8.5 -26.5t-6.5 -26.5h-139zM1098 362h78q-12 -29 2 -65.5t26 -60.5q12 29 22.5 62.5t0.5 63.5h80q-23 -12 -27 -38.5t-10 -47.5q-6 -20 -23.5 -47.5t-17.5 -48.5q0 -23 -3 -56.5t13 -51.5h-76q18 18 14.5 53.5t-3.5 58.5 q-12 23 -21.5 46.5t-17.5 45.5q-10 23 -14.5 46.5t-22.5 39.5zM1133 662q20 0 45.5 2t27.5 32q0 16 -7 23.5t-18.5 10.5t-24.5 3h-23v-71zM1192 -133h53v-223h-53v223zM1245 1092q-4 -10 1 -27.5t22 -3.5q12 12 21 33t11 39q-2 8 -4 13t-12 1q-16 -8 -25.5 -23.5 t-13.5 -31.5zM1274 -328q0 14 9 22.5t21.5 8.5t21.5 -8t9 -23q0 -16 -9 -23t-21.5 -7t-21.5 7t-9 23zM1294 813q-8 -6 4 -8q27 -10 57.5 -13.5t62.5 -3.5h62.5t59.5 -2t57.5 -5t57.5 -13q29 -8 51.5 -23.5t48.5 -27.5q0 61 -21.5 106t-80.5 68q35 31 69.5 58.5t75.5 43.5 q-49 47 -110.5 77t-126.5 46q-2 -57 -3.5 -112.5t-5.5 -112.5l-2 2v-6q-27 -2 -64.5 -4t-74.5 -9.5t-68.5 -21.5t-48.5 -39zM1364 -133h57l68 -152q-4 39 -4 77v75h47v-223h-51q-20 39 -37 78.5t-35 76.5q2 -39 2 -77.5v-77.5h-47v223zM1393 1157q16 20 31.5 40t19.5 46h-2 q-37 -37 -49 -86zM1562.5 -268q-8.5 37 14.5 80q12 29 40 43t62 14h10.5t17.5 -2t16.5 -4t7.5 -4l-9 -41q-27 12 -48 8t-36.5 -18.5t-20.5 -37t3 -46.5q16 -47 61 -41q10 2 8.5 21.5t-1.5 27.5h-27v41h76v-121q-41 -16 -79 -9t-62.5 29.5t-33 59.5z" />
<glyph unicode=":" horiz-adv-x="870" d="M125 82q-10 45 14.5 88t67.5 77t98 55.5t104.5 24.5t87.5 -16.5t46 -64.5q8 -41 -17.5 -79t-68.5 -69.5t-97.5 -52t-103.5 -26t-86 9t-45 53.5zM449 608q-10 45 14 88t67 77t98.5 55.5t104.5 24.5t87 -16.5t46 -64.5q8 -41 -17.5 -79t-68.5 -69.5t-97 -52t-103.5 -25.5 t-86 9t-44.5 53z" />
<glyph unicode=";" horiz-adv-x="870" d="M4 -92q-6 31 10 63q12 29 35 71t52.5 86t65.5 87t75 74q41 31 91 45t96 12t81 -21.5t45 -54.5q10 -37 -7.5 -68.5t-52 -60t-81.5 -55.5t-95.5 -53.5t-91.5 -54t-69 -60.5q-41 -49 -74 -59.5t-53.5 4t-26.5 45.5zM449 608q-10 45 14 88t67 77t98.5 55.5t104.5 24.5 t87 -16.5t46 -64.5q8 -41 -17.5 -79t-68.5 -69.5t-97 -52t-103.5 -25.5t-86 9t-44.5 53z" />
<glyph unicode="&#x3c;" horiz-adv-x="1200" d="M206.5 408.5q-1.5 27.5 17 57.5t57 58.5t94.5 44.5q43 12 103.5 32t124 44.5t124 50.5t107.5 49q45 23 79.5 14t48 -38t-1 -69t-65.5 -77q-33 -25 -100.5 -51t-135.5 -49q-82 -27 -172 -51q31 -29 60 -55q25 -23 49.5 -50.5t38.5 -50.5q27 -43 8.5 -80.5t-56.5 -58 t-84 -16.5t-73 47q-41 61 -92 120.5t-105 88.5q-25 12 -26.5 39.5z" />
<glyph unicode="=" horiz-adv-x="1011" d="M110.5 451.5q10.5 25.5 41 47t77.5 21.5q150 2 285 9.5t211 17.5q51 6 69.5 -15.5t7.5 -50t-51 -57.5t-104 -37q-51 -8 -112.5 -12t-124 -5t-125 1t-117.5 6q-43 4 -55.5 26.5t-2 48zM225.5 654.5q10.5 25.5 41 47t77.5 21.5q76 0 148.5 3t137 6t119 8t91.5 10 q51 6 69.5 -14.5t8 -50.5t-50.5 -58.5t-105 -36.5q-51 -6 -111.5 -10.5t-123 -6.5t-125 0t-117.5 7q-43 4 -56.5 26.5t-3 48z" />
<glyph unicode="&#x3e;" horiz-adv-x="1200" d="M179.5 153.5q-13.5 28.5 1 68.5t65.5 77q33 23 99.5 50.5t135.5 49.5q80 27 172 52q-31 29 -59 55q-25 23 -49.5 50.5t-38.5 49.5q-27 43 -8.5 81t56.5 58.5t83 16.5t74 -47q41 -61 92 -120.5t104 -88.5q25 -12 26 -40t-17.5 -57.5t-56.5 -58t-93 -45.5 q-43 -12 -103.5 -31.5t-124 -44t-125 -51t-106.5 -49.5t-79.5 -13.5t-48 38z" />
<glyph unicode="?" horiz-adv-x="1089" d="M88 74q-10 45 14.5 88t67.5 76.5t98.5 55t104.5 25t87 -16t46 -64.5q8 -41 -17.5 -79t-68.5 -70t-97.5 -52.5t-103.5 -25.5t-86 9.5t-45 53.5zM375 500q14 61 60 110t112.5 90t145.5 75t159 63.5t152.5 58.5t127 59.5t82 64.5t15.5 75q-14 51 -64.5 69.5t-118 12 t-140 -31t-130 -58t-90 -73.5t-18.5 -75q14 -37 -6.5 -74t-56.5 -58.5t-74.5 -16t-59.5 52.5q-27 61 -5.5 127.5t77 128t138.5 116t176 92.5t189.5 56t182.5 9t151.5 -49t98.5 -118q35 -86 15.5 -154.5t-74 -124t-136.5 -100.5t-174 -82.5t-184 -70.5t-168 -63.5t-127 -62.5 t-60 -69q-10 -41 -46 -60.5t-72.5 -17.5t-63.5 27t-14 72z" />
<glyph unicode="@" horiz-adv-x="1931" d="M-112 7q-13 140 46.5 284.5t180.5 286t278.5 260t337.5 208t360.5 131.5t348.5 26.5t297 -103.5q94 -66 117.5 -172.5t-8 -228t-110.5 -246.5t-186.5 -225.5t-237.5 -164t-265 -63.5q-66 0 -92.5 30.5t-26.5 73.5t18.5 91.5t46.5 83.5q-66 -49 -146.5 -111t-167.5 -107 t-173 -58t-162 34q-61 39 -73.5 96t15 124t89 137.5t143.5 138t181.5 127t202 100.5t204.5 60.5t190 8.5q53 -6 66.5 -42.5t3.5 -77.5t-38 -71t-56 -22q-76 20 -170 -1t-190.5 -65t-183.5 -103.5t-147.5 -113.5t-84 -97t9.5 -56q27 -10 72 6.5t97 48t109.5 73.5t110.5 83 t97 75t71 50q49 29 104.5 39t97.5 4t57 -27.5t-15 -56.5q-31 -35 -65 -78t-58.5 -84t-33.5 -71.5t9 -36.5q37 -14 101.5 21.5t131 101t127 150.5t92 170t22.5 162t-81 126q-86 57 -207.5 59t-260 -36.5t-282 -111.5t-271.5 -166t-229 -199.5t-155.5 -211t-49.5 -202 t89 -170.5q74 -63 153 -77t150.5 -0.5t129 42t86.5 51.5q29 20 70.5 14t70 -31.5t34 -64.5t-39.5 -82q-31 -29 -90.5 -54.5t-135 -41.5t-161.5 -22.5t-168 4t-154 38t-119 76.5q-111 117 -124 257z" />
<glyph unicode="A" horiz-adv-x="2803" d="M6 -337q10 50 47 90q32 35 82 35q7 0 15 -1q28 -3 55 -3q79 0 159 22q108 28 219 84.5t223 136t226 174.5q-145 -41 -286.5 -84t-276.5 -88q-41 -14 -67 -14q-20 -1 -32 9q-17 13 -17 35q1 11 5 24q14 38 59 81.5t113 68.5q166 57 375 119t432 115q156 141 313.5 281.5 t315.5 257t316.5 200.5t316.5 111q99 17 178 17q29 0 57 -2q100 -8 153.5 -35t57.5 -65v-5q0 -35 -51 -70q-61 -41 -131 -101.5t-143.5 -133t-146 -152.5t-140.5 -160q20 -2 38.5 -4t35.5 -6q67 -16 99 -53q31 -36 31 -72q0 -37 -32 -65q-25 -22 -67 -22q-9 0 -19 1 q-61 6 -122.5 8t-125.5 2q-75 -104 -109 -179q-20 -44 -20 -70q0 -18 10 -27q12 -12 38 -12q12 0 26 2q46 8 104 31.5t125.5 60.5t134 75.5t125 74.5t99.5 63q60 39 112 43q8 1 16 1q39 0 55 -18q9 -10 9 -23q0 -16 -12 -39q-22 -42 -102 -93q-55 -35 -136.5 -90.5 t-173.5 -113.5t-189 -111.5t-187 -85.5q-90 -34 -164 -36h-7q-69 0 -112 42q-46 45 -46 119q0 35 10 77q32 130 142 299q-135 -10 -272 -31.5t-277 -50.5q-162 -147 -327.5 -287.5t-337.5 -250t-349 -175t-362 -65.5q-58 0 -78 42q-14 28 -13 60q0 16 3 32zM1735 551 q123 23 235.5 38t212.5 23q111 135 252 274.5t305 276.5q-121 -8 -244.5 -59t-248.5 -134t-253 -191.5t-259 -227.5z" />
<glyph unicode="B" horiz-adv-x="2203" d="M4 -128q-1 13 -1 26q1 44 19 71q24 35 64.5 35t81.5 -57q39 -55 128 -111.5t220 -89.5q117 -29 264 -30q18 0 36 1q169 4 370 66q199 63 301 151t131 172q13 37 13 72q0 42 -20 79q-36 67 -112 85q-100 -45 -197.5 -79t-175.5 -41q-17 -2 -33 -2q-57 0 -101 20 q-56 26 -70 100q-2 2 -2 10q-55 -53 -102.5 -104t-81.5 -99.5t-50 -91.5q-13 -34 -13 -65q0 -8 1 -15q1 -11 1 -21q0 -44 -29 -60q-20 -11 -41 -12q-17 0 -36 8q-41 16 -71 66q-18 30 -17 70q0 27 8 60q23 92 77.5 181t132 173t173 164t200 150.5t212 132t209.5 112.5 q45 22 84 22q11 0 23 -2q48 -9 70 -37q15 -19 15 -42q-1 -10 -3 -22q-10 -36 -64 -60q-23 -10 -68 -36.5t-105.5 -66.5t-132 -91.5t-147.5 -108.5q54 7 114 7q24 0 48 -1q86 -4 172 -22q111 29 223.5 90t198.5 135t127 152q23 43 23 81q0 31 -15 58q-26 47 -102 65 q-50 12 -117 13q-33 1 -73 -3q-114 -10 -264 -44.5t-322 -96t-363.5 -148.5t-388.5 -198q-30 -18 -62 -18q-16 1 -33 5q-50 14 -82 44q-35 34 -35 74q0 36 46 61q227 127 453.5 224t435.5 163t395 98q169 29 304 29q13 0 26 -1q145 -3 244.5 -45t138.5 -122q33 -70 34 -144 q-1 -17 -3 -34q-10 -92 -73 -183.5t-182.5 -179.5t-301.5 -168q73 -53 113 -143q24 -54 24 -114q0 -41 -10 -83q-26 -106 -139 -219.5t-343 -212.5q-154 -66 -300 -98.5t-280 -40.5q-46 -3 -89 -3q-85 0 -162 10q-117 16 -211 44.5t-163 69.5t-105 86q-56 68 -62 130z" />
<glyph unicode="C" horiz-adv-x="2019" d="M5 22q11 142 114 293q70 100 165 212t214.5 221.5t261 210t301.5 180.5t336 131t366 63q22 1 43 1q82 0 156 -18q92 -24 149.5 -74t70.5 -122q3 -15 3 -30q0 -59 -39 -129q-49 -88 -146 -155t-211 -109q-115 -43 -231 -61q-73 -12 -134 -11q-37 0 -70 4q-61 6 -102 43 q-42 36 -51 76q-2 10 -2 19q1 28 21 52q23 26 78 26q11 0 23 -1q55 -5 107 -5q81 0 151 12q115 19 195 57q82 38 126 85q46 48 45 90q1 40 -45 68q-46 29 -143 29q-170 0 -357.5 -73t-363.5 -189.5t-328.5 -260t-253.5 -285.5q-102 -142 -136 -266q-13 -47 -13 -87 q0 -66 35 -115q52 -72 152 -88q40 -7 86 -7q67 1 145 15q131 24 287.5 84.5t325.5 141.5t343 176.5t340 191.5q55 32 93 32h8q40 -4 51 -28q5 -10 5 -23q0 -17 -10 -39q-18 -38 -69 -71q-35 -23 -115.5 -75t-193.5 -118.5t-251 -140.5t-285.5 -140.5t-298 -118.5t-287.5 -75 q-100 -18 -186 -18q-104 0 -188 26q-154 47 -226 149q-63 89 -62 208q0 17 1 36z" />
<glyph unicode="D" horiz-adv-x="2430" d="M6 -35q-4 19 -4 35q0 35 18 60q26 36 66 42q8 1 17 2q33 0 68 -21q44 -26 67 -89q23 -61 62.5 -108.5t103.5 -77.5q63 -28 152 -42q62 -9 140 -10q35 0 72 2q129 6 269.5 49t278.5 114t269 163t242.5 194.5t196.5 209.5q86 106 132 206q48 103 47 193q0 87 -55 151 q-55 66 -142 94q-81 26 -180 25h-14q-108 -2 -232 -28.5t-250 -69.5t-252 -98.5t-237.5 -112.5t-204 -113.5t-155.5 -103.5q-25 -18 -46 -18q-7 1 -15 3q-26 10 -33 40q-1 7 -1 16q0 27 14 66q20 50 81 106q31 27 111 75t194.5 104t255 114.5t291 105.5t303 78t290.5 33h15 q129 0 240 -32q117 -34 195 -116q78 -80 87 -192q1 -18 1 -36q0 -96 -38 -203q-46 -128 -140.5 -264t-224.5 -266t-288.5 -246t-333.5 -204t-359.5 -139t-366.5 -51q-190 0 -320.5 33.5t-211.5 86t-122 116t-53 124.5zM713 109q6 45 40.5 116.5t89 157.5t123 177t145.5 177 t155.5 158t152.5 117q37 23 83 36t89 16q14 1 28 1q27 0 50 -4q35 -7 51 -21q9 -8 8 -19q0 -9 -4 -19q-12 -24 -59 -54q-68 -43 -154 -117.5t-175 -166t-174 -188.5t-151.5 -186t-107.5 -162t-41 -112q0 -43 -26 -60q-16 -10 -34 -10q-12 0 -24 4q-30 11 -53 51 q-16 27 -16 67q0 19 4 41z" />
<glyph unicode="E" horiz-adv-x="1705" d="M4 -62q0 3 -1 6q0 102 43 202q44 104 128 198t192.5 171t236.5 129t259 69q-27 32 -27 77q0 9 1 19q4 47 46 121t156 172q76 66 170.5 114t190.5 78q96 32 190 44q59 8 111 7q32 -1 61 -3q78 -8 133.5 -34t75.5 -73q18 -44 18 -86q0 -27 -8 -53q-18 -66 -67 -119 t-119 -93t-139 -61q-39 -11 -74 -11q-27 0 -52 6q-56 16 -85 46q-24 25 -24 54q0 6 2 13q6 36 63 54q61 20 116.5 38.5t94.5 39t54 44t-5 56.5q-27 41 -89 41h-12q-72 -4 -159.5 -37.5t-181 -91t-163.5 -121.5q-69 -64 -105 -126q-21 -36 -21 -67q0 -21 10 -38q25 1 50 1 q50 0 98 -5q72 -8 127 -29.5t83 -54.5q19 -22 20 -49q0 -13 -5 -27q-13 -43 -65 -59q-38 -11 -83 -11q-17 -1 -33 1q-64 6 -128 27.5t-105 51.5q-106 -8 -207.5 -48t-189.5 -98t-159 -130t-116 -143.5t-59 -135.5q-5 -24 -6 -45q0 -36 16 -65q33 -62 117 -70q18 -2 38 -1 q71 -1 163 23q118 30 260.5 92t292 140t297 164t276.5 166q41 25 77 25q3 -1 7 -1q39 -2 56.5 -23.5t5 -56t-67.5 -73.5q-129 -90 -290 -192.5t-332 -197t-340 -167.5q-170 -72 -318 -104q-88 -19 -164 -18q-52 0 -98 8q-114 22 -176 118q-60 96 -62 202z" />
<glyph unicode="F" horiz-adv-x="1712" d="M10 -10q12 32 66 59q123 61 236.5 113.5t217.5 95.5q63 82 134 159t140.5 146.5t135.5 130t121 107.5q-115 -47 -215.5 -90t-177 -79t-126.5 -60.5t-63 -32.5q-23 -14 -42 -14q-11 1 -21 5q-26 14 -32 44q-2 9 -2 19q0 23 10 50q16 39 63 64q213 117 432 218t429 182 t404 137t356 81q114 18 209 18q40 1 77 -3q124 -10 196 -64q68 -48 81 -104q6 -24 6 -45q-1 -28 -11 -51q-18 -40 -52 -55q-12 -5 -23 -5q-21 0 -40 18q-61 60 -179 74q-47 5 -99 6q-79 0 -171 -12q-152 -20 -325.5 -68.5t-347.5 -107.5q5 -10 5 -20q0 -20 -20 -40 q-111 -111 -239.5 -228.5t-251.5 -248.5q236 72 386 85q45 4 81 4q83 0 115 -21q39 -27 43 -63q1 -6 1 -12q1 -28 -17 -52q-20 -28 -58 -44q-20 -8 -43 -9q-19 0 -39 6q-31 8 -75 8q-22 0 -46 -2q-74 -6 -163 -25.5t-188.5 -49.5t-197.5 -64q-92 -123 -155.5 -252 t-85.5 -271q-6 -41 -43 -50q-12 -3 -24 -3q-25 0 -51 12q-39 18 -65 63q-17 29 -17 67q0 20 5 42q14 66 43 132.5t70 134.5q-96 -41 -162 -72t-84 -43q-23 -14 -45 -14q-10 0 -20 3q-32 9 -44 33q-7 13 -8 29q1 14 6 29z" />
<glyph unicode="G" horiz-adv-x="1964" d="M3 68q9 110 79 226t190.5 232.5t273 225t328 206t353.5 173t350 127t319 68.5q67 8 127 8q70 0 131 -11q111 -20 168 -88q47 -54 47 -116q0 -8 -1 -16q-7 -71 -59 -138.5t-141 -129t-198.5 -104.5t-232.5 -63q-71 -12 -141 -12q-52 0 -103 6q-70 8 -105.5 47t-38.5 81v7 q0 36 27 61q20 16 50 16q19 0 42 -6q39 -11 89 -11q24 0 51 3q82 8 166 30.5t160.5 56.5t124.5 72t57 75q2 5 2 11q0 29 -41 52q-42 24 -114 24q-32 0 -69 -5q-122 -15 -276 -67t-326 -135t-336.5 -182.5t-307 -208t-237 -213t-125.5 -197.5q-10 -32 -10 -62q0 -55 37 -99 q46 -52 129 -52q14 0 28 1q105 10 244.5 76.5t306.5 181.5t345 260q49 39 97 39h5q50 -2 81.5 -27.5t35.5 -63.5v-7q0 -34 -35 -62q-27 -20 -67.5 -66t-90 -107.5t-101.5 -134.5t-104 -146.5t-100.5 -144t-85.5 -128.5q-55 -86 -106 -99q-17 -4 -33 -4q-29 0 -52 16 q-34 26 -47 73q-5 17 -5 33q0 27 14 49q20 35 51 76t76 93t106.5 119.5t145.5 157.5q-76 -63 -173 -125.5t-202.5 -116t-212 -90t-201.5 -47.5q-33 -3 -63 -3q-59 0 -109 13q-77 21 -124 85q-64 85 -64 182q0 12 1 25z" />
<glyph unicode="H" horiz-adv-x="2344" d="M4 114q8 36 68 60q111 45 238.5 94t269.5 97q158 188 393 407t569 473q56 43 120 46h16q53 -1 88 -19q43 -23 43 -63q0 -37 -60 -76q-80 -53 -175 -124t-195.5 -154t-203 -176t-200.5 -192q199 53 393.5 91t376.5 47q135 166 311.5 335t399.5 312q70 45 146 52q23 2 44 2 q47 0 82 -10q52 -16 64 -46q2 -5 2 -11q0 -26 -50 -53q-156 -84 -340 -235.5t-370 -356.5q39 -6 76.5 -14t72.5 -18q45 -14 65 -45q18 -27 18 -54v-8q-4 -31 -30 -51q-18 -14 -47 -15q-13 0 -28 3q-72 10 -141.5 16t-137.5 10q-102 -123 -196.5 -258t-176.5 -280 q-29 -50 -63 -64q-17 -7 -32 -7q-16 1 -30 9q-28 16 -38 58q-3 13 -4 29q0 35 16 81q18 57 78.5 171t165.5 261q-240 -14 -451 -63t-385 -109q-80 -90 -146.5 -177t-114.5 -167t-75 -149.5t-27 -124.5q1 -35 -27 -43q-9 -3 -19 -3q-19 0 -41 11q-32 16 -54 55q-16 27 -17 64 q0 15 3 32q12 74 48 162t101 191q-78 -35 -130 -61.5t-74 -37.5q-32 -14 -62 -14q-19 0 -37 5q-48 13 -74 41q-18 21 -18 47q0 8 2 17z" />
<glyph unicode="I" horiz-adv-x="1763" d="M6 -193q10 51 48 87t78 48q18 6 34 6q20 0 36 -8q29 -15 29 -61v-6v-8q-1 -91 91 -99q9 -1 19 -1q95 0 269 83q94 45 192.5 130t194 190.5t185.5 222.5t170 226.5t146.5 201.5t113.5 150q-200 -139 -390 -218q-169 -70 -320 -70q-19 0 -38 1q-57 4 -95 35t-46 67 q-2 8 -2 16q1 26 21 49q26 30 98 32q143 4 282.5 44t261 97t221 121.5t162.5 116.5q59 47 128 61q40 8 74 8q24 0 45 -4q50 -10 68 -44q5 -10 5 -22q0 -27 -29 -61q-225 -268 -390 -501.5t-311.5 -427t-299 -342t-352.5 -246.5q-141 -71 -273 -89q-63 -9 -119 -8 q-63 0 -115 10q-100 20 -154 78q-42 44 -42 100q0 17 4 35z" />
<glyph unicode="J" horiz-adv-x="1763" d="M37 -184q33 55 94.5 102t142.5 82q145 59 298 99t280 75q139 154 299 338t336 389q-184 -50 -322 -50h-25q-145 5 -241 47t-147.5 106.5t-65.5 130.5q-5 22 -5 42q0 37 17 67q27 46 67 66q26 14 52 14q15 0 29 -4q41 -11 55 -63q20 -76 77.5 -119.5t133.5 -66t162 -25.5 h35q67 0 129 8q78 9 138 25.5t87 34.5q51 74 112.5 123t118.5 73q51 20 95 20h11q48 -3 75 -34q28 -34 28 -71q0 -42 -35 -89q-67 -87 -239 -159q-150 -180 -311.5 -371.5t-321.5 -372.5q127 23 276.5 64t290.5 121q44 25 83 25q1 0 2 -1q40 0 58.5 -20.5t6.5 -55t-72 -77.5 q-78 -55 -182.5 -97t-217 -72t-222 -50.5t-199.5 -32.5q-102 -115 -193.5 -211t-164.5 -170q-80 -78 -172.5 -123t-178.5 -55q-24 -3 -47 -3q-59 0 -110 19q-72 25 -113 90q-38 58 -38 116q0 60 34 116zM250 -268q16 -25 45 -25h8q35 4 86 36t116.5 88t143.5 134 q-76 -25 -154.5 -54.5t-138 -60t-90.5 -60.5q-21 -21 -21 -39q0 -10 5 -19z" />
<glyph unicode="K" horiz-adv-x="2258" d="M4 -291q4 92 48 198.5t118 219.5t169 228.5t199.5 227t214 216t211 193.5t188.5 159t148 115q51 37 115 48q34 6 61 6q25 0 46 -5q47 -11 47 -46q0 -31 -66 -79q-295 -215 -520 -430t-381 -409.5t-242 -360.5t-104 -285q-8 -61 -49 -88q-38 -25 -81 -25h-6q-46 2 -82 33 q-34 29 -34 78v6zM924 -85q-5 32 -4 68q0 51 10 108q16 97 55 203.5t92 205.5q-93 23 -93 109q0 8 1 18q6 63 51 100q46 37 100 44q13 2 24 2q42 -1 80 -19q50 -24 63 -78q268 80 452 165t303 165.5t178.5 155.5t77.5 134q16 58 62 66q12 2 24 2q33 0 66 -18q46 -24 76 -65 q24 -33 24 -65q0 -8 -2 -16q-8 -39 -46 -91t-124 -116.5t-231.5 -144.5t-370.5 -174q-170 -72 -298 -113t-224 -57q-23 -68 -49.5 -142.5t-42.5 -144.5q-15 -62 -15 -115v-13q2 -58 37 -95q22 -23 70 -24q20 0 44 4q83 14 216 69t315.5 149.5t413.5 225.5q55 31 92 31 q3 -1 6 -1q39 -2 51.5 -26.5t-4 -61t-69.5 -71.5q-299 -195 -521 -321t-384 -186q-153 -57 -258 -58h-12q-108 4 -175 67q-49 45 -61 124z" />
<glyph unicode="L" horiz-adv-x="1859" d="M4 -324q2 58 51 150q123 233 286 445t342 397.5t366.5 340t359.5 275.5q37 25 84 36q43 10 85 10h8q46 -1 83 -12t52.5 -31.5t3 -49.5t-65.5 -61q-55 -35 -165 -115t-247 -189.5t-286.5 -240.5t-282.5 -268.5t-237.5 -272.5t-149.5 -254q229 100 437 156t386 76 q116 13 218 12q54 0 106 -3q146 -11 255 -44t176.5 -81t90.5 -104q9 -25 9 -47q1 -25 -11 -48q-22 -43 -66 -63q-31 -15 -66 -15q-12 1 -25 3q-48 8 -77 52q-29 47 -113.5 78.5t-205.5 45.5q-88 10 -191 9q-38 0 -78 -1q-148 -5 -303 -33t-308.5 -79t-284.5 -127 q-68 -39 -124 -47q-14 -2 -25 -2q-37 0 -59 18q-28 23 -28 76v8z" />
<glyph unicode="M" horiz-adv-x="2740" d="M4 -303q0 47 62 82q90 49 202.5 142t230 212t234.5 255t218.5 272.5t181 265.5t122.5 231l13 29q6 74 40.5 118t72.5 49q5 1 9 1q32 0 58 -33q24 -31 23 -93q0 -13 -1 -28q-8 -123 -24 -258t-36.5 -263t-44.5 -238.5t-46 -184.5q152 135 310.5 282.5t318 286t316.5 255 t308 190.5q68 33 128 43q22 4 42 4q33 -1 59 -11q42 -16 60 -62q10 -26 10 -61q0 -28 -6 -61q-23 -121 -109.5 -281.5t-219 -346t-298 -389t-344.5 -410.5q-68 -81 -138 -99q-31 -8 -57 -8q-33 0 -57 14q-41 22 -41 75q1 3 1 7q2 58 79 136q176 174 336 355t285 346t203 298 t88 209q-49 -6 -135 -60.5t-197 -141.5t-239 -198.5t-258 -232.5t-254 -241.5t-228 -225.5q-82 -82 -140 -97q-22 -6 -40 -6q-30 1 -50 17q-30 25 -29 80q0 60 40 127q23 39 45 115t41.5 172t37 204.5t32.5 213.5q-57 -111 -133 -224.5t-159 -223t-170 -210t-167 -185.5 t-149.5 -149.5t-116.5 -99.5q-86 -66 -161 -69h-13q-65 0 -104 27q-42 30 -42 77z" />
<glyph unicode="N" horiz-adv-x="2412" d="M5 -322q-3 15 -3 31q0 28 10 58q23 68 111 198.5t247.5 307t394 392.5t552.5 453l45 103q31 68 89 89q37 13 72 13q21 0 41 -4q54 -12 86 -50q18 -21 18 -47q0 -20 -11 -42q-139 -287 -231.5 -519.5t-142.5 -400.5t-58 -264q-2 -20 -2 -37q0 -62 24 -74q5 -3 12 -2 q23 0 64 30q53 40 126 115.5t160 179t179 218.5t183 233.5t171 226t144.5 194.5t101.5 139q58 80 124 96q26 6 49 6q35 -1 63 -15q46 -24 57 -78q2 -9 2 -18q0 -47 -43 -100q-141 -174 -285.5 -360.5t-285 -360.5t-274.5 -324.5t-254 -254.5q-119 -103 -223 -147 q-55 -23 -103 -23q-42 0 -78 18q-57 27 -84 122q-22 78 -22 190q0 26 1 52q6 146 44 336.5t110 409.5q-106 -94 -213 -198.5t-204 -210t-182 -208t-150.5 -192.5t-107.5 -164t-55 -121q-14 -55 -42.5 -82.5t-63.5 -32.5q-10 -1 -19 -1l-51 9q-35 13 -59.5 42t-33.5 69z" />
<glyph unicode="O" horiz-adv-x="1853" d="M4 -12q8 132 73.5 278t181.5 295.5t263.5 283.5t320.5 242.5t353 174.5t360 78q30 2 59 1q147 0 283 -51q52 -18 68 -66q9 -27 9 -54q0 -20 -6 -42q-13 -48 -51 -80q-26 -21 -60 -20q-16 0 -33 4q-16 -186 -86 -361t-177.5 -330t-241.5 -286t-279.5 -228t-292.5 -157 q-146 -58 -277 -72q-35 -4 -68 -4q-91 0 -169 27q-106 37 -173 135q-58 89 -58 203q0 14 1 29zM272 73q-2 -18 -2 -34q0 -60 27 -98q45 -63 125 -79q30 -6 64 -6q54 0 118 16q102 26 218 87t229.5 150.5t219 201t186.5 239.5t131 267t54 281q-79 18 -159 18q-57 0 -113 -9 q-137 -22 -268 -82t-252 -150.5t-221.5 -193.5t-178 -214t-123 -211t-55.5 -183z" />
<glyph unicode="P" horiz-adv-x="2586" d="M2 195q0 184 100.5 342.5t266.5 289.5t381 230.5t445 164.5q229 64 457 92q147 18 280 17q72 0 140 -5q192 -15 332 -74.5t191 -166.5q35 -74 35 -156q0 -17 -2 -37q-10 -104 -59.5 -213.5t-134.5 -217t-195.5 -204.5t-240.5 -177t-269.5 -132t-280.5 -72q-66 -9 -131 -9 q-74 0 -146 12q-61 10 -91 38q-28 29 -34 61l-2 16q0 24 12 49q16 33 47.5 54.5t72.5 28.5q11 2 23 2q30 0 63 -13q62 -27 137 -27q45 0 95 10q134 26 272.5 95t266.5 170.5t217 212.5q90 110 122 216q13 41 12 79q0 59 -31 108q-59 90 -182 129q-117 37 -268 37h-16 q-161 -2 -346 -42t-369.5 -108.5t-354.5 -161t-300 -199.5q-129 -108 -205 -224q-72 -111 -72 -224v-12v-7q0 -67 -35 -93q-29 -22 -64 -21q-9 0 -18 1q-45 7 -83 44t-38 97zM480 -283q-4 15 -4 33q0 28 11 64q39 125 150 270t261.5 296.5t328.5 300.5t352 280q51 39 103 45 q13 2 26 2q36 0 60 -14q32 -17 31 -49q0 -35 -56 -79q-39 -29 -131 -108.5t-208 -190t-240 -237.5t-225 -250q-101 -124 -163 -228q-57 -95 -58 -157q0 -6 1 -12q2 -27 -18.5 -43.5t-52.5 -20.5q-10 -1 -20 -1q-24 0 -48 6q-36 9 -62 31.5t-38 61.5z" />
<glyph unicode="Q" horiz-adv-x="1914" d="M12 -12q27 143 140.5 332.5t334.5 416.5q186 193 362.5 312.5t334 185t294.5 85.5q93 13 171 13q37 0 69 -3q105 -9 174.5 -38.5t96.5 -60.5q35 -40 35 -80t-24 -69t-62 -42q-17 -5 -36 -5q-20 0 -42 7q-4 -135 -58.5 -284.5t-152 -299t-234.5 -290.5t-303 -260 q92 -68 176 -131.5t157 -102.5t128 -42h6q51 0 84 51q27 45 61 63q28 15 54 15h9q30 -3 53.5 -23.5t32.5 -53.5q4 -15 4 -33q0 -19 -5 -42q-10 -43 -47 -90q-53 -70 -118 -91q-40 -14 -82 -14q-26 0 -53 6q-71 13 -146.5 53t-154.5 94t-159 117.5t-156 120.5 q-82 -49 -174 -94q-180 -88 -334 -109q-53 -7 -101 -7q-89 0 -157 25q-106 38 -156 132q-32 61 -32 141q0 45 10 95zM282 -62q27 -63 92 -86q38 -12 86 -12q36 0 76 6q97 17 203 74l23 12q-84 47 -156 58q-15 3 -29 3q-54 0 -100 -34q-41 -30 -69 -30q-8 0 -15 3 q-31 11 -37 46q-1 7 -1 16q0 28 15 62q21 44 70 73q53 31 112 35q12 1 24 1q47 0 96 -13q63 -15 127.5 -45.5t130.5 -71.5q113 78 235.5 186.5t227 246.5t177 305t85.5 362q-43 8 -92 8q-44 0 -93 -7q-102 -14 -223 -67t-259 -151.5t-292 -249.5q-182 -180 -280.5 -321.5 t-129.5 -244.5q-16 -54 -16 -98q0 -37 12 -66z" />
<glyph unicode="R" horiz-adv-x="2267" d="M6 486q-4 18 -4 38q0 40 16 90q24 74 95 131q152 123 352.5 228.5t419.5 184.5t438 125t405 51q21 1 42 1q161 1 281 -35q136 -40 192 -135q54 -94 53 -190q0 -36 -7 -73q-28 -134 -152 -272t-343 -279.5t-526 -282.5q143 -119 266 -193q51 -31 104.5 -56.5t99.5 -36.5 q27 -6 49 -6q17 0 31 3q34 8 52 43q23 45 52.5 60.5t57 8t49 -33t28.5 -61.5q3 -16 3 -32q0 -22 -5 -44q-9 -40 -44 -76q-53 -52 -119 -66q-33 -7 -68 -7q-36 0 -75 7q-76 14 -153.5 51t-151.5 84q-172 111 -361 287q-24 -3 -47.5 -3t-44.5 3q-39 4 -78 21.5t-65 56.5 q-28 39 -28 72q0 16 6 31q20 45 71 67q36 15 81 16q18 0 38 -3q68 -9 125 -62q104 41 223 101t231.5 132t211 149.5t164 155.5t89.5 153q10 30 10 58q0 42 -22 80q-42 70 -154 90q-56 10 -124 10q-67 0 -146 -10q-158 -20 -347.5 -77.5t-383 -143.5t-377.5 -196.5 t-332 -235.5q-60 -50 -102 -50q-10 0 -18 3q-46 14 -58 68zM114 -324q-6 20 -7 43q0 44 26 93q27 49 84 126.5t136 172t177.5 201t207 212t223 204.5t229.5 179q76 55 144 65q25 4 45 4q35 0 55 -10q24 -13 23 -38q0 -9 -3 -20q-12 -40 -94 -87q-70 -39 -164 -119.5 t-198.5 -185t-209 -222.5t-192.5 -229.5t-150.5 -208t-83.5 -157.5q-31 -91 -85 -113q-25 -10 -48 -10q-27 0 -51 14q-44 24 -64 86z" />
<glyph unicode="S" horiz-adv-x="1816" d="M4 -56v11q0 112 77 234q81 128 261 239q49 31 97 39q26 4 49 4q21 0 40 -3q41 -7 70 -25.5t38 -43t-4.5 -49t-58.5 -45.5q-158 -70 -238.5 -153.5t-94.5 -158.5q-3 -16 -2 -31q0 -56 38 -102q50 -58 151 -72q29 -4 63 -4q80 0 186 26q148 36 336 147q133 80 222 164 q89 83 131 159q39 70 39 128v8q-3 60 -52 94.5t-142.5 34.5t-232.5 -45q-106 -34 -181 -34q-19 0 -36 2q-84 12 -120 62q-27 38 -27 93q1 19 3 37q12 80 68.5 171t159 184t248.5 173q182 98 319 124q74 14 135 14q52 0 94 -10q92 -22 140 -81q48 -60 49 -134q0 -71 -46 -141 q-46 -72 -138 -120q-77 -39 -135 -39h-10q-62 3 -93 29q-26 21 -26 48q-1 6 1 12q6 34 60 50q51 16 81.5 45t36 57.5t-14 51t-67.5 25.5h-12q-45 1 -114 -19q-78 -22 -187 -84q-115 -63 -195 -135q-78 -72 -106 -124q-12 -22 -12 -39q0 -22 20 -32q11 -5 29 -5q43 0 129 32 q128 46 235 46q25 -1 49 -3q126 -14 204.5 -78t102.5 -168q8 -36 8 -74q1 -72 -29 -152q-46 -122 -166.5 -253t-331.5 -248q-244 -135 -444 -170q-100 -18 -186 -17q-86 0 -158 17q-144 35 -225 125t-85 206z" />
<glyph unicode="T" horiz-adv-x="1593" d="M6 544q-6 17 -5 37q0 36 19 83q63 145 190.5 259.5t298.5 197.5t376 133.5t423 68.5q127 10 254 11q92 0 185 -6q221 -13 426 -60q55 -12 83 -44q29 -33 29 -64q0 -28 -26 -46q-15 -11 -40 -10q-18 0 -42 6q-143 38 -329 54q-99 8 -202 9q-90 -1 -182 -7 q-198 -14 -398 -57.5t-372 -119.5t-302 -186.5t-189 -259.5q-23 -55 -65 -69q-18 -6 -36 -7q-22 1 -42 11q-38 18 -54 66zM322 -256q0 96 59 215t151.5 244t207 250t225 234.5t206 195.5t148.5 133q51 45 107 55q27 5 50 5q25 0 46 -6q39 -12 51 -38q3 -7 3 -13 q0 -20 -26 -42q-66 -53 -167 -152.5t-213.5 -221.5t-225.5 -257t-199 -259q-86 -125 -133 -227q-35 -75 -35 -127q0 -19 5 -34q4 -15 4 -28q0 -34 -28 -53q-31 -21 -73 -21q-9 1 -18 1q-53 6 -99 41t-46 105z" />
<glyph unicode="U" horiz-adv-x="2027" d="M5 -173q15 87 74.5 184.5t155 200.5t202 205.5t216 201t197.5 184.5t145.5 155.5t61.5 116.5q-51 14 -71 42q-17 23 -18 50q0 5 1 11q4 32 28.5 63t60.5 49.5t82 20.5h6q43 0 85 -25q76 -43 76 -116v-7q-4 -78 -65.5 -175t-166 -209.5t-221.5 -227.5t-233.5 -225.5 t-203.5 -204.5t-130 -166q-26 -44 -26 -74q0 -20 11 -35q16 -20 49 -20q19 0 43 6q66 18 160 69.5t211 128t240 167t244.5 187.5t229 186t194 163t135.5 121q63 106 135 203.5t142.5 162t134.5 86.5q22 8 41 8q38 0 71 -28q36 -32 36 -72q0 -14 -4 -30q-18 -60 -78.5 -131.5 t-152.5 -152.5t-192 -165q-74 -106 -144.5 -216.5t-134 -217t-115 -204t-83.5 -176.5q-34 -79 -44 -135q-4 -19 -3 -34q0 -30 14 -47q25 -30 25 -58q0 -29 -19 -53q-18 -24 -47 -38q-30 -15 -62 -16h-3q-30 0 -60 14q-31 16 -49 53q-18 33 -18 80q0 24 4 51q14 82 60 187.5 t118.5 231.5t162.5 263q-123 -96 -262 -213t-280.5 -227.5t-279.5 -203.5q-138 -92 -261 -144q-114 -48 -209 -48h-15q-100 4 -163 88q-41 53 -41 118q0 18 3 37z" />
<glyph unicode="V" horiz-adv-x="2060" d="M4 -173v10q0 79 36 167q38 94 106.5 196.5t149.5 205t164 203t150.5 191.5t108.5 169q39 74 39 131v6q-53 8 -76 36q-20 24 -20 51v9q4 33 27.5 63.5t63.5 44.5q27 10 59 10q15 0 31 -2q50 -7 105 -50q73 -56 73 -144q0 -84 -47 -183q-48 -101 -131 -215t-176.5 -226.5 t-186.5 -220t-160.5 -196.5t-97.5 -155q-14 -31 -14 -54q0 -25 17 -42q26 -24 75 -24q26 0 60 8q94 20 222.5 82.5t277 161t296 215t282.5 245.5t236 254q102 126 158 238q46 93 46 167q0 16 -2 31q-1 10 -1 18q1 29 15 49q20 26 50 35q19 5 41 5q14 0 29 -2q38 -6 70 -29 q32 -24 50 -63q14 -29 13 -70q0 -13 -1 -27q-12 -109 -92 -245t-207 -282t-288.5 -291.5t-336 -273.5t-350.5 -227.5t-330 -153.5q-150 -53 -272 -53h-6q-124 2 -194 78q-60 66 -62 149z" />
<glyph unicode="W" horiz-adv-x="2717" d="M3 -198q3 89 48 198t125 231.5t181.5 247.5t217 245t229.5 224.5t220 186.5t190 129q92 50 158 50h3q67 -1 97 -30q23 -22 24 -51q0 -9 -2 -19q-10 -42 -67 -71q-172 -88 -330.5 -210t-293.5 -254t-242.5 -264t-176.5 -244q-68 -113 -94 -193q-12 -38 -12 -63 q0 -30 15 -44q17 -17 51 -17q28 0 68 12q88 26 214 94.5t280.5 173t318.5 233.5q63 139 151 267t179.5 217t176.5 124q36 15 68 15q42 0 76 -27q30 -24 30 -66q0 -18 -6 -39q-18 -70 -81.5 -162t-166 -201.5t-227.5 -220.5q-25 -66 -44 -126t-27 -110q-5 -29 -5 -53 q0 -18 3 -33q6 -36 32 -48q17 -9 39 -9q34 0 81 21q77 35 173.5 110.5t204 180t213 221.5t201.5 235.5t170 221t117 179.5t40 110v7q1 39 21 69q22 34 55 53.5t72 23.5q8 1 16 1q29 0 53 -12q30 -16 44 -52q9 -21 9 -49q0 -22 -5 -48q-12 -61 -75 -166.5t-160 -235.5 t-222 -273.5t-261 -278.5t-275.5 -251t-266.5 -190q-126 -74 -234 -98q-35 -8 -66 -8q-65 0 -114 33q-70 47 -92 132q-13 49 -13 106q0 41 7 86q-160 -117 -321.5 -213.5t-306.5 -151.5q-144 -54 -258 -60q-9 0 -17 -1q-101 0 -160 61q-50 52 -50 135v9z" />
<glyph unicode="X" horiz-adv-x="2443" d="M8 -408q-7 16 -7 39q0 26 11 60q47 145 173 277t299 250t380 224.5t416 202.5q27 74 47.5 140.5t28.5 124.5q5 33 5 64q0 22 -3 42q-6 47 -31 80q-12 -2 -22 -2q-44 0 -65 28q-20 25 -20 55q0 10 2 21q8 43 47.5 81t104.5 38q92 0 138.5 -46t58.5 -123q5 -34 6 -72 q1 -50 -9 -108q-16 -104 -48 -216q170 76 322.5 144.5t271 132t192.5 122t86 111.5q14 60 60 74q19 6 38 6q27 0 54 -12q46 -20 76 -65q20 -30 20 -65q0 -18 -6 -37q-25 -84 -134.5 -163.5t-275.5 -162.5t-370.5 -168t-419.5 -177q-43 -117 -85 -226.5t-72 -197.5t-41 -146 q-4 -22 -4 -39q0 -26 11 -35q14 -11 40 -11q30 0 77 14q88 26 207 79.5t255 125t259 142t221 131t141 89.5q40 29 74 29q3 -1 6 -1q37 -2 54.5 -23.5t6 -57t-64.5 -74.5q-27 -20 -95.5 -67.5t-163.5 -111t-210 -136t-235.5 -139t-239.5 -123t-223.5 -88.5t-186.5 -33h-4 q-79 0 -123 42q-47 45 -50 123v17q0 71 22 159q24 98 68 211t93 230q-174 -80 -335.5 -165t-294.5 -180.5t-229.5 -198.5t-139.5 -220q-16 -45 -51 -61q-21 -10 -40 -10q-13 0 -25 4q-32 12 -48 48z" />
<glyph unicode="Y" horiz-adv-x="1669" d="M15 -194q28 85 107 180.5t203 195t283 189.5q-96 -55 -184 -88t-162 -43q-29 -3 -56 -3q-41 0 -75 9q-57 14 -90 51q-27 30 -27 74q0 14 2 29q11 63 49.5 138.5t95 158.5t112 162t100.5 145.5t59 111.5q-41 6 -61.5 33t-23.5 59q-1 5 -1 10q0 27 12 54q15 33 45.5 53.5 t78.5 21.5h3q47 0 107 -30q57 -29 70 -78q5 -20 5 -41q0 -32 -11 -68q-19 -61 -62 -130.5t-93 -140.5t-101.5 -138.5t-88.5 -124.5t-50 -99q-5 -16 -5 -28q0 -22 14 -35q16 -14 60.5 -6t106 29.5t133 54.5t145.5 70q172 84 379 204q164 154 320.5 273t290.5 189.5t237 83.5 q20 3 37 3q77 0 122 -49q21 -22 21 -49q0 -21 -12 -45q-29 -55 -103 -119.5t-183.5 -133.5t-237.5 -136.5t-264 -129t-261 -110.5q-188 -164 -346 -298t-267.5 -239.5t-161.5 -181.5q-37 -52 -37 -90q0 -16 7 -30q13 -23 13 -45q0 -20 -9 -38q-22 -40 -64 -57 q-23 -10 -49 -10q-21 0 -43 6q-51 14 -84 78q-18 34 -18 75q0 34 13 73z" />
<glyph unicode="Z" horiz-adv-x="2238" d="M7 -336q-4 13 -4 27q0 17 5 35q10 34 43 71q39 43 119 106.5t186.5 141.5t235.5 165t269 176t284.5 177t282 169t262.5 149.5t225 119.5q-129 29 -253 60t-228 42q-36 4 -71 4q-63 1 -116 -13q-82 -20 -129 -97q-24 -39 -55 -39q-7 0 -13 2q-38 10 -66 48.5t-33 94.5 q-1 7 -1 13q0 48 33 90q61 78 149 106q79 26 170 26h19q102 -3 215 -28.5t225.5 -56t220 -58.5t199.5 -34q168 66 307 103q57 16 115.5 27.5t106.5 14.5q11 1 21 1q33 1 59 -7q32 -10 42 -36q5 -15 5 -29q1 -37 -33 -73q-46 -48 -133.5 -86t-199.5 -61.5t-218 -25.5 q-98 -49 -224 -118.5t-267.5 -153.5t-294 -179.5t-305 -194.5t-299 -199.5t-277.5 -194.5q66 14 119 15q7 0 13 -1q58 -2 107 -16.5t91 -35t86 -39.5q45 -20 92 -32q41 -11 88 -10h16q49 2 97 17.5t105.5 46t130.5 77.5t172 111.5t230 148.5t305 187q61 36 100 36h6 q40 -3 51 -29q4 -9 4 -20q-1 -21 -13 -45q-20 -38 -70 -71q-162 -100 -285.5 -186.5t-222 -158t-175.5 -128t-142.5 -98.5t-128 -68.5t-129.5 -40.5q-45 -8 -87 -8t-80 8q-77 16 -146.5 46t-137 64.5t-137.5 54.5q-59 17 -122 18q-13 0 -25 -1q-76 -4 -166 -51 q-66 -61 -121 -91t-97 -35q-11 -1 -21 -1q-29 1 -49 11q-28 14 -37 40z" />
<glyph unicode="[" horiz-adv-x="1081" d="M4 -298q0 42 21 103q20 66 67 166.5t112.5 220t144.5 250.5t165 258t174 242t172 201q39 47 70 66.5t67.5 24.5t89 5t134.5 6q47 4 85 10.5t83 12.5q55 8 72.5 -27t1 -81t-62.5 -89t-118 -55q-68 -10 -117 -16.5t-100 -4.5q-59 -49 -134 -138t-155 -196.5t-157.5 -225.5 t-143 -225.5t-114 -194.5t-64.5 -132q41 2 72.5 5t59.5 7.5t54.5 8.5t57.5 8q55 8 73.5 -25.5t3 -79t-60.5 -87.5t-117 -54q-55 -10 -99 -15t-85 -6t-87 1t-106 8q-59 6 -59 48z" />
<glyph unicode="\" horiz-adv-x="1079" d="M268 1153q-6 68 18.5 110t59.5 55t70 -4.5t47 -70.5q37 -160 57.5 -339t52 -372.5t92 -399.5t179.5 -417q31 -53 26.5 -93t-28 -58.5t-60 -10t-73.5 51.5q-59 72 -111.5 179t-97.5 238.5t-83 277.5t-68 293.5t-50 291t-31 268.5z" />
<glyph unicode="]" horiz-adv-x="1150" d="M-304 -249q15 46 61 90t118 55q70 12 119 17t100 5q57 49 130 132t149 185.5t151.5 215t141 219t117 201t77.5 157.5q-41 -2 -72.5 -5t-59.5 -6t-54.5 -7t-57.5 -9q-55 -8 -73.5 26t-3 79t60.5 87t117 54q57 8 100 13.5t83 7.5t85 0t105 -8q57 -6 58 -48.5t-20 -103.5 q-23 -66 -69.5 -166t-111 -220t-143.5 -251t-165 -258t-174 -241.5t-172 -200.5q-39 -47 -68.5 -66.5t-66.5 -26t-88.5 -5.5t-132.5 -5q-47 -4 -85 -10t-81 -12q-55 -8 -72.5 25.5t-2.5 79.5z" />
<glyph unicode="^" horiz-adv-x="907" d="M276.5 923.5q-12.5 28.5 1 59.5t58.5 43q41 10 91 26.5t102.5 39t102.5 50t93 62.5t87 51.5t80 16.5t57.5 -13.5t15.5 -37.5q-12 -57 -7 -110.5t46 -106.5q35 -43 18.5 -77t-56.5 -51.5t-87.5 -16.5t-71.5 26q-25 23 -39 48t-23 46q-8 23 -12 47q-63 -37 -121 -68 q-51 -27 -104 -51t-88 -33q-57 -12 -94 4.5t-49.5 45z" />
<glyph unicode="_" horiz-adv-x="831" d="M-155.5 -71.5q12.5 32.5 46 59t84.5 26.5q82 2 162 5.5t150.5 7.5t130 9t100.5 11q55 8 76.5 -18.5t9.5 -63.5t-55 -71.5t-115 -47.5q-57 -8 -123.5 -13t-136.5 -7t-138.5 0t-127.5 8q-47 6 -61.5 34t-2 60.5z" />
<glyph unicode="`" horiz-adv-x="571" d="M4 1169.5q8 36.5 36 63.5t66.5 36t71.5 -16t81 -57.5t99.5 -63t99.5 -57t79 -39.5q31 -10 32.5 -29.5t-15.5 -38t-51 -28.5t-75 -4q-47 8 -104.5 22.5t-113.5 35t-104.5 47t-78.5 59.5q-31 33 -23 69.5z" />
<glyph unicode="a" horiz-adv-x="1275" d="M-90 138q-6 25 -7 51q1 35 13 75q22 68 74.5 140.5t124 141t157.5 128t176 100.5q89 40 176 58q48 10 92 10q35 0 66 -6q52 -10 66 -48q9 -22 8 -46q0 -16 -4 -32q-10 -40 -36 -68q-21 -22 -45 -23q-7 0 -13 2q-29 7 -60 7q-42 0 -89 -12q-81 -22 -158.5 -66 t-147.5 -102.5t-115 -112.5t-59 -95t16 -54q10 -4 23 -4q21 0 49 10q45 16 97.5 48t110.5 74t110.5 82t97.5 74t72 50q49 29 104 39q34 6 63 6q17 0 33 -2q41 -6 57.5 -27.5t-14.5 -56.5t-64.5 -77t-58 -81.5t-35 -70.5t8.5 -39q14 -8 51 2t84 29.5t100 46t101.5 52.5 t86.5 46.5t54 30.5q42 25 81 25q1 -1 2 -1q41 0 59 -20q11 -12 11 -30q1 -12 -5 -26q-12 -34 -72 -77q-35 -25 -113 -72t-174 -95t-196.5 -83t-180.5 -35q-66 0 -92 31q-28 32 -28 78q0 41 18 87q20 48 49 83q-66 -49 -146.5 -110.5t-168.5 -105.5q-87 -45 -173 -59 q-20 -3 -40 -3q-64 0 -121 36q-60 39 -76 97z" />
<glyph unicode="b" horiz-adv-x="1013" d="M-28 304q14 99 72 224t171 265q168 209 315.5 342t267.5 197.5t209 65.5h3q87 0 137 -52q35 -38 36 -90q1 -14 -3 -29q-12 -70 -67.5 -150t-145.5 -168t-201 -174q45 -16 66.5 -50t24.5 -76q1 -7 0 -15q1 -36 -11 -74q-14 -47 -41 -92q49 -20 105 -28q14 -2 27 -3 q41 0 77 21q44 25 80 25q6 -1 11 -1q40 -4 56.5 -26.5t2 -57t-71.5 -69.5q-48 -29 -98 -38q-38 -7 -75 -7q-13 0 -25 1q-50 3 -98 16t-87 30q-55 -76 -133 -140.5t-164 -102.5t-174 -45q-13 -1 -27 -1q-73 0 -137 33q-59 31 -87 101q-19 47 -19 107q0 29 4 61zM217 383 q-12 -38 -12 -67q0 -39 22 -62q26 -26 66 -26h3q42 1 89 21.5t95 56.5t87 79q-29 39 -38 86q-5 25 -5 50q0 22 4 44q-78 -53 -156.5 -98t-154.5 -84zM367 653q63 45 137 100.5t144.5 112t134 111.5t107.5 102t62 81q10 18 10 31q0 12 -8 19q-5 4 -14 4q-13 0 -34 -10 q-34 -16 -82 -54t-106.5 -93.5t-119.5 -121t-120.5 -138t-110.5 -144.5z" />
<glyph unicode="c" horiz-adv-x="845" d="M-53 211v7q0 84 44 182q46 102 128 194t193.5 159.5t240.5 86.5q26 4 50 4q42 0 76 -12q54 -18 83 -54q27 -34 27 -83q0 -4 -1 -9q-2 -55 -43 -119q-29 -43 -64.5 -64.5t-71.5 -27.5q-17 -3 -32 -3q-17 0 -33 4q-30 7 -45.5 22.5t-11.5 34t37 34.5q20 10 39 27.5t29 34 t8 29t-22 12.5q-53 0 -117 -35t-122 -88t-105 -115q-48 -60 -68 -114q-12 -31 -12 -57q0 -17 6 -31q14 -34 78 -35q57 0 139 23.5t168 58t167 72.5t134 69q47 25 83 25q3 -1 7 -1q40 -2 56 -24q9 -12 8 -28q0 -14 -6 -30q-14 -34 -70 -71q-41 -27 -123 -74t-183.5 -92 t-213 -78t-214.5 -33q-127 0 -184 56.5t-59 142.5z" />
<glyph unicode="d" horiz-adv-x="1384" d="M-81 230q11 72 61.5 158.5t144.5 176.5t195.5 149.5t193.5 91.5t163 36q11 1 22 1q54 0 81 -18q31 -20 35 -57q1 -8 1 -15q0 -29 -12 -57q-16 -34 -46 -56q-21 -15 -45 -14q-11 0 -23 3q-23 6 -48 6q-38 -1 -80 -13q-70 -20 -140 -62t-133.5 -95t-106.5 -105.5 t-60.5 -94.5t5.5 -58q13 -10 38 -10q18 0 42 5q57 13 137 52t179.5 99.5t207.5 135.5q61 113 148.5 234t183.5 230.5t195.5 201.5t189.5 148.5t162 69.5q16 3 32 3q51 0 84 -35q18 -19 18 -48q0 -18 -8 -41q-18 -58 -72 -135t-138 -168t-188.5 -186t-222.5 -191.5 t-241 -182.5q-28 -59 -32 -101q0 -6 -1 -11q0 -34 19 -50q13 -11 39 -11q19 0 47 6q64 16 142.5 49.5t159.5 74.5t136 72q52 30 95 30h5q44 -2 61.5 -23.5t0 -58t-83.5 -77.5q-45 -27 -110.5 -67t-143.5 -80t-160 -74q-81 -34 -156 -52q-64 -15 -119 -15h-19q-62 3 -101 42 q-29 29 -35 75q-2 15 -2 30q0 34 9 75q-96 -59 -187.5 -103t-170.5 -72t-143 -34q-15 -1 -30 -1q-45 0 -78 14q-56 25 -82 78q-18 37 -18 83q0 20 3 42z" />
<glyph unicode="e" horiz-adv-x="948" d="M-48 293q18 90 87 190q100 150 211 232q112 81 212 109q57 16 106 16q37 0 70 -8q77 -20 110 -74q27 -40 26 -94q0 -56 -30 -116q-30 -58 -92 -113.5t-160 -94.5q-56 -23 -100 -24h-6q-40 0 -72 12q-34 12 -55 34.5t-32 47.5q-43 -54 -63 -104q-9 -23 -8 -42 q0 -22 12 -37q29 -40 110 -40h11q90 3 204.5 35t236.5 84t218 112q43 27 79 27q5 -1 11 -1q42 -4 58 -28q9 -13 8 -28q0 -14 -6 -30q-14 -36 -72 -69q-233 -133 -416 -197q-184 -66 -316 -78q-35 -3 -66 -3q-88 0 -148 26q-82 35 -114 101q-20 42 -20 92q-1 30 6 63z M330 524q27 -43 79 -43t100 25.5t75 64.5q14 20 14 39q0 18 -12 35q-10 13 -32 13h-8q-28 -3 -62.5 -20t-74.5 -47t-79 -67z" />
<glyph unicode="f" horiz-adv-x="778" d="M-316 -238q-4 15 -4 34q0 56 30 138q40 111 143.5 276t298.5 398q160 193 294 338.5t239.5 236.5t182.5 125q44 18 79 18q27 0 48 -11q41 -24 41 -73q0 -54 -41 -129q-39 -71 -108.5 -155t-159.5 -172t-197.5 -176t-220.5 -164q29 -14 49.5 -37.5t30.5 -60.5q14 -8 49 -8 q10 0 22 1q54 3 115.5 15.5t119 28.5t85.5 33q46 26 82 26h9q40 -4 55.5 -26.5t1 -58t-71.5 -70.5q-43 -27 -103.5 -47.5t-128 -32.5t-136.5 -17q-32 -2 -63 -2q-34 0 -67 3q-29 -63 -71.5 -136t-94 -143t-109.5 -129t-117.5 -96t-117.5 -45q-11 -1 -21 -1q-47 0 -89 29 q-41 27 -54 90zM-96 -129q2 -1 4 -1q12 0 42 26q36 32 83 85.5t95 120t83 127.5q-54 27 -74 68q-53 -74 -101 -145.5t-81 -131t-49 -99.5q-8 -22 -8 -35q0 -10 6 -15z" />
<glyph unicode="g" horiz-adv-x="1204" d="M-317 -508q-15 26 -15 53q0 36 26 73q46 65 144.5 130.5t237.5 133t293 132.5q12 16 33.5 44t44 58.5t43 59.5t32.5 47q-59 -43 -128.5 -84t-140.5 -66.5t-137 -29.5h-16q-57 0 -104 27q-63 39 -78 95q-5 22 -5 45q0 37 13 76q23 66 76 136t126 136.5t160 122.5t176 96 t176 57q47 8 90 8q37 0 71 -6q51 -10 65 -48q9 -21 9 -43q0 -17 -5 -35q-12 -40 -38 -69q-21 -22 -44 -22q-7 0 -14 2q-32 7 -66 7q-39 0 -82 -10q-81 -18 -161 -58t-150.5 -92t-116.5 -101.5t-60.5 -87t16.5 -50.5q14 -6 32 -6q34 0 82 21q74 30 154 78.5t151.5 99.5 t112.5 76q49 29 104 39q35 6 65 6q17 0 33 -2q42 -6 57.5 -29t-15.5 -55q-59 -63 -118.5 -141t-117.5 -154l158 76q47 20 102.5 46.5t104.5 53.5t89 48.5t56 31.5q44 25 83 25q1 0 2 -1q40 0 59 -20q11 -13 11 -30q0 -12 -5 -26q-13 -34 -72 -77q-23 -16 -61.5 -41 t-91 -54.5t-112 -59.5t-120.5 -56l-395 -174q-135 -168 -268.5 -273.5t-245.5 -154.5q-101 -44 -178 -44h-15q-82 5 -112 60z" />
<glyph unicode="h" horiz-adv-x="1382" d="M-133 160q8 31 32.5 79t55.5 102t63.5 108.5t61.5 95.5q180 260 334.5 435t274.5 272.5t203 117.5q24 6 45 6q50 0 77 -35q20 -26 20 -59q0 -18 -6 -39q-18 -57 -68.5 -125.5t-127 -146.5t-168 -158t-187.5 -160t-186 -153q-16 -23 -32 -44.5t-28 -41.5q-4 -4 -4 -6 q102 94 215 177t225.5 143t218.5 92q84 26 157 26q18 0 36 -2q105 -9 105 -73q0 -17 -8 -41q-38 -102 -273 -290q-76 -59 -117 -105t-54 -79t-2 -49.5t40 -16.5q33 0 107.5 23t165 56.5t182.5 73.5t157 75q61 32 104 32h2q44 -1 58 -24q6 -10 5 -22q-1 -16 -11 -38 q-18 -38 -80 -77q-51 -33 -150.5 -83t-216 -96.5t-238.5 -79t-216 -32.5q-84 0 -127 36t-46 95v9q0 56 34 126q37 76 112 156q76 80 128.5 123t81 64.5t35.5 26.5t-7 9q-4 1 -9 1q-21 0 -69 -22q-58 -26 -135.5 -74t-166.5 -112.5t-171 -133.5t-150.5 -135.5t-103.5 -117.5 q-8 -35 -45 -46q-17 -5 -34 -5l-40 7q-36 13 -58 51q-11 19 -11 46q0 25 10 58z" />
<glyph unicode="i" horiz-adv-x="872" d="M-76 341q14 36 76 77q25 14 58.5 35.5t73.5 46t82 51.5t81 51q39 43 84 87t100 87q63 50 129 62q31 6 56 5q30 1 54 -7q44 -14 51 -48q1 -4 1 -8q0 -30 -47 -65q-98 -74 -178 -152t-132.5 -145.5t-70.5 -118.5q-8 -22 -8 -38q0 -22 14 -34q13 -11 39 -11q19 0 47 6 q64 16 142.5 49.5t159.5 74.5t136 72q52 30 95 30h5q44 -2 61.5 -23.5t0 -58t-83.5 -77.5q-45 -27 -110.5 -67t-143.5 -80t-160 -74q-81 -34 -157 -52q-65 -15 -120 -15h-19q-62 3 -99 42q-41 39 -47 109q-1 11 -1 23q0 61 26 138l-43 -24q-47 -30 -87 -30h-3q-40 1 -58 23 q-10 12 -10 29q-1 14 6 30zM760 1024q-7 20 -7 40q-1 34 19 68q30 54 96 76q32 12 63 11q30 -1 59 -11q59 -22 77 -75q7 -20 6 -40q-1 -33 -19 -67q-30 -54 -96 -78q-32 -12 -62 -12t-60 12q-58 23 -76 76z" />
<glyph unicode="j" horiz-adv-x="878" d="M-538 -440q0 58 46 128q48 72 148 151t262 153q49 76 122 175t155 204q-41 -31 -73 -52.5t-44 -29.5q-47 -30 -88 -30h-3q-42 1 -59.5 23.5t-3 58.5t75.5 77q25 16 85 54t134 84t150.5 94t134.5 85q23 23 41 40.5t33 27.5q45 33 96 42q26 5 48 5t40 -5q37 -9 50 -34 t-17 -57q-45 -49 -112 -125t-142.5 -164t-153.5 -181.5t-143 -177.5q66 29 143.5 66t161.5 77t168 83t162 86q41 23 78 23q3 0 7 -1q40 -2 58 -22q11 -11 11 -28q0 -12 -5 -26q-12 -34 -74 -75q-111 -74 -239.5 -141.5t-251.5 -122t-224.5 -93t-156.5 -59.5 q-94 -152 -180 -248t-160 -144t-134 -52h-11q-52 0 -91 32q-44 38 -44 99zM707 1024q-7 20 -7 40q0 33 20 68q30 54 95 76q32 12 63 12q30 0 59 -12q59 -22 77 -75q7 -20 7 -40q0 -33 -19 -67q-31 -55 -97 -78q-31 -12 -61.5 -12t-59.5 12q-59 23 -77 76z" />
<glyph unicode="k" horiz-adv-x="1386" d="M-134 64q-8 18 -9 40q0 25 10 56q8 31 32.5 79t55.5 102t63.5 108.5t61.5 95.5q180 260 334.5 435t274.5 272.5t203 117.5q24 6 45 6q50 0 77 -35q19 -26 19 -61q1 -22 -7 -46q-20 -64 -76.5 -143t-141.5 -167t-181.5 -176.5t-197.5 -171t-189 -150.5q-4 -4 -9 -12 q-16 -27 -40.5 -72t-51.5 -92q92 76 208 161t240 162.5t246.5 144t225.5 109.5q37 15 83 17q10 1 21 0q35 0 69 -6q44 -8 81 -24.5t54 -35t11 -38t-47 -33.5q-88 -33 -191.5 -75t-213 -92.5t-222 -105.5t-219.5 -112q8 -27 22.5 -53.5t36 -48t52.5 -36t74 -16.5h12 q44 0 98 12q62 14 131.5 37t141 51.5t136 56t117 53t80.5 40.5q57 28 97 28h9q44 -4 58 -28q6 -10 7 -22q1 -16 -11 -36q-20 -36 -82 -71q-39 -23 -105.5 -59.5t-149.5 -80t-177 -86.5t-186 -75q-92 -34 -178 -52q-65 -14 -118 -13q-17 0 -34 1q-53 6 -95 31t-75 59.5 t-56.5 78.5t-41.5 89q-63 -41 -117.5 -79.5t-95.5 -75.5h-2q-18 -23 -53 -27q-7 -1 -14 -1q-27 1 -52 13q-30 16 -48 52z" />
<glyph unicode="l" horiz-adv-x="708" d="M-70 132q-4 21 -5 46q-1 51 19 113q28 92 95 192q197 297 363.5 485.5t296.5 287.5q131 98 221 116q25 5 46 4q56 0 87 -33q21 -24 21 -55q0 -20 -9 -44q-23 -60 -84 -134t-151.5 -159t-189.5 -170t-198.5 -168t-179.5 -152q-55 -78 -80 -138q-12 -30 -12.5 -51.5 t12.5 -33.5q22 -22 61 -22q17 0 37 4q66 13 145 47t155.5 78t128.5 73q46 26 83 26h9q41 -4 56 -26.5t1 -57t-72 -71.5q-209 -137 -363.5 -204t-260.5 -78q-25 -3 -47 -3q-71 0 -115 27q-56 35 -70 101z" />
<glyph unicode="m" horiz-adv-x="1988" d="M-78 292q-4 9 -4 19q0 17 10 37q16 33 72 70q41 25 103.5 63.5t127.5 79.5q81 96 177 174q45 35 92 55.5t82.5 23.5t57.5 -10t14.5 -45t-47.5 -81t-126 -117q-43 -43 -96 -125q96 94 197.5 176t199.5 140q99 58 190 84q54 16 102 15q33 0 63 -7q25 -6 40 -28.5t19 -53.5 q1 -10 1 -19q0 -21 -6 -45q-9 -34 -34 -63q70 49 141.5 90t139.5 69q70 26 132 40q48 10 89 11q12 0 24 -1q103 -9 103 -74q0 -20 -8 -42q-38 -104 -271 -288q-76 -59 -116.5 -104t-54 -77t-3.5 -49t39 -20h6q34 0 102 20q76 22 167.5 56.5t183.5 75.5t158 76q61 32 103 32 h3q43 -1 57 -24q6 -9 5 -21q1 -17 -11 -39q-20 -38 -80 -77q-35 -23 -93 -54.5t-131 -65.5t-155.5 -67.5t-166.5 -58.5t-163 -38q-54 -9 -102 -9q-22 0 -43 2q-84 8 -122 45q-35 34 -34 86v9q3 58 44 130t117 152t128 123t80.5 64.5t35.5 26.5t-7 9q-4 1 -8 1 q-30 0 -107 -45q-88 -52 -200.5 -139t-228 -194.5t-197.5 -210.5q-23 -29 -70 -40q-29 -7 -56 -7q-17 0 -33 3q-42 7 -64 34q-11 13 -11 31q0 20 13 45q14 29 56 78t94 105t108.5 115.5t100.5 107.5t66.5 80t10.5 36q-4 1 -9 1q-23 0 -66 -22q-52 -26 -123 -74 t-150.5 -112.5t-154.5 -133.5t-138.5 -135.5t-98.5 -117.5q-14 -31 -56 -44q-25 -8 -49 -8q-17 0 -33 4q-40 9 -64 43q-13 18 -14 44q0 22 10 49t23 60.5t34 70.5q-29 -11 -52 -11q-12 0 -23 3q-32 8 -42 32z" />
<glyph unicode="n" horiz-adv-x="1525" d="M-78 292q-4 9 -4 19q0 17 10 37q16 33 72 70l233 145q81 94 175 172q45 35 89 52.5t78.5 17.5t52 -18.5t8.5 -53.5t-51 -86t-128 -119q-23 -23 -47.5 -56.5t-51.5 -74.5q104 96 218 181.5t228 146.5t220 94q85 27 161 27q18 0 36 -2q105 -9 105 -73q0 -17 -9 -41 q-39 -102 -273 -290q-76 -59 -116.5 -105t-54 -79t-2 -49.5t39.5 -16.5q33 0 108 23t166 56.5t183 73.5t158 75q61 32 103 32h3q42 -1 56 -24q6 -10 6 -22q0 -16 -10 -38q-18 -38 -80 -77q-35 -23 -92.5 -52.5t-127 -62.5t-149.5 -64.5t-160 -56t-155.5 -40t-139.5 -15.5 q-84 0 -127 36t-46 95v9q0 56 34 126q37 76 113 156t128 123t80.5 64.5t36 26.5t-7.5 9q-4 1 -9 1q-22 0 -70 -22q-58 -26 -135 -74t-166 -112.5t-171 -133.5t-150.5 -135.5t-103.5 -117.5q-14 -31 -55 -44q-24 -8 -48 -8q-17 0 -33 4q-40 9 -64 43q-13 18 -14 44 q0 22 10 49t23 60.5t34 70.5q-29 -11 -52 -11q-12 0 -23 3q-32 8 -42 32z" />
<glyph unicode="o" horiz-adv-x="995" d="M-44 255q5 77 46 165t108.5 166t149.5 135t170 90t170 33q80 0 126 -31t64 -84q11 -33 10 -74q0 -25 -4 -52q-10 -73 -44 -157q25 -16 54.5 -29.5t61.5 -18.5q18 -3 36 -2q14 0 29 1q32 4 62 21q44 25 81 25q6 -1 11 -1q41 -4 57 -26q8 -12 8 -27t-8 -31q-14 -34 -71 -69 q-53 -33 -109 -45q-43 -9 -85 -8h-25q-53 4 -101 19t-87 38q-88 -129 -208 -213t-255 -84q-84 0 -141 34q-56 32 -84 90q-23 49 -23 112q0 11 1 23zM215 286q4 -62 64 -61q27 0 60.5 15.5t69 42t69.5 61.5t63 72q-24 49 -24 104q0 11 1 23q6 68 41 121h-6q-29 0 -69 -19.5 t-79.5 -52.5t-77.5 -74t-65 -84q-47 -80 -48 -138q1 -6 1 -10z" />
<glyph unicode="p" horiz-adv-x="1425" d="M-341 -406q-1 10 -1 21q0 75 41 170q43 98 142.5 220t232.5 245l26 53l-24 -14q-47 -30 -87 -30h-3q-41 1 -58.5 23.5t-3 58.5t75.5 77l334 209q29 29 57.5 56t61.5 54q51 41 103 59q36 12 63 12q12 0 23 -3q34 -8 41 -39q1 -5 1 -10q0 -30 -31 -76q154 88 287 127 q106 32 172 32h4q68 -1 102.5 -23.5t41.5 -62.5q3 -15 3 -31q0 -27 -7 -56q-13 -48 -39.5 -96t-57.5 -87q-47 -59 -99 -111.5t-113.5 -96.5t-135.5 -82.5t-164 -69.5q35 0 97.5 5t156.5 32.5t223 88t301 169.5q59 38 101 38h2q43 -1 57 -24q6 -11 6 -24q0 -18 -10 -40 q-18 -40 -78 -79q-137 -92 -286.5 -165t-314.5 -111q-148 -34 -308 -34q-19 0 -38 1q-181 4 -380 65q-18 -25 -41.5 -57.5t-54.5 -83.5t-71 -123t-91 -176q-55 -113 -114 -139q-24 -10 -46 -10q-29 0 -52 20q-40 35 -47 118zM307 186q80 4 165 30t163 66t145.5 87t115.5 92 t70 85q13 25 13 43q0 11 -4 19q-9 15 -32 15q-7 0 -15 -1q-35 -6 -87.5 -31.5t-117 -68.5t-134 -96t-142 -114.5t-140.5 -125.5z" />
<glyph unicode="q" horiz-adv-x="1206" d="M-80 165q-5 23 -5 47q0 35 13 74q21 66 74 136t126 136.5t160 122.5t177 96t177 57q47 8 90 8q36 0 69 -6q35 -8 52 -28t21.5 -45.5t-3 -53t-21.5 -47.5q45 16 92 19q12 1 23 1q32 0 57 -7q33 -9 45 -28.5t-12 -46.5q-25 -29 -64 -74t-87 -102t-102 -125t-110 -139 l162 78q47 20 102.5 46.5t104.5 53.5t89 48.5t56 31.5q42 25 81 25q1 0 2 -1q40 0 59 -20q11 -13 11 -30q0 -12 -5 -26q-13 -34 -72 -77q-23 -16 -61.5 -41t-90 -54.5t-110.5 -59.5t-121 -56q-125 -53 -231.5 -101.5t-178.5 -78.5q-86 -117 -151.5 -210.5t-87.5 -144.5 q-28 -56 -59 -56h-1q-32 1 -58 32.5t-41 78.5q-11 34 -11 62q0 11 2 21q4 31 37 78.5t79 104t100 115t101 108.5t82 87t43 49q-59 -43 -129.5 -84t-141.5 -66.5t-137 -29.5h-15q-58 0 -103 27q-63 39 -78 95zM138 280q-4 -12 -4 -22q0 -20 22 -29q10 -4 22 -4q22 0 52 11 q46 18 104.5 52t122 80t124 93t111.5 90t84 70q-32 7 -67 7q-40 0 -83 -10q-81 -18 -161 -58t-149.5 -92t-115.5 -101.5t-62 -86.5z" />
<glyph unicode="r" horiz-adv-x="968" d="M-72 344q12 35 72 74q31 18 66.5 46t72.5 58.5t72 63t61 65.5q-2 0 -2 2q-33 41 -45 85q-7 25 -7 48q0 17 4 32q9 36 40 59.5t80 23.5q37 0 55.5 -17.5t30.5 -39t22.5 -39t30.5 -17.5q51 0 119 8.5t148 22.5q19 3 35 3q34 0 58 -14q36 -20 47 -54q5 -14 5 -30 q1 -22 -9 -45q-16 -40 -63 -69q-37 -23 -83 -55.5t-93 -69t-90 -75.5t-73.5 -75t-43 -65.5t1.5 -46.5q19 -22 56 -22q12 1 26 3q58 10 132.5 42.5t157.5 78.5t157 93q41 27 79 27q3 -1 7 -1q41 -2 58 -24q10 -12 10 -28q0 -12 -6 -28q-13 -36 -73 -75q-51 -35 -123.5 -80 t-153.5 -88t-166 -78t-162 -47q-33 -5 -63 -5q-40 0 -74 9q-60 16 -95 76q-22 38 -22 80q-1 12 1 24q8 56 39 110t76 104t92 91t88 71t64 42q-2 6 -14.5 6t-32 -3t-44 -6t-51.5 -1q-43 -76 -130 -158t-197 -147q-38 -23 -75 -23h-6q-39 2 -59 22q-12 13 -13 32q1 11 5 24z " />
<glyph unicode="s" horiz-adv-x="1001" d="M-76 341q14 36 76 77q45 29 121 76t150.5 93t130 83t61.5 47q0 61 19.5 102t47.5 65q29 26 62 36q28 9 52 8h9q35 -2 53 -24q20 -23 20 -56q0 -31 -16 -66q-18 -37 -57 -69q66 -119 68 -259v-11q0 -135 -51 -248q59 35 113.5 71.5t98.5 67.5t75.5 53.5t43.5 30.5 q42 25 81 25q1 -1 2 -1q40 0 58 -20q11 -12 12 -31q0 -11 -5 -25q-12 -34 -72 -77q-23 -16 -77 -52t-125.5 -80t-156.5 -91.5t-170 -86t-166 -63.5t-142 -25q-55 0 -107 13q-72 18 -117 61t-61 96q-6 19 -6 35q0 20 9 36q17 30 46 41t61.5 3t51.5 -43q20 -35 49 -49 q37 -18 73 -18q37 -1 71 18q70 37 122 115q29 41 51.5 92t34.5 105q11 49 11 96v8q-1 51 -19 92q-27 -20 -77 -58t-111.5 -81t-125 -87t-118.5 -77q-47 -30 -87 -30h-3q-42 1 -60 23q-10 13 -10 30q0 13 6 29z" />
<glyph unicode="t" horiz-adv-x="851" d="M-64 214q6 62 34 136t79 152q57 88 111.5 164.5t107.5 142.5h-26q-53 0 -76 19.5t-23 44t21.5 45t60.5 24.5q80 6 181 25q166 176 284 229q59 26 100.5 26t67.5 -26q23 -25 23 -60q0 -28 -15 -63q78 23 135 41.5t80 32.5q30 18 55 18q14 1 27 -5q35 -16 45 -55 q4 -13 4 -28q0 -27 -12 -58q-20 -48 -82 -85q-23 -12 -65.5 -24.5t-99 -24t-124 -22.5t-137.5 -19q-92 -92 -201.5 -184.5t-209.5 -176.5q-63 -91 -94 -157q-17 -36 -17 -60q0 -21 12 -33q20 -20 68.5 -20t111 14.5t134 39t139 51t125 53t92.5 47.5q46 26 82 26h9 q40 -4 55.5 -26.5t1 -57t-69.5 -71.5q-152 -98 -297.5 -159.5t-268 -90.5t-214 -29t-134.5 23q-46 25 -66 72q-15 37 -16 82q1 13 2 27z" />
<glyph unicode="u" horiz-adv-x="1593" d="M-76 341q14 36 76 77q20 12 63 38.5t99.5 59.5t120 71t123 75.5t108.5 70.5t78 58q42 37 102 50q39 8 72 8q18 0 34 -2q46 -7 66 -34q8 -10 8 -22q0 -21 -22 -48q-23 -29 -72 -73.5t-108.5 -97t-119.5 -106.5t-107.5 -102.5t-73 -84t-11.5 -52.5q5 -7 16 -7q16 0 46 14 q50 22 121 68t158 109.5t176.5 129t173.5 128t151 107.5q63 50 129 62q30 5 56 6q30 0 54 -8q44 -14 51 -46q1 -4 1 -8q0 -30 -47 -65q-98 -74 -178 -152t-131.5 -145.5t-69.5 -119.5q-8 -23 -8 -41q0 -21 12 -32q13 -11 39 -11q20 0 48 6q64 16 141 48.5t158 74.5t136 73 q52 30 95 30h4q44 -2 62 -24q9 -11 9 -25q-1 -15 -9 -33q-18 -36 -83 -77q-45 -27 -110.5 -66t-143.5 -79t-159 -74q-80 -36 -156 -54q-62 -15 -116 -15q-12 0 -22 1q-62 4 -100 43q-37 35 -46 99q-2 17 -2 36q0 51 18 111q-104 -80 -210 -146.5t-200 -104.5t-169 -41h-9 q-69 0 -109 46q-31 35 -31 83t16.5 96t43.5 90t49 65q-37 -25 -71.5 -48.5t-65.5 -41.5q-47 -30 -88 -30h-3q-41 1 -59 23q-10 12 -10 29q-1 14 6 30z" />
<glyph unicode="v" horiz-adv-x="1533" d="M-76 341q14 36 76 77q20 12 63 38.5t99.5 59.5t120 71t123 75.5t109.5 70.5t79 58q42 37 102 49q38 8 71 8q19 0 36 -3q47 -7 67 -33q7 -9 6 -21q0 -21 -22 -48q-61 -72 -125.5 -153.5t-112.5 -157.5t-70 -138q-10 -27 -10 -47q0 -26 15 -42q8 -9 26 -9q17 0 43 8 q52 17 122.5 57t151.5 97.5t155 120.5q-11 47 -11 91q0 28 4 52q11 66 42.5 115t81 78t108.5 29q63 0 101 -28q37 -28 49 -71q5 -20 6 -41q0 -25 -8 -53q-14 -51 -50 -96q-23 -27 -45 -52.5t-47 -49.5q25 -18 55.5 -32.5t64.5 -20.5q23 -4 47 -5q11 0 21 1q34 3 66 22 q44 25 80 25q6 -1 11 -1q39 -4 55 -26q8 -12 9 -27t-7 -31q-14 -34 -72 -69q-63 -39 -130 -49q-34 -5 -66 -4.5t-62 4.5q-62 10 -115 34.5t-88 55.5q-117 -98 -242 -173t-236.5 -116t-198.5 -42h-4q-84 0 -126 46q-31 35 -41 91q-5 28 -5 59t5 63q10 66 39 132.5t76 121.5 q-12 -8 -39 -26.5t-61.5 -41t-71.5 -47t-71 -47t-59.5 -39t-35.5 -22.5q-47 -30 -88 -30h-3q-41 1 -59 23q-10 12 -10 29q-1 14 6 30z" />
<glyph unicode="w" horiz-adv-x="2031" d="M-76 341q14 36 76 77q20 12 63 38.5t99.5 59.5t120 71t123 75.5t108.5 70.5t78 58q42 37 102 50q39 8 72 8q18 0 34 -2q46 -7 66 -34q8 -10 8 -23q0 -20 -20 -47q-23 -29 -71 -71.5t-104 -92t-113.5 -102.5t-99.5 -100t-62 -87q-9 -19 -9 -35t11 -28q6 -7 22 -8 q18 -1 50 11q58 20 135 63t158 101.5t142 117.5q80 135 170.5 217t182.5 82q54 1 74 -29q11 -16 11 -39q-1 -19 -7 -39q-16 -48 -64.5 -106.5t-130.5 -118.5q-25 -43 -50.5 -84t-42 -76.5t-20.5 -65.5t13 -48q8 -9 26 -9q17 0 42 8q52 17 123 57t152 97.5t154 120.5 q-11 47 -11 91q0 28 4 52q11 66 44 115t81.5 78t107.5 29q63 0 101 -28t49 -71q5 -20 5 -41q0 -25 -7 -53q-13 -51 -50 -96q-43 -51 -90 -102q48 -37 118 -53q22 -5 44 -6q46 0 90 24q44 25 80 25q6 -1 11 -1q40 -4 55 -26q8 -12 8 -27t-7 -31q-14 -34 -72 -69 q-63 -39 -129 -49q-33 -5 -65.5 -4.5t-62.5 4.5q-62 10 -115.5 34.5t-87.5 55.5q-117 -98 -240 -171t-234.5 -113t-199.5 -43h-11q-80 0 -122 42q-33 31 -47.5 77t-16.5 93q-90 -68 -177 -119q-87 -50 -163 -76q-66 -22 -120 -23q-9 0 -17 1q-61 4 -100 47q-52 58 -52 128 q0 14 2 29q13 87 66 177q-37 -25 -71.5 -48.5t-65.5 -41.5q-47 -30 -88 -30h-3q-41 1 -59 23q-10 12 -10 29q-1 14 6 30z" />
<glyph unicode="x" horiz-adv-x="1218" d="M-152 -86q2 41 56 90q20 20 64 56t102.5 83t130 103.5t149.5 115.5q-1 23 -1 46v23q1 34 3 69q-51 -53 -123.5 -107.5t-152.5 -103.5q-38 -23 -75 -23h-6q-40 2 -59.5 22.5t-8 55.5t72.5 74q45 29 106.5 74t123 96t112.5 102t80 92q29 51 78 76q47 24 89 24h3 q44 -1 68 -31q13 -16 12 -40q0 -21 -10 -49q-16 -41 -32 -97.5t-28 -115.5q88 63 172 121.5t159 106.5t134 81t98 47q37 13 67 13q22 0 40 -6q44 -16 62 -49q13 -22 14 -45q0 -12 -4 -24q-10 -36 -50 -55q-57 -27 -138 -69.5t-174 -98t-196.5 -121t-203.5 -133.5 q4 -53 19 -88.5t48 -46.5q18 -6 58.5 3.5t91.5 28.5t109.5 46t114.5 55.5t107.5 55t88.5 47.5q52 30 95 30h4q44 -2 62 -24q9 -11 8 -25q0 -15 -8 -33q-18 -36 -84 -77t-161 -101.5t-203 -111.5t-216 -77q-51 -12 -99 -12q-54 0 -103 15q-49 14 -82 61.5t-51 112.5 q-111 -80 -200 -153.5t-146 -135.5q-43 -45 -89 -51q-10 -1 -19 -1q-33 1 -54 17q-25 20 -25 56v6z" />
<glyph unicode="y" horiz-adv-x="1452" d="M-128 -376q34 71 122 140.5t224 131t308 104.5q10 14 68.5 84t136.5 166q-86 -63 -171 -110.5t-158.5 -75t-131.5 -32.5q-13 -1 -25 -1q-42 0 -69 14q-33 18 -45 56q-7 21 -7 45q0 21 5 44q10 50 44 108t95 118q-18 -12 -44.5 -30.5t-54.5 -37t-52.5 -35t-40.5 -24.5 q-47 -30 -87 -30h-3q-41 1 -58.5 23.5t-3 58.5t75.5 77q20 12 63 38.5t99.5 59.5t120 71t123 75.5t108.5 70.5t78 58q43 37 102 50q39 8 72 8q18 0 34 -2q46 -7 66 -34q8 -10 8 -22q0 -21 -22 -48q-23 -29 -73 -72.5t-108.5 -94t-118.5 -101.5t-102 -95t-57.5 -75t13.5 -39 q7 -2 16 -2q26 0 65 18q52 23 117.5 68t141 103.5t153.5 119t153.5 115.5t139.5 92q45 27 95 33q20 2 38 2q27 0 49 -5q37 -9 51.5 -29.5t-16.5 -47.5q-43 -37 -107.5 -106.5t-138 -154.5t-149.5 -175t-140 -168l226 109q47 20 102 46.5t104.5 53.5t89.5 48.5t56 31.5 q44 25 83 25q1 0 2 -1q40 0 59 -20q11 -13 11 -30q0 -12 -5 -26q-13 -34 -72 -77q-23 -16 -63 -41t-91 -54.5t-110.5 -59.5t-120.5 -56l-483 -213q-131 -156 -260.5 -253t-237.5 -141q-94 -39 -165 -39q-9 0 -19 1q-76 6 -107 59q-18 31 -18 64t17 68z" />
<glyph unicode="z" horiz-adv-x="1071" d="M-201 -276q15 38 57 73t104.5 66t135 58.5t150.5 51t147 41.5q37 52 55 94q13 32 13 56q0 8 -2 16q-6 30 -40 44q-23 10 -61 9q-19 0 -41 -2q-9 -1 -18 -1q-39 0 -53 16q-16 20 -5 50t42.5 62.5t74.5 55.5v2q86 51 157 100t113 88t46 62.5t-41 23.5q-47 0 -100.5 -36 t-120 -94t-149.5 -130t-185 -141q-40 -28 -77 -28h-3q-39 1 -58.5 21.5t-9 56.5t69.5 79q119 84 191.5 152.5t126 121.5t103.5 91t126 63q73 23 135 23q16 1 30 -1q74 -8 120 -38q45 -32 58 -82q4 -16 4 -33q0 -36 -18 -76q-28 -59 -102 -122.5t-203 -119.5q61 -43 86 -98 q18 -39 18 -83q0 -18 -3 -36q104 63 212.5 128t186.5 110q44 25 83 25q1 -1 2 -1q40 0 58 -20q11 -12 12 -30q0 -12 -6 -26q-12 -34 -71 -77q-14 -10 -77.5 -48t-150.5 -88.5t-183.5 -106.5t-178.5 -101l-18 -25q-111 -139 -229 -219q-118 -81 -220 -111q-69 -20 -125 -20 q-28 0 -53 5q-76 15 -107 71q-14 25 -14 48q0 15 6 30z" />
<glyph unicode="{" horiz-adv-x="1062" d="M3 -104.5q7 75.5 44 145.5t90 132.5t97.5 114.5t64.5 94t-8 71q-16 14 -25.5 52t2 74.5t53 60.5t130.5 9q80 -12 129 11.5t88 69.5t75.5 109.5t92 131t140.5 133t220 117.5q98 37 173 27.5t111 -42t23.5 -76.5t-86.5 -73q-125 -49 -211 -112.5t-152.5 -130t-121.5 -130 t-117.5 -114t-144.5 -81t-199 -30.5q51 -57 53 -115.5t-23.5 -117t-67.5 -115t-75.5 -106.5t-49 -94t10.5 -77q37 -47 38 -83t-21.5 -58.5t-62.5 -32.5t-83 -5t-82.5 25.5t-62.5 59.5q-49 80 -42 155.5z" />
<glyph unicode="|" horiz-adv-x="1159" d="M176 -156q18 88 59 205t97.5 248t127 267t151.5 265t168 244t177 199q47 47 95.5 54t80 -10.5t39 -54t-25.5 -79.5q-100 -127 -204.5 -275.5t-207 -318.5t-202 -363.5t-187.5 -412.5q-23 -55 -56.5 -78t-63 -16.5t-45 39t-3.5 87.5z" />
<glyph unicode="}" horiz-adv-x="1089" d="M-416 -226.5q12 43.5 86 72.5q125 49 212 113t152.5 130.5t121 130t118 113.5t143.5 80.5t197 30.5q-51 57 -53 117t24.5 118t67.5 114.5t76 106.5t50.5 93t-11.5 76q-37 47 -38 83t22.5 58.5t62.5 32.5t82 5t83 -25.5t64 -59.5q49 -80 42 -155.5t-43.5 -145t-91 -132 t-98.5 -116t-64.5 -94.5t8.5 -69q14 -14 24 -52.5t-1 -75t-53 -60t-130 -9.5q-80 12 -129 -11.5t-88 -69.5t-76 -109.5t-92 -131t-141 -133t-220 -116.5q-98 -37 -173.5 -28t-110.5 42t-23 76.5z" />
<glyph unicode="~" horiz-adv-x="1236" d="M230.5 388q7.5 30 37.5 54q18 14 62.5 47t99.5 63t113.5 47t107.5 3q29 -10 47.5 -27.5t31.5 -38t24.5 -38t29.5 -23.5q35 -16 71 6.5t65 57.5q25 31 62.5 45t70 14t53 -16.5t12.5 -46.5q-12 -41 -58 -89.5t-109.5 -88.5t-133 -61.5t-127.5 -6.5q-33 8 -52.5 27.5 t-34.5 41t-31.5 38t-43.5 20.5q-23 2 -45 -7.5t-43.5 -23.5t-42 -29.5t-39.5 -25.5q-45 -25 -75.5 -20t-45 26.5t-7 51.5z" />
<glyph unicode="&#xa1;" horiz-adv-x="1136" d="M41 61q6 41 80 91q49 33 117.5 84t144.5 111.5t154.5 124t147.5 122.5t123 107.5t83 76.5q43 43 81 52.5t59.5 -6t20.5 -49.5t-34 -77q-31 -39 -80 -98t-108.5 -128t-126 -140.5t-133 -135t-130 -112.5t-114.5 -72q-78 -35 -147.5 -36t-106.5 21.5t-31 63.5zM963 1075 q-8 39 17.5 78t68.5 70.5t96 52t102 26t86 -9t45 -53.5q10 -47 -13.5 -89t-67.5 -76t-98 -55.5t-103 -24.5t-87 15.5t-46 65.5z" />
<glyph unicode="&#xa2;" horiz-adv-x="1136" d="M-68.5 215q-1.5 88 52.5 180q66 109 162 217.5t206 194.5q119 92 242 164.5t252 113.5q43 53 86 99.5t86 87.5q47 47 90 53t68.5 -12.5t26.5 -55t-36 -75.5l-53 -60q78 -6 132 -36.5t77 -86.5q23 -66 8.5 -112.5t-48.5 -73.5t-77 -35t-73.5 4.5t-42 45t19.5 87.5 q-8 18 -40 33t-77 10q-6 -2 -18 -2q-125 -160 -233.5 -337t-211.5 -383l80 45q39 23 69 20.5t42 -8.5q45 -20 49 -72q4 -33 -16.5 -64.5t-59.5 -54.5q-72 -39 -142.5 -61.5t-129.5 -38.5l-80 -190q-23 -55 -56.5 -78t-63 -16.5t-45 39t-3.5 87.5q12 61 37 136 q-72 4 -128 25.5t-91 62.5q-59 59 -60.5 147zM177.5 257q-5.5 -46 25.5 -75q29 -29 78 -28q68 158 164.5 331.5t207.5 339.5q-35 -23 -69.5 -47t-69.5 -53q-113 -92 -197 -194.5t-118 -190.5q-16 -37 -21.5 -83z" />
<glyph unicode="&#xa3;" horiz-adv-x="1421" d="M-139 -61.5q0 22.5 8 53.5t31 71q84 162 198 310q-55 8 -69.5 36.5t3 59.5t63.5 56.5t114 25.5h29q143 162 321 287q336 238 692 258q98 6 176 -23t113 -86q18 -29 23.5 -75t-29.5 -109q-33 -59 -94.5 -104.5t-134 -76t-149.5 -46t-140 -15.5h-21.5t-21.5 2 q-31 2 -56.5 15.5t-42 32t-25.5 41t-7 42.5q4 29 28.5 52.5t83.5 17.5q80 -6 144.5 2t114 25.5t80 40t42.5 40.5q4 6 8.5 16.5t-0.5 18.5q-6 10 -28.5 19.5t-67.5 9.5q-117 0 -253 -55.5t-279 -159.5q-104 -76 -189 -160q59 4 109.5 10.5t107.5 12.5q78 8 107 -18.5 t11.5 -63.5t-77 -72t-157.5 -47q-92 -10 -159 -15.5t-134 -5.5q-61 -66 -111.5 -129t-83.5 -122q162 66 305.5 97.5t264 38.5t216 -7.5t162.5 -40.5q115 -45 148 -123q20 -49 -1.5 -86t-55.5 -56q-37 -18 -81 -12t-71 47q-16 27 -69.5 45.5t-131 26.5t-173 4t-197 -21.5 t-202.5 -50t-192 -84.5q-61 -37 -112 -36q-39 0 -64 24q-10 8 -17 23.5t-7 38z" />
<glyph unicode="&#xa4;" horiz-adv-x="1284" d="M165 190.5q-11 36.5 3 78.5t65 67q37 14 74 35q-4 45 8.5 93t38 94t63.5 90t83 81q-18 35 -32.5 61.5t-21.5 47.5q-14 41 4.5 77.5t51.5 53t68.5 4.5t58.5 -68q14 -35 37 -78q72 29 142.5 32t133.5 -28l137 117q45 41 81 32t49.5 -48t-3 -96.5t-73.5 -110.5l-68 -55 q10 -78 -25.5 -165t-103.5 -161q33 -66 43 -102q8 -49 -13.5 -87t-53 -52.5t-64.5 -2t-45 65.5q-6 25 -19 55q-92 -51 -189 -59t-185 51q-39 -25 -69 -44t-52 -30q-45 -23 -79 -4t-45 55.5zM527.5 443.5q-4.5 -37.5 13.5 -64.5q23 -33 60.5 -33t78.5 20.5t79 56.5t62.5 76 t29.5 76.5t-20 59.5q-31 29 -69.5 29t-77.5 -19.5t-72.5 -53.5t-56.5 -72t-27.5 -75.5z" />
<glyph unicode="&#xa5;" horiz-adv-x="1513" d="M70.5 63.5q13.5 30.5 52.5 56t96 25.5h51q6 10 14.5 21.5t16.5 21.5h-49q-66 0 -86.5 25t-6 53.5t59.5 55t115 30.5q53 4 95 7t77 8l41 24q-31 -4 -66 -7t-67.5 -1t-58 10t-40.5 27q-33 43 -19.5 134t95.5 208q29 41 53.5 76.5t40.5 64.5q-33 18 -45 60q-8 31 2.5 62.5 t36.5 53.5q8 6 22.5 13.5t35 10.5t47 -1t59.5 -21q51 -27 64 -73q8 -35 -3.5 -77t-35 -86t-56 -90t-69.5 -91q-33 -41 -40 -72t13.5 -44t69.5 -5t129 49q86 43 154.5 82t82.5 47q117 106 221.5 186t196.5 127q213 113 299 21q29 -31 19 -72q-8 -41 -52.5 -85t-109 -88 t-142 -88t-155.5 -82t-147.5 -68.5t-118.5 -49.5q-135 -49 -238 -127l98 13q47 4 73 -18.5t18.5 -54.5t-54.5 -63.5t-143 -48.5q-66 -10 -111 -17t-86 -11q-8 -10 -14 -18.5t-12 -18.5l143 20q63 6 87 -18.5t10.5 -60.5t-63.5 -69.5t-132 -43.5q-31 -4 -54.5 -7.5 t-46.5 -5.5q4 -18 1 -35.5t-13 -33.5q-33 -53 -96 -54h-6q-18 2 -49 14.5t-54 57.5q-12 20 -12 47q-16 0 -31.5 1t-34.5 3q-53 4 -69.5 32t-3 58.5z" />
<glyph unicode="&#xa6;" horiz-adv-x="1159" d="M80 -156q14 53 58 139.5t95.5 176.5t100.5 170t78 119q31 41 72.5 57t76.5 13t52.5 -21.5t-1.5 -48.5q-31 -49 -81 -134.5t-104 -178.5t-103.5 -181t-75.5 -143q-18 -39 -51 -51.5t-63 -6.5t-47 30.5t-7 59.5zM547 709q10 35 36.5 83t62.5 101t78 107.5t82 103.5t76 88 t60 61q49 45 100.5 60.5t87 6.5t49 -40t-11.5 -80q-8 -16 -53 -66.5t-109.5 -123t-138 -161.5t-137.5 -185q-25 -35 -60.5 -47.5t-66.5 -5.5t-49 33t-6 65z" />
<glyph unicode="&#xa7;" horiz-adv-x="1361" d="M28 8q-8 53 8.5 111.5t60.5 119t122 115.5q53 39 105.5 42t87.5 -13q47 -23 47 -66q2 -18 -11.5 -42.5t-60.5 -53.5q-70 -39 -108.5 -85t-38.5 -89t45 -70q27 -14 67.5 -20t96 3t123 34.5t147.5 75.5q78 45 130 91t80.5 87t36 73.5t-0.5 53.5q-12 29 -70.5 38t-175.5 -28 q-74 -25 -123 -25t-81 12.5t-47 31t-22 32.5q-29 61 12.5 156.5t145.5 187.5q-4 13 -4 17q-10 43 11.5 98t71.5 110.5t130 106.5t186 88q111 39 196 47t147.5 -5t102.5 -43t58 -66q31 -63 7.5 -131t-89.5 -113q-51 -35 -101 -27t-73 37q-16 23 -17 54.5t38 66.5q14 14 10 24 q-4 4 -17.5 10.5t-40 6.5t-68.5 -8.5t-103 -28.5q-100 -35 -156.5 -77t-67.5 -60q6 -2 24.5 -3t59.5 7q86 16 155 8t118 -33.5t79.5 -64.5t43.5 -84q16 -66 -1.5 -135.5t-70.5 -135.5q-12 -16 -26.5 -30.5t-30.5 -28.5q6 -96 -48 -192q-90 -164 -321 -293 q-125 -70 -233.5 -100.5t-200.5 -30.5q-113 0 -191 38.5t-119 102.5q-27 43 -35 96zM653 561q8 0 26.5 2t57.5 17q111 41 196 32.5t140 -45.5q35 47 29 84q-8 29 -63.5 48.5t-178.5 2.5q-20 -4 -37.5 -5t-34.5 -3q-61 -41 -96 -78.5t-39 -54.5z" />
<glyph unicode="&#xa8;" horiz-adv-x="724" d="M2.5 1042.5q7.5 36.5 33 71.5t65.5 61.5t81 40t78 7.5t59 -39q23 -33 16 -70t-34 -69.5t-64.5 -60.5t-78.5 -40t-78 -6t-60 37q-25 31 -17.5 67.5zM373 1018q-18 57 25.5 115.5t109 95.5t128 38t81.5 -57q10 -39 -7.5 -77.5t-51 -71.5t-77.5 -57.5t-86 -33.5t-76 1 t-46 47z" />
<glyph unicode="&#xa9;" horiz-adv-x="1988" d="M-70.5 39q-19.5 154 38 305.5t178 292.5t277.5 257t338 195.5t360 107.5t343 -3.5t285 -142.5q102 -92 136 -206t14.5 -237t-87 -249t-169 -244.5t-230.5 -222t-270.5 -181.5t-288.5 -124t-288.5 -47t-268.5 48.5t-225 159.5q-123 137 -142.5 291zM157.5 55.5 q10.5 -106.5 98.5 -188.5q98 -92 227 -113.5t269.5 11t282 109.5t264 178.5t217 219t141.5 233.5t36.5 220t-98.5 178q-100 84 -229 102.5t-269.5 -12t-281.5 -104.5t-263 -171t-216 -212t-141.5 -229.5t-37 -221zM288 135q9 88 68 176q66 98 158 190.5t195 164.5 q268 188 557 206q86 6 154.5 -20.5t101.5 -79.5q14 -23 22 -66.5t-26 -107.5q-31 -53 -83.5 -92t-113.5 -63.5t-123.5 -37t-112.5 -12.5q-27 0 -36 2q-66 6 -101 49t-30 86q2 16 10 35q-16 -10 -30.5 -20t-31.5 -21q-98 -72 -175 -155.5t-113 -157.5q-41 -82 -19 -115 q6 -10 23.5 -16t52.5 -3t89 21.5t138 59.5q47 23 77 16.5t46 -16.5q51 -33 47 -97q-4 -41 -27.5 -73.5t-64.5 -53.5q-66 -31 -128 -47t-116 -24q-57 -10 -102 -10q-92 0 -162 32.5t-108 91.5q-45 70 -36 158zM1012 614h28q57 -6 102.5 0.5t79 17.5t55.5 24.5t30 25.5 q-6 2 -15.5 3t-25.5 1q-115 0 -254 -72z" />
<glyph unicode="&#xaa;" horiz-adv-x="1275" d="M318.5 548q-15.5 58 6 125.5t75 140.5t125 141.5t157.5 128t175 100.5t176 58.5t159 2.5q51 -10 65.5 -48t4 -78t-37 -68.5t-57.5 -20.5q-68 16 -148.5 -5t-158.5 -65.5t-147.5 -102.5t-114.5 -112.5t-59.5 -95.5t16.5 -53q27 -10 72 6t97 48t110.5 74t110.5 82t97 73.5 t72 50.5q49 29 104.5 39t96.5 4t57.5 -27.5t-14.5 -56.5t-64.5 -77t-58.5 -82t-35 -70.5t8 -38.5q14 -8 51 2t84.5 29.5t100.5 46t101 52t86 46t55 30.5q43 25 82.5 25t58 -20.5t6.5 -55.5t-72 -78q-35 -25 -112.5 -71.5t-174 -95t-196.5 -83t-180 -34.5q-66 0 -92.5 30.5 t-27.5 73.5t18.5 91t47.5 83q-66 -49 -146.5 -110.5t-167.5 -105.5t-173 -58.5t-162 33.5q-61 39 -76.5 97z" />
<glyph unicode="&#xab;" horiz-adv-x="1409" d="M276 408.5q-2 27.5 16.5 57.5t57.5 58.5t94 44.5q43 12 103.5 32t124 44.5t124 51t107.5 48.5q51 27 88 11.5t45 -51.5q66 25 127.5 52t108.5 50q45 23 79.5 13.5t48 -38t-1 -68.5t-65.5 -77q-33 -25 -100.5 -51.5t-134.5 -48.5q-82 -27 -172 -52q31 -29 59 -55 q25 -23 49.5 -50.5t38.5 -49.5q27 -43 8.5 -81t-56.5 -58.5t-84 -16.5t-73 47q-41 61 -92 120.5t-104 88.5q-12 4 -21 21q-23 -6 -39 -11.5t-28 -9.5q-14 -4 -27 -6q31 -29 59 -55q25 -23 49.5 -50.5t39.5 -50.5q27 -43 8 -80.5t-57 -58t-84 -16.5t-72 47 q-41 61 -92.5 120.5t-104.5 88.5q-25 12 -27 39.5z" />
<glyph unicode="&#xac;" horiz-adv-x="937" d="M91 568.5q11 31.5 45 58t85 26.5q82 2 162 5.5t151.5 7.5t131 9t100.5 11q33 4 52.5 -3t27.5 -23.5t6 -38t-14 -43.5q-12 -25 -27.5 -57t-31 -68.5t-28 -76.5t-14.5 -79q-4 -55 -37.5 -79.5t-73.5 -27t-76 13t-48 40.5q-23 49 1.5 106.5t61.5 122.5q-100 -8 -208.5 -8 t-200.5 10q-47 4 -61.5 33t-3.5 60.5z" />
<glyph unicode="&#xad;" horiz-adv-x="1034" d="M254 384q12 32 46 58.5t85 26.5q82 2 137.5 5t98.5 7t77.5 10.5t75.5 12.5q55 8 75.5 -18.5t8.5 -63.5t-55 -72t-113 -47q-57 -10 -100 -15t-83 -6t-85 1t-105 8q-47 4 -61 32.5t-2 60.5z" />
<glyph unicode="&#xae;" horiz-adv-x="1988" d="M-72.5 39q-19.5 154 36.5 305.5t177 292.5t277.5 257t338 195.5t360.5 107.5t343 -3.5t285 -142.5q127 -115 150.5 -262.5t-32 -304t-176 -310.5t-278.5 -282t-341 -218t-363.5 -119.5t-346 12.5t-288.5 181q-123 137 -142.5 291zM153.5 134q-8.5 -75 15.5 -143.5 t83 -123.5q84 -80 191.5 -105.5t226 -10t241.5 66.5t238 127q-47 16 -91 42.5t-83 55.5t-70 54.5t-47 41.5q-14 0 -31.5 1t-37 7.5t-38 18.5t-32.5 33q-4 8 -8 15t-9 15q-53 -63 -91 -118.5t-48 -87.5q-29 -84 -98 -95q-4 0 -7 -1t-7 -1q-51 0 -89 49q-23 31 -23.5 69 t19.5 73q18 33 57.5 85t94.5 115.5t121.5 131t138.5 129.5q-86 -41 -166 -89.5t-145 -103.5q-37 -33 -65.5 -36t-47.5 3q-23 10 -38 28.5t-19 47.5q-2 6 -2 18q-55 -78 -90 -157.5t-43.5 -154.5zM555 723q94 49 198.5 87t208 61.5t198.5 30.5t169 -7q125 -23 170 -100 q51 -90 21 -191q-61 -197 -459 -391q18 -16 43 -31q59 -41 88 -49t37 -8q23 41 49.5 50t40.5 7q43 0 74 -43q100 98 173.5 205t105.5 208t15.5 192.5t-94.5 158.5q-98 84 -227 102.5t-268.5 -12t-279.5 -102.5t-263 -168zM827 369q47 0 86 -27q66 29 132.5 66.5t123 78.5 t96.5 81t52 75q8 23 0 35q-10 16 -47 22q-33 4 -76 2t-94 -12q12 -16 12 -35q2 -53 -74 -98q-39 -23 -95 -73t-116 -115z" />
<glyph unicode="&#xaf;" horiz-adv-x="722" d="M8 1080.5q12 31.5 46 58t85 26.5q164 4 287 13.5t205 21.5q55 8 75.5 -18.5t8 -63.5t-55.5 -71.5t-112 -47.5q-231 -37 -475 -12q-47 4 -61.5 33t-2.5 60.5z" />
<glyph unicode="&#xb0;" horiz-adv-x="700" d="M229 752.5q4 50.5 35 105.5q31 57 83 106.5t114.5 86t130.5 58t131 21.5q106 0 155.5 -39.5t51.5 -101t-38 -131.5t-109.5 -131t-164 -101t-200.5 -40q-63 0 -107.5 21.5t-65 58t-16.5 87zM443 801.5q3 -27.5 42 -27.5q20 0 47 9.5t55.5 23.5t54.5 34t44 38 q35 41 32 68.5t-44 27.5q-18 0 -46 -9.5t-55.5 -24.5t-53 -33.5t-44.5 -39.5q-35 -39 -32 -66.5z" />
<glyph unicode="&#xb1;" horiz-adv-x="1017" d="M-31.5 118q11.5 32 45 58.5t84.5 26.5q82 2 162 5t151.5 7t131 9t100.5 12q55 8 75.5 -19t8.5 -63.5t-55 -71.5t-115 -47q-55 -8 -122.5 -13.5t-137.5 -6.5t-138.5 1t-127.5 9q-47 4 -60.5 32.5t-2 60.5zM173 589q11 32 45 58.5t85 26.5q102 0 199 6q35 51 61.5 94 t44.5 72q20 35 58.5 45t69 -2t43 -45t-16.5 -82l-43 -68l129 13q55 8 75.5 -18.5t8.5 -63.5t-55 -72t-115 -47q-39 -6 -83 -10t-91 -9q-41 -59 -78 -109t-59 -77q-31 -37 -72 -45t-69.5 4t-38 43t21.5 72q16 23 36.5 50.5t43.5 59.5q-35 2 -70 4.5t-67 6.5q-47 4 -60.5 32.5 t-2.5 60.5z" />
<glyph unicode="&#xb2;" horiz-adv-x="1355" d="M121 469q4 61 46 102t108.5 57.5t150.5 7.5t170 -46q100 37 213 95t220.5 126t202.5 139.5t162.5 138t100.5 120t16 85.5q-18 33 -79.5 31t-143.5 -26.5t-169 -65.5t-156.5 -88t-108 -93t-20.5 -79q16 -33 1.5 -59.5t-46 -44t-71.5 -20.5t-73 12.5t-52.5 53t-10.5 103.5 q12 82 81.5 163t172 149.5t226.5 118.5t244.5 73.5t225 13.5t170.5 -63q72 -61 75 -141.5t-47.5 -170.5t-143.5 -183t-208.5 -178t-248 -157t-259.5 -119q115 -29 200 -42t147.5 -10t104.5 23.5t71 59.5q25 31 63.5 29t68 -29t36 -74t-34.5 -106q-51 -72 -123 -94.5 t-179.5 -11t-259 49t-360.5 87.5q-80 -35 -168 -55.5t-159.5 -17.5t-115.5 34.5t-40 101.5z" />
<glyph unicode="&#xb3;" horiz-adv-x="1146" d="M190 565q-20 57 9.5 105.5t73.5 70t89.5 9t55.5 -71.5q12 -76 70.5 -105.5t138.5 -27.5t171 32.5t170 77.5t132 104.5t59 117.5q-66 -27 -129 -41.5t-117.5 -12.5t-96.5 20.5t-62 59.5q-23 41 4.5 79t86 66.5t136.5 43t154 6.5q49 16 95 42.5t79.5 57.5t51 59.5t9.5 47.5 q-14 31 -62 41t-110.5 2.5t-132.5 -26.5t-124 -47t-85.5 -60.5t-21.5 -65.5q8 -27 -5.5 -43t-40 -24.5t-59.5 -6.5t-62.5 15.5t-52 39t-24.5 64.5q-6 76 51 138.5t152.5 107.5t212 69.5t226 25.5t200 -24.5t131.5 -80.5t40 -116t-34 -120t-89.5 -114.5t-125.5 -102.5 q10 -18 16 -35q31 -84 3.5 -168t-94.5 -158.5t-164 -136t-205.5 -100.5t-222.5 -53.5t-212 4t-174 76t-111 159.5z" />
<glyph unicode="&#xb4;" horiz-adv-x="698" d="M3 958.5q-1 24.5 16.5 52.5t56.5 44q49 20 121.5 57t149.5 72t147.5 59.5t115.5 22.5t65.5 -34t19.5 -70t-22.5 -71.5t-62.5 -39.5t-118.5 -26.5t-160.5 -45.5t-156 -45.5t-105 -26.5q-31 -6 -48.5 10.5t-18.5 41z" />
<glyph unicode="&#xb5;" horiz-adv-x="1593" d="M-318.5 -409.5q-25.5 47.5 5.5 114.5q41 90 116.5 199.5t166.5 222.5t188.5 221.5t184.5 198.5t153.5 154.5t95.5 89.5q43 37 102.5 50t105.5 6t66.5 -34t-14.5 -70q-23 -29 -72 -73.5t-108.5 -97t-119.5 -106.5t-107.5 -102.5t-73 -84t-11.5 -52.5q12 -16 61.5 6.5 t121 68.5t158.5 109.5t176.5 129t173.5 128t151 107.5q63 51 129 62.5t110 -2t51 -47t-46 -72.5q-98 -74 -178 -152t-131.5 -145.5t-69.5 -119.5t4 -73q23 -20 86.5 -4.5t141 48t158.5 74.5t136 73t99.5 29.5t62 -23t0 -58t-83.5 -77.5q-45 -27 -110.5 -66t-143.5 -79 t-158.5 -74.5t-156.5 -53t-138.5 -14.5t-99.5 43q-37 35 -46 99.5t16 146.5q-102 -80 -208 -146.5t-200 -104.5t-169 -41t-118 44q-35 -51 -70.5 -109.5t-67.5 -118t-56.5 -117.5t-36.5 -108q-14 -57 -62.5 -71.5t-93.5 5t-70.5 67z" />
<glyph unicode="&#xb6;" horiz-adv-x="1705" d="M176 -156q18 88 72.5 205t132.5 247t174 267t199 266q-53 25 -70.5 73t-3.5 103.5t58 115t114 107.5t163 81t204 37q82 2 178 4t188 5t169 7t118 10q55 8 75.5 -18.5t8.5 -63.5t-55 -71.5t-113 -47.5l-25 -4q-100 -127 -233 -273t-270.5 -315t-263.5 -360.5t-214 -406.5 q-23 -55 -56.5 -78t-63 -16.5t-45 39t-3.5 87.5q16 80 62.5 182.5t112 217t147.5 236.5t171 241t182 229.5t179 202.5q-41 0 -78.5 1t-74.5 3q-102 -127 -233.5 -273.5t-266.5 -313.5t-260 -356t-211 -402q-23 -55 -56.5 -78t-63 -16.5t-45 39t-3.5 87.5z" />
<glyph unicode="&#xb7;" horiz-adv-x="1091" d="M356 504q-10 45 13.5 88t66.5 76.5t97.5 55t104.5 25t88 -16t46 -64.5q8 -41 -17.5 -79t-68.5 -70t-97 -52.5t-102.5 -25.5t-85.5 9.5t-45 53.5z" />
<glyph unicode="&#xb8;" horiz-adv-x="741" d="M5 -303q7 33 38 46t74 -11q43 -27 116.5 -32t144.5 5t118 31.5t36 50.5q-12 29 -46.5 28t-75.5 -7.5t-81 -5.5t-63 34q-12 18 -1 52t40 71t69 71t87 54q20 8 41.5 7t36 -8t17.5 -20.5t-13 -27.5q-41 -43 -46 -60.5t11 -22.5t49 -4t67.5 -5t64.5 -23.5t42 -60.5 q14 -53 -6 -105.5t-67.5 -97.5t-114 -80t-142 -51.5t-154.5 -11t-151 40.5q-59 29 -78.5 69.5t-12.5 73.5z" />
<glyph unicode="&#xb9;" horiz-adv-x="800" d="M428 463q-10 43 22.5 112.5t92 152.5t135.5 171t149 168q-27 -14 -54.5 -27.5t-57.5 -25.5q-63 -27 -116.5 -25t-91.5 18.5t-58.5 44t-19.5 55.5t26.5 48.5t81.5 24.5q45 2 114.5 24.5t157.5 61.5t188.5 91.5t204.5 115.5q43 31 99.5 34.5t95.5 -13.5t48 -54t-40 -86 q-61 -61 -140 -141t-160 -167.5t-157 -176.5t-129 -172t-77.5 -151.5t-2.5 -115.5q16 -35 3 -59.5t-43.5 -35.5t-72.5 -9t-82 17t-72 45t-44 75z" />
<glyph unicode="&#xba;" horiz-adv-x="1169" d="M342.5 529.5q-20.5 99.5 11 213t105 232.5t174 225.5t218.5 192.5t235.5 131t227 43t193.5 -72q68 -55 78 -148.5t-23.5 -204t-103 -230t-164 -228.5t-204 -198t-222 -138t-220 -50t-195.5 64q-90 68 -110.5 167.5zM599 706.5q-24 -90.5 13 -141.5q35 -47 93.5 -48 t129 34t145.5 96.5t144.5 136t127 157.5t89 158t34.5 136t-36 96q-59 51 -146 28.5t-180 -91t-181.5 -168t-148.5 -201.5t-84 -192.5z" />
<glyph unicode="&#xbb;" horiz-adv-x="1394" d="M203.5 174q-13.5 29 1 69t65.5 76q33 23 99.5 50.5t136.5 50.5q80 27 172 51q-31 29 -60 55q-25 23 -49 50.5t-39 50.5q-27 43 -8 80.5t56.5 58t83 16.5t73.5 -47q41 -61 92.5 -120.5t104.5 -88.5q16 -12 20 -20q20 6 38 10t30 8q14 4 27 8q-31 29 -60 56 q-25 23 -49.5 50.5t-38.5 49.5q-27 43 -8.5 81t56.5 58.5t83 16.5t74 -47q41 -61 92 -121t104 -88q25 -12 26 -40t-17.5 -57.5t-56.5 -58.5t-93 -45q-43 -12 -103.5 -31.5t-124 -44t-125 -51.5t-106.5 -49q-53 -27 -90 -11.5t-43 50.5q-66 -25 -127 -51t-108 -49 q-45 -23 -80 -14t-48.5 38z" />
<glyph unicode="&#xbc;" horiz-adv-x="3020" d="M356 258q-10 43 23 112.5t92 152.5t135 171t150 168q-27 -14 -54.5 -27.5t-58.5 -25.5q-63 -27 -116.5 -25t-91.5 18.5t-58.5 44t-19.5 55.5t27 48.5t81 24.5q45 2 114.5 24.5t157.5 61.5t188.5 91.5t204.5 115.5q43 31 99.5 35t95.5 -13.5t48 -54.5t-40 -86 q-61 -61 -140 -141t-160 -167t-156.5 -176.5t-129 -172t-78 -151.5t-1.5 -116q16 -35 2.5 -59.5t-44 -35.5t-72.5 -9t-82 17.5t-72.5 45t-43.5 74.5zM528 -230q-4 36 25 83q47 78 149.5 198.5t237.5 261t292 289t314.5 279.5t303 234.5t257.5 154.5q61 27 108.5 18.5t72 -36 t19.5 -65.5t-50 -67q-92 -59 -213 -148t-259 -201t-285.5 -237.5t-290 -257t-273.5 -261.5t-236 -248q-41 -45 -79.5 -55.5t-63.5 6t-29 52.5zM1336.5 -13q-11.5 44 18 107.5t101.5 122.5q76 63 161 139t163 152t142.5 143.5t98.5 114.5q35 45 84 57.5t87 -3t51.5 -53.5 t-21.5 -93q-41 -63 -114.5 -134t-163 -141.5t-184.5 -138t-179 -125.5q111 49 231.5 81t237.5 48q49 72 111.5 147.5t133 146.5t146.5 132.5t154 106.5q53 31 110.5 36t93 -9.5t34.5 -45t-66 -71.5q-49 -31 -105.5 -78t-115 -104.5t-116.5 -121t-110 -127.5q76 -4 134 -18 q68 -18 99.5 -64.5t30.5 -90.5t-34 -71.5t-96 -8.5q-119 33 -289 28q-29 -51 -44.5 -95t-11.5 -77q4 -45 -13 -70.5t-45 -35t-58.5 0t-56 34t-38 64.5t-2.5 93q2 29 23 72q-117 -14 -220.5 -38t-174.5 -54q-82 -35 -129 -18.5t-58.5 60.5z" />
<glyph unicode="&#xbd;" horiz-adv-x="2793" d="M219 258q-10 43 22.5 112.5t92 152.5t135.5 171t149 168q-27 -14 -54 -27.5t-58 -25.5q-63 -27 -116.5 -25t-91.5 18.5t-58.5 44t-19.5 55.5t26.5 48.5t81.5 24.5q45 2 114.5 24.5t157.5 61.5t188.5 91.5t204.5 115.5q43 31 99.5 35t95.5 -13.5t48 -54.5t-40 -86 q-61 -61 -140 -141t-160 -167t-156.5 -176.5t-129 -172t-78 -151.5t-2.5 -116q16 -35 3 -59.5t-43.5 -35.5t-72.5 -9t-82 17.5t-73 45t-43 74.5zM391 -230q-4 36 25 83q47 78 149.5 198.5t237.5 261t291.5 289t314.5 279.5t303.5 234.5t257.5 154.5q61 27 108.5 18.5t72 -36 t19.5 -65.5t-50 -67q-92 -59 -213 -148t-259.5 -201t-286 -237.5t-289.5 -257t-273 -261.5t-236 -248q-41 -45 -80 -55.5t-63.5 6t-28.5 52.5zM1067 -145q4 61 46 102t108.5 57.5t150.5 7t170 -46.5q100 37 213 95.5t220.5 126t202.5 139.5t162.5 138.5t100.5 119.5t17 86 q-18 33 -80 31t-144 -27t-169 -65.5t-156.5 -88t-108 -93.5t-20.5 -79q16 -33 1.5 -59.5t-46 -43.5t-71.5 -20.5t-72.5 12t-53 53.5t-10.5 103q12 82 81.5 163t172 149.5t226.5 119t245 74t225.5 13t169.5 -63.5q72 -61 75 -141t-47 -170t-143.5 -183.5t-209 -178.5 t-247.5 -156.5t-259 -118.5q115 -29 199.5 -42t147 -10t104.5 23.5t71 59.5q25 31 63.5 28.5t68.5 -29t36 -73.5t-35 -107q-51 -72 -123 -94t-179.5 -11t-259 49t-360.5 87q-80 -35 -168 -55.5t-159.5 -17.5t-115.5 35t-40 102z" />
<glyph unicode="&#xbe;" horiz-adv-x="3235" d="M172 360q-20 57 9.5 105.5t73.5 70t89 9t55 -71.5q12 -76 70.5 -105.5t138.5 -27.5t171 32.5t170 78t132.5 104.5t59.5 117q-66 -27 -129.5 -41.5t-117.5 -12t-96 20.5t-63 59q-23 41 5 79t86.5 66.5t136 43t153.5 6.5q49 16 95 43t80 57.5t51.5 59t9.5 47.5 q-14 31 -62.5 41t-111 3t-132 -26.5t-124 -47.5t-86 -60.5t-21.5 -65.5q8 -27 -5 -43t-40 -24.5t-59.5 -6.5t-62.5 15.5t-51.5 39t-25.5 64.5q-6 76 51.5 138.5t152.5 107.5t212 69.5t226.5 25.5t199.5 -24.5t131 -80.5t40 -115.5t-33.5 -120t-89 -115t-126.5 -102.5 q10 -18 17 -35q31 -84 3 -168t-94.5 -158.5t-164 -136t-206 -100.5t-222 -53.5t-212 4t-174 76t-110.5 159.5zM927.5 -230q-4.5 36 24.5 83q47 78 149.5 198.5t238 261t292 289t314 279.5t303 234.5t258.5 154.5q61 27 108 18.5t72 -36t19.5 -65.5t-50.5 -67 q-92 -59 -213 -148t-259 -201t-285.5 -237.5t-290 -257t-273.5 -261.5t-235 -248q-41 -45 -80 -55.5t-63.5 6t-29 52.5zM1735.5 -13q-11.5 44 18.5 107.5t101 122.5q76 63 161 139t163 152t142.5 143.5t99.5 114.5q35 45 84 57.5t87 -3t51 -53.5t-22 -93 q-41 -63 -114.5 -134t-162.5 -141.5t-184.5 -138t-179.5 -125.5q111 49 232 81t237 48q49 72 111.5 147.5t133.5 146.5t146.5 132.5t153.5 106.5q53 31 110.5 36t93.5 -9.5t35 -45t-67 -71.5q-49 -31 -105.5 -78t-114.5 -104.5t-116.5 -121t-109.5 -127.5q76 -4 133 -18 q68 -18 99.5 -64.5t30.5 -90.5t-34 -71.5t-96 -8.5q-119 33 -289 28q-29 -51 -44 -95t-11 -77q4 -45 -13.5 -70.5t-45 -35t-58.5 0t-56.5 34t-37.5 64.5t-2 93q2 29 22 72q-117 -14 -220 -38t-175 -54q-82 -35 -129 -18.5t-58.5 60.5z" />
<glyph unicode="&#xbf;" horiz-adv-x="1492" d="M265.5 263.5q19.5 68.5 73.5 123.5t136 100t174 83t184.5 71t168 63.5t127 62.5t59.5 69q8 41 45 60t73.5 17t63.5 -26.5t14 -71.5q-14 -61 -60 -110.5t-112.5 -90.5t-145.5 -74.5t-159 -63.5t-152.5 -58.5t-127 -59t-82 -64.5t-15.5 -75q14 -51 64.5 -69.5t118 -12.5 t140.5 31t130 58.5t90 73.5t19 75q-14 37 6 73.5t56 58t74 16.5t60 -52q27 -61 5.5 -128t-77 -128t-138.5 -115.5t-176 -92.5t-189.5 -56.5t-182.5 -9t-151.5 49.5t-97.5 118q-35 86 -15.5 154.5zM1253 1077q-8 39 17.5 78t68.5 70.5t97.5 52t103.5 26t85 -9t46 -53.5 q10 -47 -14.5 -89t-67.5 -76t-98 -55.5t-104.5 -24.5t-87 16.5t-46.5 64.5z" />
<glyph unicode="&#xc0;" horiz-adv-x="2803" d="M6 -337q10 50 47 90t97 34q106 -10 214.5 18.5t219 85t222.5 136t226 174.5q-145 -41 -286.5 -84t-276.5 -88q-74 -25 -99.5 -4.5t-12 58.5t59 81.5t113.5 68.5q166 57 375 119t432 115q156 141 313.5 281.5t315.5 257t316.5 200.5t316.5 111q135 23 234.5 14.5 t153.5 -35t58 -64.5t-51 -75q-61 -41 -131 -101.5t-143.5 -133t-146 -152.5t-140.5 -160q20 -2 38.5 -4t35.5 -6q68 -16 99.5 -53t30.5 -74t-32 -63.5t-86 -20.5q-61 6 -122.5 8t-125.5 2q-74 -104 -108.5 -179t-10.5 -97q18 -18 63.5 -10t104 31.5t126 60.5t134 75.5 t125 74.5t99.5 63q61 39 112.5 43t70.5 -16.5t-2.5 -62.5t-102.5 -93q-55 -35 -136.5 -90.5t-173.5 -113.5t-189 -111.5t-186.5 -86t-164 -35t-119.5 41.5q-68 66 -36 195.5t142 299.5q-135 -10 -272 -31.5t-277 -50.5q-162 -147 -327.5 -287.5t-337.5 -250t-349 -175 t-362 -65.5q-57 0 -77.5 42t-10.5 92zM1735 551q123 23 235.5 38t212.5 23q111 135 252 274.5t305 276.5q-121 -8 -244.5 -59t-248.5 -134t-253 -191.5t-259 -227.5zM2535.5 1661q8.5 37 36 63.5t66.5 35.5t72 -15q33 -25 81 -57.5t99 -63.5t99 -57.5t79 -38.5 q31 -10 33 -29.5t-15.5 -38t-51.5 -29t-75 -4.5q-47 8 -104 22.5t-113.5 35t-104.5 47.5t-79 59q-31 33 -22.5 70z" />
<glyph unicode="&#xc1;" horiz-adv-x="2803" d="M6 -337q10 50 47 90t97 34q106 -10 214.5 18.5t219 85t222.5 136t226 174.5q-145 -41 -286.5 -84t-276.5 -88q-74 -25 -99.5 -4.5t-12 58.5t59 81.5t113.5 68.5q166 57 375 119t432 115q156 141 313.5 281.5t315.5 257t316.5 200.5t316.5 111q135 23 234.5 14.5 t153.5 -35t58 -64.5t-51 -75q-61 -41 -131 -101.5t-143.5 -133t-146 -152.5t-140.5 -160q20 -2 38.5 -4t35.5 -6q68 -16 99.5 -53t30.5 -74t-32 -63.5t-86 -20.5q-61 6 -122.5 8t-125.5 2q-74 -104 -108.5 -179t-10.5 -97q18 -18 63.5 -10t104 31.5t126 60.5t134 75.5 t125 74.5t99.5 63q61 39 112.5 43t70.5 -16.5t-2.5 -62.5t-102.5 -93q-55 -35 -136.5 -90.5t-173.5 -113.5t-189 -111.5t-186.5 -86t-164 -35t-119.5 41.5q-68 66 -36 195.5t142 299.5q-135 -10 -272 -31.5t-277 -50.5q-162 -147 -327.5 -287.5t-337.5 -250t-349 -175 t-362 -65.5q-57 0 -77.5 42t-10.5 92zM1735 551q123 23 235.5 38t212.5 23q111 135 252 274.5t305 276.5q-121 -8 -244.5 -59t-248.5 -134t-253 -191.5t-259 -227.5zM2653 1450q-1 25 16.5 52.5t56.5 43.5q49 20 121.5 57t149.5 72t147.5 59.5t115.5 22.5t65.5 -33.5 t19.5 -69.5t-22.5 -72t-62.5 -40t-118.5 -26.5t-160.5 -45t-155.5 -45t-105.5 -26.5q-31 -6 -48.5 10t-18.5 41z" />
<glyph unicode="&#xc2;" horiz-adv-x="2803" d="M6 -337q10 50 47 90t97 34q106 -10 214.5 18.5t219 85t222.5 136t226 174.5q-145 -41 -286.5 -84t-276.5 -88q-74 -25 -99.5 -4.5t-12 58.5t59 81.5t113.5 68.5q166 57 375 119t432 115q156 141 313.5 281.5t315.5 257t316.5 200.5t316.5 111q135 23 234.5 14.5 t153.5 -35t58 -64.5t-51 -75q-61 -41 -131 -101.5t-143.5 -133t-146 -152.5t-140.5 -160q20 -2 38.5 -4t35.5 -6q68 -16 99.5 -53t30.5 -74t-32 -63.5t-86 -20.5q-61 6 -122.5 8t-125.5 2q-74 -104 -108.5 -179t-10.5 -97q18 -18 63.5 -10t104 31.5t126 60.5t134 75.5 t125 74.5t99.5 63q61 39 112.5 43t70.5 -16.5t-2.5 -62.5t-102.5 -93q-55 -35 -136.5 -90.5t-173.5 -113.5t-189 -111.5t-186.5 -86t-164 -35t-119.5 41.5q-68 66 -36 195.5t142 299.5q-135 -10 -272 -31.5t-277 -50.5q-162 -147 -327.5 -287.5t-337.5 -250t-349 -175 t-362 -65.5q-57 0 -77.5 42t-10.5 92zM1735 551q123 23 235.5 38t212.5 23q111 135 252 274.5t305 276.5q-121 -8 -244.5 -59t-248.5 -134t-253 -191.5t-259 -227.5zM2435 1476.5q-12 28.5 1 59.5t58 43q41 10 91.5 26.5t102.5 39t102.5 50t93.5 62.5t87 51.5t79.5 16.5 t57 -13.5t15.5 -37.5q-12 -57 -7 -110.5t46 -107.5q35 -43 18.5 -76.5t-56.5 -51t-87 -16.5t-71 26q-25 23 -39.5 48t-22.5 46q-8 23 -12 47q-63 -37 -121 -68q-51 -27 -104.5 -51t-88.5 -33q-57 -12 -94 4.5t-49 45z" />
<glyph unicode="&#xc3;" horiz-adv-x="2803" d="M6 -337q10 50 47 90t97 34q106 -10 214.5 18.5t219 85t222.5 136t226 174.5q-145 -41 -286.5 -84t-276.5 -88q-74 -25 -99.5 -4.5t-12 58.5t59 81.5t113.5 68.5q166 57 375 119t432 115q156 141 313.5 281.5t315.5 257t316.5 200.5t316.5 111q135 23 234.5 14.5 t153.5 -35t58 -64.5t-51 -75q-61 -41 -131 -101.5t-143.5 -133t-146 -152.5t-140.5 -160q20 -2 38.5 -4t35.5 -6q68 -16 99.5 -53t30.5 -74t-32 -63.5t-86 -20.5q-61 6 -122.5 8t-125.5 2q-74 -104 -108.5 -179t-10.5 -97q18 -18 63.5 -10t104 31.5t126 60.5t134 75.5 t125 74.5t99.5 63q61 39 112.5 43t70.5 -16.5t-2.5 -62.5t-102.5 -93q-55 -35 -136.5 -90.5t-173.5 -113.5t-189 -111.5t-186.5 -86t-164 -35t-119.5 41.5q-68 66 -36 195.5t142 299.5q-135 -10 -272 -31.5t-277 -50.5q-162 -147 -327.5 -287.5t-337.5 -250t-349 -175 t-362 -65.5q-57 0 -77.5 42t-10.5 92zM1735 551q123 23 235.5 38t212.5 23q111 135 252 274.5t305 276.5q-121 -8 -244.5 -59t-248.5 -134t-253 -191.5t-259 -227.5zM2467 1514.5q7 29.5 38 54.5q18 14 62 47t99.5 62.5t114 47t107.5 3.5q29 -10 47 -28t31.5 -38.5 t24.5 -37.5t30 -23q35 -16 70.5 6t64.5 57q25 31 62.5 45t70.5 14t53.5 -16t12.5 -47q-12 -41 -58.5 -89t-110 -88t-133 -61.5t-126.5 -7.5q-33 8 -52.5 27.5t-35 41t-32 38t-42.5 20.5q-23 2 -45.5 -7t-44 -23.5t-42 -30t-38.5 -25.5q-45 -25 -76 -19.5t-45 27t-7 51z" />
<glyph unicode="&#xc4;" horiz-adv-x="2803" d="M6 -337q10 50 47 90t97 34q106 -10 214.5 18.5t219 85t222.5 136t226 174.5q-145 -41 -286.5 -84t-276.5 -88q-74 -25 -99.5 -4.5t-12 58.5t59 81.5t113.5 68.5q166 57 375 119t432 115q156 141 313.5 281.5t315.5 257t316.5 200.5t316.5 111q135 23 234.5 14.5 t153.5 -35t58 -64.5t-51 -75q-61 -41 -131 -101.5t-143.5 -133t-146 -152.5t-140.5 -160q20 -2 38.5 -4t35.5 -6q68 -16 99.5 -53t30.5 -74t-32 -63.5t-86 -20.5q-61 6 -122.5 8t-125.5 2q-74 -104 -108.5 -179t-10.5 -97q18 -18 63.5 -10t104 31.5t126 60.5t134 75.5 t125 74.5t99.5 63q61 39 112.5 43t70.5 -16.5t-2.5 -62.5t-102.5 -93q-55 -35 -136.5 -90.5t-173.5 -113.5t-189 -111.5t-186.5 -86t-164 -35t-119.5 41.5q-68 66 -36 195.5t142 299.5q-135 -10 -272 -31.5t-277 -50.5q-162 -147 -327.5 -287.5t-337.5 -250t-349 -175 t-362 -65.5q-57 0 -77.5 42t-10.5 92zM1735 551q123 23 235.5 38t212.5 23q111 135 252 274.5t305 276.5q-121 -8 -244.5 -59t-248.5 -134t-253 -191.5t-259 -227.5zM2511.5 1534q7.5 37 33 71.5t65.5 61.5t81 40t78 7t59 -39q23 -33 15.5 -69.5t-34 -69.5t-64.5 -60.5 t-78.5 -40t-77.5 -6.5t-60 37q-25 31 -17.5 68zM2882 1509q-18 57 25.5 115.5t109 95.5t128 38t81.5 -56q10 -39 -7.5 -78t-51.5 -71.5t-78 -57.5t-86 -34t-75.5 1t-45.5 47z" />
<glyph unicode="&#xc5;" horiz-adv-x="2803" d="M6 -337q10 50 47 90t97 34q106 -10 214.5 18.5t219 85t222.5 136t226 174.5q-145 -41 -286.5 -84t-276.5 -88q-74 -25 -99.5 -4.5t-12 58.5t59 81.5t113.5 68.5q166 57 375 119t432 115q156 141 313.5 281.5t315.5 257t316.5 200.5t316.5 111q135 23 234.5 14.5 t153.5 -35t58 -64.5t-51 -75q-61 -41 -131 -101.5t-143.5 -133t-146 -152.5t-140.5 -160q20 -2 38.5 -4t35.5 -6q68 -16 99.5 -53t30.5 -74t-32 -63.5t-86 -20.5q-61 6 -122.5 8t-125.5 2q-74 -104 -108.5 -179t-10.5 -97q18 -18 63.5 -10t104 31.5t126 60.5t134 75.5 t125 74.5t99.5 63q61 39 112.5 43t70.5 -16.5t-2.5 -62.5t-102.5 -93q-55 -35 -136.5 -90.5t-173.5 -113.5t-189 -111.5t-186.5 -86t-164 -35t-119.5 41.5q-68 66 -36 195.5t142 299.5q-135 -10 -272 -31.5t-277 -50.5q-162 -147 -327.5 -287.5t-337.5 -250t-349 -175 t-362 -65.5q-57 0 -77.5 42t-10.5 92zM1735 551q123 23 235.5 38t212.5 23q111 135 252 274.5t305 276.5q-121 -8 -244.5 -59t-248.5 -134t-253 -191.5t-259 -227.5zM2661 1456.5q-44 63.5 20 153.5q31 45 82 85t112.5 68.5t129 46t130.5 17.5q106 0 154.5 -32t49.5 -81 t-38 -104.5t-107.5 -104.5t-161.5 -80.5t-200 -31.5q-127 0 -171 63.5zM2858 1564.5q3 -22.5 42 -22.5q20 0 47 7t54.5 19.5t53.5 27t44 30.5q35 33 31.5 54.5t-44.5 21.5q-18 0 -44.5 -7t-54.5 -18.5t-53.5 -27t-43.5 -31.5q-35 -31 -32 -53.5z" />
<glyph unicode="&#xc6;" horiz-adv-x="3362" d="M6 -337q10 50 47 90t97 34q111 -10 222 20.5t225 91t230.5 144.5t233.5 182q-152 -49 -301.5 -99t-290.5 -97q-74 -25 -96.5 -0.5t-5 67.5t66.5 91t117 73q80 27 176 58.5t202.5 63.5t222.5 64.5t234 63.5q150 135 301.5 269t303 245t304 188.5t304.5 104.5 q154 25 260.5 11.5t153.5 -48.5q102 37 202.5 53.5t185.5 11t144 -33t82 -76.5q29 -72 10.5 -138.5t-67.5 -119.5t-119 -93t-139 -61q-70 -20 -126.5 -4.5t-85 46t-22.5 66.5t64 54q61 20 116.5 38.5t94 39t54 44t-4.5 56.5q-29 45 -100.5 41t-159.5 -37.5t-181.5 -91 t-163 -122t-105.5 -126t-11 -104.5q76 4 148.5 -4t127 -29.5t83 -54.5t14.5 -76t-65.5 -58.5t-115 -10t-128 27t-105.5 51.5q-106 -8 -207.5 -48t-190 -98t-159 -130t-115.5 -143.5t-59.5 -136t10.5 -109.5q33 -61 117 -69.5t201.5 22t260 92t292 139.5t297 164t276.5 166 q45 27 84 24.5t56.5 -24t5 -56t-67.5 -73.5q-129 -90 -290 -192.5t-332 -197t-340 -167t-317.5 -104t-263 -10t-176.5 117.5q-59 92 -62 192.5t36 198.5t113.5 190.5t175.5 169.5q-98 -18 -209 -47.5t-234 -64.5q-170 -156 -344 -307.5t-354 -271.5t-367.5 -193.5 t-382.5 -73.5q-57 0 -77.5 42t-10.5 92zM1798 608q203 43 384 71t323 32q8 0 14 2q-33 39 -27 96q4 47 46 121t157 172q20 16 42 32.5t44 30.5q-10 0 -20.5 -1t-20.5 -1q-115 -8 -231.5 -55t-233 -122t-236.5 -172t-241 -206z" />
<glyph unicode="&#xc7;" horiz-adv-x="2019" d="M-58.5 -706.5q7.5 32.5 38 46t73.5 -11.5q43 -27 117 -32t144.5 5.5t117.5 32t37 50.5q-12 29 -47 27.5t-76 -7.5t-81 -5t-62 34q-10 14 -5 37.5t19 50t38 54.5t54 52q-119 31 -192.5 98.5t-99 161t-1 204t102.5 224.5q70 100 165 212t214.5 221.5t261 210t301.5 180.5 t336 131t366 63q106 6 198.5 -17.5t150 -73.5t70.5 -121.5t-36 -159.5t-146 -155t-211 -109t-230.5 -60.5t-204.5 -7.5q-61 6 -102.5 43t-50.5 76.5t18.5 70.5t101.5 25q143 -12 258 7t195.5 57t125 85t45.5 88t-45.5 70t-142.5 29q-170 0 -357.5 -73t-363.5 -189.5 t-328.5 -260t-254 -286t-136 -266t22.5 -201.5q53 -72 152.5 -88.5t230.5 8t287.5 85t325.5 141.5t343 176.5t340 191.5q61 35 100.5 31.5t51.5 -28t-5.5 -62t-68.5 -70.5q-35 -23 -115.5 -75t-193.5 -118.5t-251 -140.5t-285.5 -140.5t-298 -118.5t-287.5 -75 q-59 -10 -111.5 -14t-99.5 -2q-27 -31 -24 -43.5t22.5 -15.5t51.5 -3t63.5 -6t59 -24.5t40.5 -57.5q14 -53 -6.5 -105t-67.5 -97.5t-113.5 -80t-142.5 -51t-155 -11.5t-150 40q-59 29 -79 70t-12.5 73.5z" />
<glyph unicode="&#xc8;" horiz-adv-x="1705" d="M3.5 -62.5q-1.5 105.5 42.5 209t128 197.5t192.5 171t236.5 129t259 69q-33 39 -26 96q4 47 46 121t156 172q76 66 170.5 114t190.5 78.5t190 43t172 5t133.5 -34t75.5 -73.5q29 -72 10.5 -138.5t-67.5 -119.5t-119 -93t-139 -61q-70 -20 -126 -4.5t-85 46t-22.5 66.5 t63.5 54q61 20 116.5 38.5t94.5 39t54 44t-5 56.5q-29 45 -100.5 41t-159.5 -37.5t-181.5 -91t-163 -122t-105.5 -126t-11 -104.5q76 4 148.5 -4t127 -29.5t83 -54.5t14.5 -76t-65.5 -58.5t-115 -10t-128 27t-105.5 51.5q-106 -8 -207.5 -48t-189.5 -98t-159 -130 t-116 -143.5t-59 -136t10 -109.5q33 -61 117 -69.5t201.5 22t260 92t292 139.5t297 164t276.5 166q45 27 84 24.5t56.5 -24t5 -56t-67.5 -73.5q-129 -90 -290 -192.5t-332 -197t-340 -167t-317.5 -104t-263 -10t-175.5 117.5t-62.5 201.5zM1486.5 1661q8.5 37 36 63.5 t66.5 35.5t72 -15q33 -25 81 -57.5t99 -63.5t99.5 -57.5t78.5 -38.5q31 -10 33 -29.5t-15.5 -38t-51 -29t-74.5 -4.5q-47 8 -104.5 22.5t-114 35t-104.5 47.5t-79 59q-31 33 -22.5 70z" />
<glyph unicode="&#xc9;" horiz-adv-x="1705" d="M3.5 -62.5q-1.5 105.5 42.5 209t128 197.5t192.5 171t236.5 129t259 69q-33 39 -26 96q4 47 46 121t156 172q76 66 170.5 114t190.5 78.5t190 43t172 5t133.5 -34t75.5 -73.5q29 -72 10.5 -138.5t-67.5 -119.5t-119 -93t-139 -61q-70 -20 -126 -4.5t-85 46t-22.5 66.5 t63.5 54q61 20 116.5 38.5t94.5 39t54 44t-5 56.5q-29 45 -100.5 41t-159.5 -37.5t-181.5 -91t-163 -122t-105.5 -126t-11 -104.5q76 4 148.5 -4t127 -29.5t83 -54.5t14.5 -76t-65.5 -58.5t-115 -10t-128 27t-105.5 51.5q-106 -8 -207.5 -48t-189.5 -98t-159 -130 t-116 -143.5t-59 -136t10 -109.5q33 -61 117 -69.5t201.5 22t260 92t292 139.5t297 164t276.5 166q45 27 84 24.5t56.5 -24t5 -56t-67.5 -73.5q-129 -90 -290 -192.5t-332 -197t-340 -167t-317.5 -104t-263 -10t-175.5 117.5t-62.5 201.5zM1457 1450q-1 25 16.5 52.5 t56.5 43.5q49 20 121.5 57t149.5 72t147.5 59.5t115.5 22.5t65.5 -33.5t19.5 -69.5t-22.5 -72t-62.5 -40t-118.5 -26.5t-160.5 -45t-156 -45t-105 -26.5q-31 -6 -48.5 10t-18.5 41z" />
<glyph unicode="&#xca;" horiz-adv-x="1705" d="M3.5 -62.5q-1.5 105.5 42.5 209t128 197.5t192.5 171t236.5 129t259 69q-33 39 -26 96q4 47 46 121t156 172q76 66 170.5 114t190.5 78.5t190 43t172 5t133.5 -34t75.5 -73.5q29 -72 10.5 -138.5t-67.5 -119.5t-119 -93t-139 -61q-70 -20 -126 -4.5t-85 46t-22.5 66.5 t63.5 54q61 20 116.5 38.5t94.5 39t54 44t-5 56.5q-29 45 -100.5 41t-159.5 -37.5t-181.5 -91t-163 -122t-105.5 -126t-11 -104.5q76 4 148.5 -4t127 -29.5t83 -54.5t14.5 -76t-65.5 -58.5t-115 -10t-128 27t-105.5 51.5q-106 -8 -207.5 -48t-189.5 -98t-159 -130 t-116 -143.5t-59 -136t10 -109.5q33 -61 117 -69.5t201.5 22t260 92t292 139.5t297 164t276.5 166q45 27 84 24.5t56.5 -24t5 -56t-67.5 -73.5q-129 -90 -290 -192.5t-332 -197t-340 -167t-317.5 -104t-263 -10t-175.5 117.5t-62.5 201.5zM1329 1476.5q-12 28.5 1.5 59.5 t58.5 43q41 10 91 26.5t102 39t102.5 50t93.5 62.5t87 51.5t79.5 16.5t57 -13.5t15.5 -37.5q-12 -57 -7 -110.5t46 -107.5q35 -43 18.5 -76.5t-56.5 -51t-87 -16.5t-71 26q-25 23 -39.5 48t-22.5 46q-8 23 -12 47q-63 -37 -121 -68q-51 -27 -104.5 -51t-87.5 -33 q-57 -12 -94.5 4.5t-49.5 45z" />
<glyph unicode="&#xcb;" horiz-adv-x="1705" d="M3.5 -62.5q-1.5 105.5 42.5 209t128 197.5t192.5 171t236.5 129t259 69q-33 39 -26 96q4 47 46 121t156 172q76 66 170.5 114t190.5 78.5t190 43t172 5t133.5 -34t75.5 -73.5q29 -72 10.5 -138.5t-67.5 -119.5t-119 -93t-139 -61q-70 -20 -126 -4.5t-85 46t-22.5 66.5 t63.5 54q61 20 116.5 38.5t94.5 39t54 44t-5 56.5q-29 45 -100.5 41t-159.5 -37.5t-181.5 -91t-163 -122t-105.5 -126t-11 -104.5q76 4 148.5 -4t127 -29.5t83 -54.5t14.5 -76t-65.5 -58.5t-115 -10t-128 27t-105.5 51.5q-106 -8 -207.5 -48t-189.5 -98t-159 -130 t-116 -143.5t-59 -136t10 -109.5q33 -61 117 -69.5t201.5 22t260 92t292 139.5t297 164t276.5 166q45 27 84 24.5t56.5 -24t5 -56t-67.5 -73.5q-129 -90 -290 -192.5t-332 -197t-340 -167t-317.5 -104t-263 -10t-175.5 117.5t-62.5 201.5zM1409.5 1534q7.5 37 33 71.5 t65.5 61.5t81 40t78 7t59 -39q23 -33 16 -69.5t-34 -69.5t-64.5 -60.5t-78.5 -40t-78 -6.5t-60 37q-25 31 -17.5 68zM1780 1509q-18 57 25.5 115.5t109 95.5t128 38t81.5 -56q10 -39 -7.5 -78t-51 -71.5t-77.5 -57.5t-86 -34t-76 1t-46 47z" />
<glyph unicode="&#xcc;" horiz-adv-x="1763" d="M6 -193q10 51 48 87t78 48.5t70.5 -3t28.5 -66.5q-4 -98 91.5 -107.5t287.5 82.5q94 45 192.5 130t194 190.5t185.5 222.5t170 226.5t146.5 201.5t113.5 150q-199 -139 -389.5 -218t-358.5 -69q-57 4 -95 35t-46 66.5t18.5 65.5t98.5 32q143 4 282.5 44t261 97t221 121.5 t162.5 116.5q59 47 128 61t119 4t67.5 -44t-23.5 -83q-225 -268 -390 -501.5t-311.5 -427t-299 -342t-352.5 -246.5q-141 -70 -273.5 -88.5t-233 2t-154.5 77t-38 135.5zM1749 1661q8 37 35.5 63.5t66.5 35.5t72 -15q33 -25 81 -57.5t99 -63.5t99.5 -57.5t78.5 -38.5 q31 -10 33 -29.5t-15.5 -38t-51 -29t-74.5 -4.5q-47 8 -104.5 22.5t-114 35t-104.5 47.5t-78 59q-31 33 -23 70z" />
<glyph unicode="&#xcd;" horiz-adv-x="1763" d="M6 -193q10 51 48 87t78 48.5t70.5 -3t28.5 -66.5q-4 -98 91.5 -107.5t287.5 82.5q94 45 192.5 130t194 190.5t185.5 222.5t170 226.5t146.5 201.5t113.5 150q-199 -139 -389.5 -218t-358.5 -69q-57 4 -95 35t-46 66.5t18.5 65.5t98.5 32q143 4 282.5 44t261 97t221 121.5 t162.5 116.5q59 47 128 61t119 4t67.5 -44t-23.5 -83q-225 -268 -390 -501.5t-311.5 -427t-299 -342t-352.5 -246.5q-141 -70 -273.5 -88.5t-233 2t-154.5 77t-38 135.5zM1656 1450q-1 25 16.5 52.5t56.5 43.5q49 20 121.5 57t149.5 72t147.5 59.5t115.5 22.5t65.5 -33.5 t19.5 -69.5t-22.5 -72t-62.5 -40t-119 -26.5t-160.5 -45t-155.5 -45t-106 -26.5q-31 -6 -48 10t-18 41z" />
<glyph unicode="&#xce;" horiz-adv-x="1763" d="M6 -193q10 51 48 87t78 48.5t70.5 -3t28.5 -66.5q-4 -98 91.5 -107.5t287.5 82.5q94 45 192.5 130t194 190.5t185.5 222.5t170 226.5t146.5 201.5t113.5 150q-199 -139 -389.5 -218t-358.5 -69q-57 4 -95 35t-46 66.5t18.5 65.5t98.5 32q143 4 282.5 44t261 97t221 121.5 t162.5 116.5q59 47 128 61t119 4t67.5 -44t-23.5 -83q-225 -268 -390 -501.5t-311.5 -427t-299 -342t-352.5 -246.5q-141 -70 -273.5 -88.5t-233 2t-154.5 77t-38 135.5zM1593.5 1476.5q-12.5 28.5 1 59.5t58.5 43q41 10 91 26.5t102 39t102.5 50t93.5 62.5t87 51.5t80 16.5 t57.5 -13.5t14.5 -37.5q-12 -57 -7 -110.5t46 -107.5q35 -43 18.5 -76.5t-56 -51t-87 -16.5t-71.5 26q-25 23 -39 48t-23 46q-8 23 -12 47q-63 -37 -121 -68q-51 -27 -104 -51t-88 -33q-57 -12 -94 4.5t-49.5 45z" />
<glyph unicode="&#xcf;" horiz-adv-x="1763" d="M6 -193q10 51 48 87t78 48.5t70.5 -3t28.5 -66.5q-4 -98 91.5 -107.5t287.5 82.5q94 45 192.5 130t194 190.5t185.5 222.5t170 226.5t146.5 201.5t113.5 150q-199 -139 -389.5 -218t-358.5 -69q-57 4 -95 35t-46 66.5t18.5 65.5t98.5 32q143 4 282.5 44t261 97t221 121.5 t162.5 116.5q59 47 128 61t119 4t67.5 -44t-23.5 -83q-225 -268 -390 -501.5t-311.5 -427t-299 -342t-352.5 -246.5q-141 -70 -273.5 -88.5t-233 2t-154.5 77t-38 135.5zM1629 1534q7 37 33 71.5t65.5 61.5t80.5 40t78 7t60 -39t15.5 -69.5t-34 -69.5t-64.5 -60.5t-79 -40 t-77.5 -6.5t-59.5 37q-25 31 -18 68zM1999 1509q-18 57 25.5 115.5t109.5 95.5t128 38t81 -56q10 -39 -7.5 -78t-51 -71.5t-77.5 -57.5t-86 -34t-76 1t-46 47z" />
<glyph unicode="&#xd0;" horiz-adv-x="2430" d="M6 -35q-12 59 13.5 95t66.5 42.5t85 -19.5t67 -89q23 -61 62.5 -108.5t103 -77t152.5 -43t212 -7.5q129 6 269.5 49t278.5 114t269 163t242.5 194.5t196.5 209t131.5 207t47.5 189.5t-55 154q-55 66 -142 93.5t-194.5 25.5t-231.5 -28.5t-250 -69.5t-252 -98.5 t-237.5 -112.5t-204 -113.5t-155.5 -103.5q-35 -25 -61.5 -15.5t-32.5 41t13.5 81.5t80.5 106q31 27 111 75t194.5 104t255 114.5t291 105.5t303 78t290.5 33t255 -32t195 -116q78 -80 87 -191.5t-37 -239.5t-140.5 -264t-224.5 -266t-288.5 -246t-333.5 -204t-359.5 -139 t-366.5 -51q-190 0 -320.5 33.5t-211.5 86t-122 116t-53 124.5zM600 447.5q12 33.5 53.5 63.5t104.5 34q55 4 108.5 9t104.5 11q51 68 106.5 133.5t113.5 124t115.5 106.5t112.5 83q37 23 83 36t89 16t78 -3t50.5 -20.5t4 -38t-58.5 -54.5q-78 -51 -178.5 -140t-202.5 -198 l107 21q70 12 96 -13.5t14 -63.5t-62 -78t-139 -56q-53 -10 -107 -19.5t-110 -17.5q-96 -119 -158.5 -218t-62.5 -149q0 -43 -26.5 -60t-57 -6t-53.5 51t-12 108q6 41 36.5 106.5t77.5 142.5q-37 -2 -71.5 -2h-69.5q-59 0 -78.5 29t-7.5 62.5z" />
<glyph unicode="&#xd1;" horiz-adv-x="2412" d="M5 -321.5q-9 40.5 7 88.5q23 68 111 198.5t247.5 307t394 392.5t552.5 453l45 103q31 68 89 89t112.5 9t86.5 -50t7 -89q-139 -287 -231.5 -519.5t-142.5 -400.5t-58 -264t22 -111q23 -12 76 28t126 115.5t160 179t179 218.5t183 233.5t171 226t144.5 194.5t101.5 139 q57 80 123.5 96t113 -8.5t56.5 -78.5t-41 -118q-141 -174 -285.5 -360.5t-285 -360.5t-274.5 -324.5t-254 -254t-223.5 -147.5t-180.5 -5q-57 27 -84 122t-21 241.5t44 337t110 409.5q-106 -94 -213 -198.5t-204 -210t-182 -208t-150.5 -192.5t-107.5 -164t-55 -121 q-14 -55 -42.5 -82.5t-63.5 -32.5t-70 8t-59.5 42t-33.5 69.5zM1707 1514.5q7 29.5 38 54.5q18 14 62 47t99.5 62.5t114 47t107.5 3.5q29 -10 47 -28t31.5 -38.5t25 -37.5t29.5 -23q35 -16 70.5 6t64.5 57q25 31 63 45t70.5 14t53 -16t12.5 -47q-12 -41 -58.5 -89t-110 -88 t-133 -61.5t-126.5 -7.5q-33 8 -52.5 27.5t-35 41t-31.5 38t-43 20.5q-23 2 -45.5 -7t-44 -23.5t-42 -30t-38.5 -25.5q-45 -25 -75.5 -19.5t-45 27t-7.5 51z" />
<glyph unicode="&#xd2;" horiz-adv-x="1853" d="M3.5 -11.5q8.5 132.5 74 278t181.5 295t263.5 283.5t320.5 242.5t353 174t359.5 78t342.5 -49.5q51 -18 67.5 -66t3.5 -96.5t-51 -79t-93 -16.5q-16 -186 -86 -361t-177.5 -330t-241.5 -286t-279.5 -228t-292 -156.5t-277.5 -73t-237.5 23.5t-172.5 135 q-66 100 -57.5 232.5zM271.5 73q-9.5 -83 25.5 -132q45 -63 125 -79t182.5 10t218 87t229 150.5t219 201t186.5 239.5t131 267t54 281q-135 31 -272 9t-268 -82t-252 -150.5t-221.5 -193.5t-178 -214t-123.5 -211t-55.5 -183zM1411 1661q8 37 36 63.5t66.5 35.5t71.5 -15 q33 -25 81 -57.5t99.5 -63.5t99.5 -57.5t79 -38.5q31 -10 32.5 -29.5t-15.5 -38t-51 -29t-75 -4.5q-47 8 -104.5 22.5t-113.5 35t-104.5 47.5t-78.5 59q-31 33 -23 70z" />
<glyph unicode="&#xd3;" horiz-adv-x="1853" d="M3.5 -11.5q8.5 132.5 74 278t181.5 295t263.5 283.5t320.5 242.5t353 174t359.5 78t342.5 -49.5q51 -18 67.5 -66t3.5 -96.5t-51 -79t-93 -16.5q-16 -186 -86 -361t-177.5 -330t-241.5 -286t-279.5 -228t-292 -156.5t-277.5 -73t-237.5 23.5t-172.5 135 q-66 100 -57.5 232.5zM271.5 73q-9.5 -83 25.5 -132q45 -63 125 -79t182.5 10t218 87t229 150.5t219 201t186.5 239.5t131 267t54 281q-135 31 -272 9t-268 -82t-252 -150.5t-221.5 -193.5t-178 -214t-123.5 -211t-55.5 -183zM1394 1450q-1 25 16 52.5t56 43.5q49 20 122 57 t150 72t147.5 59.5t115.5 22.5t65.5 -33.5t19.5 -69.5t-22.5 -72t-62.5 -40t-119 -26.5t-161 -45t-155.5 -45t-105.5 -26.5q-31 -6 -48 10t-18 41z" />
<glyph unicode="&#xd4;" horiz-adv-x="1853" d="M3.5 -11.5q8.5 132.5 74 278t181.5 295t263.5 283.5t320.5 242.5t353 174t359.5 78t342.5 -49.5q51 -18 67.5 -66t3.5 -96.5t-51 -79t-93 -16.5q-16 -186 -86 -361t-177.5 -330t-241.5 -286t-279.5 -228t-292 -156.5t-277.5 -73t-237.5 23.5t-172.5 135 q-66 100 -57.5 232.5zM271.5 73q-9.5 -83 25.5 -132q45 -63 125 -79t182.5 10t218 87t229 150.5t219 201t186.5 239.5t131 267t54 281q-135 31 -272 9t-268 -82t-252 -150.5t-221.5 -193.5t-178 -214t-123.5 -211t-55.5 -183zM1276 1476.5q-12 28.5 1 59.5t58 43 q41 10 91.5 26.5t102.5 39t102 50t93 62.5t87 51.5t80 16.5t57.5 -13.5t15.5 -37.5q-12 -57 -7 -110.5t46 -107.5q35 -43 18.5 -76.5t-56.5 -51t-87 -16.5t-72 26q-25 23 -39 48t-22 46q-8 23 -12 47q-63 -37 -121 -68q-51 -27 -104.5 -51t-88.5 -33q-57 -12 -94 4.5t-49 45 z" />
<glyph unicode="&#xd5;" horiz-adv-x="1853" d="M3.5 -11.5q8.5 132.5 74 278t181.5 295t263.5 283.5t320.5 242.5t353 174t359.5 78t342.5 -49.5q51 -18 67.5 -66t3.5 -96.5t-51 -79t-93 -16.5q-16 -186 -86 -361t-177.5 -330t-241.5 -286t-279.5 -228t-292 -156.5t-277.5 -73t-237.5 23.5t-172.5 135 q-66 100 -57.5 232.5zM271.5 73q-9.5 -83 25.5 -132q45 -63 125 -79t182.5 10t218 87t229 150.5t219 201t186.5 239.5t131 267t54 281q-135 31 -272 9t-268 -82t-252 -150.5t-221.5 -193.5t-178 -214t-123.5 -211t-55.5 -183zM1254.5 1514.5q7.5 29.5 37.5 54.5 q18 14 62.5 47t99.5 62.5t113.5 47t107.5 3.5q29 -10 47.5 -28t31.5 -38.5t24.5 -37.5t29.5 -23q35 -16 71 6t65 57q25 31 62.5 45t70 14t53 -16t12.5 -47q-12 -41 -58 -89t-109.5 -88t-133 -61.5t-127.5 -7.5q-33 8 -52.5 27.5t-34.5 41t-31.5 38t-43.5 20.5q-23 2 -45 -7 t-43.5 -23.5t-42 -30t-39.5 -25.5q-45 -25 -75.5 -19.5t-45 27t-7 51z" />
<glyph unicode="&#xd6;" horiz-adv-x="1853" d="M3.5 -11.5q8.5 132.5 74 278t181.5 295t263.5 283.5t320.5 242.5t353 174t359.5 78t342.5 -49.5q51 -18 67.5 -66t3.5 -96.5t-51 -79t-93 -16.5q-16 -186 -86 -361t-177.5 -330t-241.5 -286t-279.5 -228t-292 -156.5t-277.5 -73t-237.5 23.5t-172.5 135 q-66 100 -57.5 232.5zM271.5 73q-9.5 -83 25.5 -132q45 -63 125 -79t182.5 10t218 87t229 150.5t219 201t186.5 239.5t131 267t54 281q-135 31 -272 9t-268 -82t-252 -150.5t-221.5 -193.5t-178 -214t-123.5 -211t-55.5 -183zM1311.5 1534q7.5 37 33 71.5t65.5 61.5t81 40 t78 7t59 -39q23 -33 15.5 -69.5t-34 -69.5t-64.5 -60.5t-79 -40t-77.5 -6.5t-59.5 37q-25 31 -17.5 68zM1681 1509q-18 57 26 115.5t109.5 95.5t128 38t80.5 -56q10 -39 -7 -78t-51 -71.5t-78 -57.5t-86 -34t-76 1t-46 47z" />
<glyph unicode="&#xd7;" horiz-adv-x="1017" d="M130 243q-13 36 0 79t63 67q66 33 132 74t132 84q-27 57 -50.5 107.5t-39.5 90.5q-16 41 1 79t49 55.5t68.5 7.5t61.5 -66q16 -39 33.5 -77.5t35.5 -79.5q78 61 138.5 112t91.5 80q43 43 79 35t50 -46t1 -96.5t-69 -113.5q-33 -31 -88 -72t-121 -86q10 -31 19.5 -56.5 t13.5 -47.5q10 -49 -9.5 -87t-50 -54.5t-64.5 -5t-48 64.5q-6 18 -12 37.5t-15 40.5q-82 -53 -155.5 -98.5t-120.5 -73.5q-45 -25 -79 -7.5t-47 53.5z" />
<glyph unicode="&#xd8;" horiz-adv-x="1853" d="M-131 -380q-4 36 25 83q18 29 49.5 69t72.5 87q-29 104 0 229t99.5 257t180.5 264t244 251t287.5 218.5t315.5 164t324.5 88t314.5 -7.5q29 16 54.5 29.5t47.5 23.5q61 27 108.5 18.5t72 -36t19.5 -65.5t-50 -66l-60 -39q4 -31 -5 -62.5t-29.5 -55t-49 -36t-65.5 -2.5 q-16 -178 -81 -346t-164 -317.5t-225 -278.5t-263.5 -228.5t-278.5 -165t-271 -90t-242 -4t-187 94.5q-20 -20 -38 -41t-34 -39q-41 -45 -80 -55.5t-63.5 6t-28.5 52.5zM281 123q125 119 274.5 252t306 263t312 253t294.5 223q-139 -2 -274 -52t-261 -130t-235.5 -183.5 t-195.5 -213t-143.5 -217t-77.5 -195.5zM330 -94q68 -55 180.5 -47t244.5 67.5t271 163t260 237.5t212 290.5t126 322.5q-147 -106 -316 -234t-340 -263.5t-335 -273.5t-303 -263z" />
<glyph unicode="&#xd9;" horiz-adv-x="2027" d="M5 -173q15 87 74.5 184.5t155 200.5t202 205.5t216 201t197.5 184.5t145.5 155.5t61.5 116.5q-51 14 -71.5 42t-16.5 60.5t28.5 63.5t60.5 49.5t82 20.5t91 -25q80 -45 76 -123t-65.5 -175t-166 -209.5t-221.5 -227.5t-233.5 -225.5t-203.5 -204.5t-130 -166t-15 -109 q25 -31 91.5 -13.5t160.5 69t211 128t240 167t244.5 187.5t229 186t194 163t135.5 121q63 106 135 203.5t142.5 162t134 87t112.5 -20.5t31.5 -102.5t-78 -131t-152.5 -152.5t-192 -165q-74 -106 -144.5 -216.5t-134 -217t-115 -204t-84 -176.5t-43 -135t10.5 -81 q25 -31 24.5 -59.5t-18.5 -52t-47 -38t-61.5 -15.5t-63.5 14.5t-49 52.5q-27 49 -13.5 131t59.5 187.5t118.5 231.5t162.5 263q-123 -96 -262 -213t-280.5 -227.5t-279.5 -203.5t-261 -144.5t-223.5 -47.5t-163.5 88q-53 68 -38 155zM1527.5 1661q8.5 37 36 63.5t66.5 35.5 t72 -15q33 -25 81 -57.5t99 -63.5t99.5 -57.5t78.5 -38.5q31 -10 33 -29.5t-15.5 -38t-51 -29t-74.5 -4.5q-47 8 -104.5 22.5t-114 35t-104.5 47.5t-79 59q-31 33 -22.5 70z" />
<glyph unicode="&#xda;" horiz-adv-x="2027" d="M5 -173q15 87 74.5 184.5t155 200.5t202 205.5t216 201t197.5 184.5t145.5 155.5t61.5 116.5q-51 14 -71.5 42t-16.5 60.5t28.5 63.5t60.5 49.5t82 20.5t91 -25q80 -45 76 -123t-65.5 -175t-166 -209.5t-221.5 -227.5t-233.5 -225.5t-203.5 -204.5t-130 -166t-15 -109 q25 -31 91.5 -13.5t160.5 69t211 128t240 167t244.5 187.5t229 186t194 163t135.5 121q63 106 135 203.5t142.5 162t134 87t112.5 -20.5t31.5 -102.5t-78 -131t-152.5 -152.5t-192 -165q-74 -106 -144.5 -216.5t-134 -217t-115 -204t-84 -176.5t-43 -135t10.5 -81 q25 -31 24.5 -59.5t-18.5 -52t-47 -38t-61.5 -15.5t-63.5 14.5t-49 52.5q-27 49 -13.5 131t59.5 187.5t118.5 231.5t162.5 263q-123 -96 -262 -213t-280.5 -227.5t-279.5 -203.5t-261 -144.5t-223.5 -47.5t-163.5 88q-53 68 -38 155zM1508 1450q-1 25 16.5 52.5t56.5 43.5 q49 20 122 57t149.5 72t147.5 59.5t116 22.5t65.5 -33.5t19.5 -69.5t-22.5 -72t-62.5 -40t-119 -26.5t-161 -45t-155.5 -45t-105.5 -26.5q-31 -6 -48.5 10t-18.5 41z" />
<glyph unicode="&#xdb;" horiz-adv-x="2027" d="M5 -173q15 87 74.5 184.5t155 200.5t202 205.5t216 201t197.5 184.5t145.5 155.5t61.5 116.5q-51 14 -71.5 42t-16.5 60.5t28.5 63.5t60.5 49.5t82 20.5t91 -25q80 -45 76 -123t-65.5 -175t-166 -209.5t-221.5 -227.5t-233.5 -225.5t-203.5 -204.5t-130 -166t-15 -109 q25 -31 91.5 -13.5t160.5 69t211 128t240 167t244.5 187.5t229 186t194 163t135.5 121q63 106 135 203.5t142.5 162t134 87t112.5 -20.5t31.5 -102.5t-78 -131t-152.5 -152.5t-192 -165q-74 -106 -144.5 -216.5t-134 -217t-115 -204t-84 -176.5t-43 -135t10.5 -81 q25 -31 24.5 -59.5t-18.5 -52t-47 -38t-61.5 -15.5t-63.5 14.5t-49 52.5q-27 49 -13.5 131t59.5 187.5t118.5 231.5t162.5 263q-123 -96 -262 -213t-280.5 -227.5t-279.5 -203.5t-261 -144.5t-223.5 -47.5t-163.5 88q-53 68 -38 155zM1427.5 1476.5q-12.5 28.5 1 59.5 t58.5 43q41 10 91 26.5t102.5 39t102.5 50t93 62.5t87 51.5t80 16.5t57.5 -13.5t15.5 -37.5q-12 -57 -7 -110.5t45 -107.5q35 -43 19 -76.5t-56 -51t-87.5 -16.5t-71.5 26q-25 23 -39 48t-23 46q-8 23 -12 47q-63 -37 -121 -68q-51 -27 -104 -51t-88 -33q-57 -12 -94 4.5 t-49.5 45z" />
<glyph unicode="&#xdc;" horiz-adv-x="2027" d="M5 -173q15 87 74.5 184.5t155 200.5t202 205.5t216 201t197.5 184.5t145.5 155.5t61.5 116.5q-51 14 -71.5 42t-16.5 60.5t28.5 63.5t60.5 49.5t82 20.5t91 -25q80 -45 76 -123t-65.5 -175t-166 -209.5t-221.5 -227.5t-233.5 -225.5t-203.5 -204.5t-130 -166t-15 -109 q25 -31 91.5 -13.5t160.5 69t211 128t240 167t244.5 187.5t229 186t194 163t135.5 121q63 106 135 203.5t142.5 162t134 87t112.5 -20.5t31.5 -102.5t-78 -131t-152.5 -152.5t-192 -165q-74 -106 -144.5 -216.5t-134 -217t-115 -204t-84 -176.5t-43 -135t10.5 -81 q25 -31 24.5 -59.5t-18.5 -52t-47 -38t-61.5 -15.5t-63.5 14.5t-49 52.5q-27 49 -13.5 131t59.5 187.5t118.5 231.5t162.5 263q-123 -96 -262 -213t-280.5 -227.5t-279.5 -203.5t-261 -144.5t-223.5 -47.5t-163.5 88q-53 68 -38 155zM1475.5 1534q7.5 37 33 71.5t65.5 61.5 t81 40t77.5 7t59.5 -39t15.5 -69.5t-34 -69.5t-64.5 -60.5t-79 -40t-77.5 -6.5t-59.5 37q-25 31 -17.5 68zM1845 1509q-18 57 26 115.5t109.5 95.5t128 38t80.5 -56q10 -39 -7 -78t-51 -71.5t-78 -57.5t-86 -34t-76 1t-46 47z" />
<glyph unicode="&#xdd;" horiz-adv-x="1669" d="M15 -194q28 85 107 180.5t203 195t283 189.5q-96 -55 -184 -88t-162 -42.5t-131 5t-90 51.5q-35 39 -24.5 102.5t49 139t95 158.5t112 162t100.5 145.5t59 111.5q-41 6 -61.5 33t-23.5 58.5t11.5 64.5t45 53.5t78.5 21.5t110 -30q57 -29 69.5 -78t-6 -109.5t-61.5 -130 t-93 -140.5t-101.5 -138.5t-88.5 -124.5t-50 -99t9 -63q16 -14 60.5 -6t106 29.5t133 54.5t145.5 70q172 84 379 204q164 154 320.5 273t290.5 189.5t237.5 84t158.5 -46.5q37 -39 8.5 -94t-102.5 -119.5t-183.5 -133.5t-237.5 -136.5t-264 -129t-261 -110.5 q-188 -164 -346 -298t-267.5 -239.5t-162 -181t-29.5 -120.5q25 -43 3.5 -83t-63.5 -57.5t-92.5 -3.5t-83.5 78q-33 63 -5 148zM1052 1450q-1 25 16 52.5t56 43.5q49 20 122 57t150 72t147.5 59.5t115.5 22.5t65.5 -33.5t19.5 -69.5t-22.5 -72t-62.5 -40t-119 -26.5 t-161 -45t-155.5 -45t-105.5 -26.5q-31 -6 -48 10t-18 41z" />
<glyph unicode="&#xde;" horiz-adv-x="2381" d="M5 428q-5 39 8.5 83t44 88t79.5 77q139 92 314.5 167t366 130t385 88t372.5 39q68 59 130.5 110t117.5 90q76 55 143.5 65.5t100 -7t20.5 -57t-94 -87.5q-29 -16 -70 -46.5t-88 -71.5q174 -16 297 -68.5t166 -148.5q61 -135 21 -271.5t-177 -264.5t-369.5 -244.5 t-555.5 -213.5q-72 -23 -122.5 -9.5t-70.5 41.5t-3 60.5t83 51.5q109 31 232.5 79t242.5 107t225.5 127t180 138.5t104.5 142t2 139.5q-37 80 -165 109.5t-312 17.5q-102 -98 -212 -213t-216.5 -232.5t-204.5 -232.5t-175 -214t-129 -176t-67 -122q-31 -92 -85 -113.5t-99 4 t-64.5 87t19.5 135.5q18 33 64.5 94t114 143t153.5 178.5t182 200.5t199.5 210.5t208.5 207.5q-141 -29 -290 -73t-295.5 -102.5t-283.5 -129t-254 -152.5q-53 -37 -90 -39t-58.5 18.5t-26.5 59.5z" />
<glyph unicode="&#xdf;" horiz-adv-x="1142" d="M-215 -83q-18 32 2 91q37 109 151.5 312.5t313.5 484.5q51 74 111.5 150.5t125 147.5t131 128t131 91t127 39t115.5 -30q63 -41 76.5 -104.5t-8 -137t-71.5 -150.5t-113 -140q57 -27 75.5 -75t7 -110.5t-47 -133t-87 -141.5t-114 -137.5t-125.5 -119.5q109 59 248 143 t309 193q61 39 103 38t56.5 -24.5t-4 -63.5t-77.5 -79q-109 -72 -234 -153t-262 -149.5t-284.5 -115.5t-297.5 -53q-49 -2 -76.5 27.5t-32.5 67.5t13.5 72.5t61.5 45.5q61 12 135.5 52t149.5 94t142.5 117.5t119 124t77 111t17.5 78.5q-4 14 -19.5 18.5t-36 2.5t-45 -11.5 t-49.5 -21.5q-57 -33 -88 -32t-40 22.5t1 55.5t36 70t65.5 64.5t89.5 40.5q55 37 97 85t68.5 94t34.5 83t-6 54q-18 18 -62 -14t-104.5 -99.5t-133.5 -162.5t-148.5 -201.5t-148.5 -217t-134 -209t-106.5 -177.5t-63.5 -122q-14 -31 -50 -45t-70 -7t-52 39z" />
<glyph unicode="&#xe0;" horiz-adv-x="1275" d="M-90.5 138.5q-15.5 58.5 6 126t74.5 140t124.5 141t157.5 128t175.5 100.5t176.5 58.5t158 3.5q51 -10 65.5 -48t4.5 -78t-36.5 -68.5t-57.5 -20.5q-68 16 -149 -5.5t-158.5 -65.5t-147.5 -102.5t-115 -112.5t-59 -95t16 -54q27 -10 72 6.5t97.5 48t110.5 73.5t110.5 82 t97.5 74t72 50q49 29 104 39t96 4t57.5 -27.5t-14.5 -56.5t-64.5 -77t-58 -81.5t-35 -70.5t8.5 -39q14 -8 51 2t84 29.5t100 46t101.5 52.5t86.5 46.5t54 30.5q43 25 83 24.5t58.5 -21t6 -55t-71.5 -77.5q-35 -25 -113 -72t-174 -95t-196.5 -83t-180.5 -35q-66 0 -92.5 31 t-27.5 74t18.5 91t48.5 83q-66 -49 -146.5 -110.5t-168 -105.5t-173.5 -58.5t-161 32.5q-61 39 -76.5 97.5zM497.5 1169.5q8.5 36.5 36 63.5t66.5 36t72 -16t81 -57.5t99 -63t99 -57t79 -39.5q31 -10 33 -29.5t-15.5 -38t-51 -28.5t-74.5 -4q-47 8 -104.5 22.5t-114 35 t-104.5 47t-79 59.5t-22.5 69.5z" />
<glyph unicode="&#xe1;" horiz-adv-x="1275" d="M-90.5 138.5q-15.5 58.5 6 126t74.5 140t124.5 141t157.5 128t175.5 100.5t176.5 58.5t158 3.5q51 -10 65.5 -48t4.5 -78t-36.5 -68.5t-57.5 -20.5q-68 16 -149 -5.5t-158.5 -65.5t-147.5 -102.5t-115 -112.5t-59 -95t16 -54q27 -10 72 6.5t97.5 48t110.5 73.5t110.5 82 t97.5 74t72 50q49 29 104 39t96 4t57.5 -27.5t-14.5 -56.5t-64.5 -77t-58 -81.5t-35 -70.5t8.5 -39q14 -8 51 2t84 29.5t100 46t101.5 52.5t86.5 46.5t54 30.5q43 25 83 24.5t58.5 -21t6 -55t-71.5 -77.5q-35 -25 -113 -72t-174 -95t-196.5 -83t-180.5 -35q-66 0 -92.5 31 t-27.5 74t18.5 91t48.5 83q-66 -49 -146.5 -110.5t-168 -105.5t-173.5 -58.5t-161 32.5q-61 39 -76.5 97.5zM531 958.5q-1 24.5 16.5 52.5t56.5 44q49 20 122 57t149.5 72t147.5 59.5t116 22.5t65.5 -34t19.5 -70t-22.5 -71.5t-62.5 -39.5t-119 -26.5t-161 -45.5 t-155.5 -45.5t-105.5 -26.5q-31 -6 -48.5 10.5t-18.5 41z" />
<glyph unicode="&#xe2;" horiz-adv-x="1275" d="M-90.5 138.5q-15.5 58.5 6 126t74.5 140t124.5 141t157.5 128t175.5 100.5t176.5 58.5t158 3.5q51 -10 65.5 -48t4.5 -78t-36.5 -68.5t-57.5 -20.5q-68 16 -149 -5.5t-158.5 -65.5t-147.5 -102.5t-115 -112.5t-59 -95t16 -54q27 -10 72 6.5t97.5 48t110.5 73.5t110.5 82 t97.5 74t72 50q49 29 104 39t96 4t57.5 -27.5t-14.5 -56.5t-64.5 -77t-58 -81.5t-35 -70.5t8.5 -39q14 -8 51 2t84 29.5t100 46t101.5 52.5t86.5 46.5t54 30.5q43 25 83 24.5t58.5 -21t6 -55t-71.5 -77.5q-35 -25 -113 -72t-174 -95t-196.5 -83t-180.5 -35q-66 0 -92.5 31 t-27.5 74t18.5 91t48.5 83q-66 -49 -146.5 -110.5t-168 -105.5t-173.5 -58.5t-161 32.5q-61 39 -76.5 97.5zM450.5 985q-12.5 29 1 59.5t58.5 42.5q41 10 91 26.5t102.5 39.5t102.5 50.5t93 62.5t87 51t80 16t57.5 -13t15.5 -38q-12 -57 -7 -110.5t46 -106.5 q35 -43 18.5 -77t-56.5 -51t-87 -16t-72 25q-25 23 -39 48.5t-22 45.5q-8 23 -13 47q-63 -37 -121 -67q-51 -27 -104 -51.5t-88 -32.5q-57 -12 -94 4t-49.5 45z" />
<glyph unicode="&#xe3;" horiz-adv-x="1275" d="M-90.5 138.5q-15.5 58.5 6 126t74.5 140t124.5 141t157.5 128t175.5 100.5t176.5 58.5t158 3.5q51 -10 65.5 -48t4.5 -78t-36.5 -68.5t-57.5 -20.5q-68 16 -149 -5.5t-158.5 -65.5t-147.5 -102.5t-115 -112.5t-59 -95t16 -54q27 -10 72 6.5t97.5 48t110.5 73.5t110.5 82 t97.5 74t72 50q49 29 104 39t96 4t57.5 -27.5t-14.5 -56.5t-64.5 -77t-58 -81.5t-35 -70.5t8.5 -39q14 -8 51 2t84 29.5t100 46t101.5 52.5t86.5 46.5t54 30.5q43 25 83 24.5t58.5 -21t6 -55t-71.5 -77.5q-35 -25 -113 -72t-174 -95t-196.5 -83t-180.5 -35q-66 0 -92.5 31 t-27.5 74t18.5 91t48.5 83q-66 -49 -146.5 -110.5t-168 -105.5t-173.5 -58.5t-161 32.5q-61 39 -76.5 97.5zM453.5 1023q7.5 30 38.5 54q18 14 62 47t99.5 63t113.5 47t107 3q29 -10 47.5 -27.5t32 -38t24.5 -38t30 -23.5q35 -16 70.5 6.5t64.5 57.5q25 31 62.5 45t70.5 14 t53.5 -16.5t11.5 -47.5q-12 -41 -58 -89t-109.5 -88t-133 -61.5t-127.5 -6.5q-33 8 -52 27.5t-34.5 41t-32 38t-42.5 20.5q-23 2 -45.5 -7.5t-44 -23.5t-42 -29.5t-38.5 -25.5q-45 -25 -76 -20t-45.5 26.5t-7 51.5z" />
</font>
</defs>
</svg>
